Caveat.ufo
<glyph name="exclam" format="2">
  <advance width="210"/>
  <unicode hex="0021"/>
  <outline>
    <contour>
      <point x="197" y="170" type="qcurve" smooth="yes"/>
      <point x="169" y="165"/>
      <point x="151" y="229"/>
      <point x="165" y="285" type="qcurve" smooth="yes"/>
      <point x="171" y="297"/>
      <point x="179" y="320"/>
      <point x="179" y="327" type="qcurve" smooth="yes"/>
      <point x="183" y="340"/>
      <point x="196" y="375"/>
      <point x="210" y="406"/>
      <point x="213" y="411" type="qcurve" smooth="yes"/>
      <point x="217" y="411"/>
      <point x="226" y="425"/>
      <point x="226" y="432" type="qcurve" smooth="yes"/>
      <point x="226" y="440"/>
      <point x="233" y="460"/>
      <point x="237" y="464" type="qcurve" smooth="yes"/>
      <point x="237" y="469"/>
      <point x="245" y="481"/>
      <point x="245" y="485" type="qcurve" smooth="yes"/>
      <point x="245" y="489"/>
      <point x="250" y="495"/>
      <point x="250" y="499" type="qcurve" smooth="yes"/>
      <point x="259" y="515"/>
      <point x="288" y="578"/>
      <point x="317" y="648"/>
      <point x="337" y="702"/>
      <point x="337" y="708" type="qcurve" smooth="yes"/>
      <point x="339" y="716"/>
      <point x="347" y="724"/>
      <point x="355" y="722" type="qcurve" smooth="yes"/>
      <point x="359" y="725"/>
      <point x="367" y="726"/>
      <point x="371" y="726" type="qcurve" smooth="yes"/>
      <point x="371" y="726"/>
      <point x="378" y="718"/>
      <point x="385" y="710" type="qcurve" smooth="yes"/>
      <point x="393" y="703"/>
      <point x="395" y="685"/>
      <point x="395" y="673" type="qcurve" smooth="yes"/>
      <point x="394" y="654"/>
      <point x="368" y="606"/>
      <point x="352" y="577" type="qcurve" smooth="yes"/>
      <point x="342" y="558"/>
      <point x="323" y="524"/>
      <point x="323" y="520" type="qcurve" smooth="yes"/>
      <point x="323" y="516"/>
      <point x="315" y="500"/>
      <point x="310" y="488" type="qcurve" smooth="yes"/>
      <point x="304" y="478"/>
      <point x="290" y="450"/>
      <point x="279" y="427"/>
      <point x="279" y="424" type="qcurve" smooth="yes"/>
      <point x="278" y="420"/>
      <point x="275" y="412"/>
      <point x="271" y="408" type="qcurve" smooth="yes"/>
      <point x="267" y="408"/>
      <point x="266" y="397"/>
      <point x="266" y="397" type="qcurve" smooth="yes"/>
      <point x="266" y="393"/>
      <point x="257" y="364"/>
      <point x="247" y="344" type="qcurve" smooth="yes"/>
      <point x="228" y="291"/>
      <point x="212" y="228"/>
      <point x="210" y="206" type="qcurve" smooth="yes"/>
      <point x="208" y="182"/>
      <point x="205" y="174"/>
    </contour>
    <contour>
      <point x="143" y="10" type="qcurve" smooth="yes"/>
      <point x="124" y="3"/>
      <point x="99" y="4"/>
      <point x="84" y="15" type="qcurve" smooth="yes"/>
      <point x="65" y="33"/>
      <point x="78" y="70"/>
      <point x="104" y="88" type="qcurve" smooth="yes"/>
      <point x="122" y="99"/>
      <point x="139" y="101"/>
      <point x="157" y="93" type="qcurve" smooth="yes"/>
      <point x="187" y="74"/>
      <point x="180" y="28"/>
    </contour>
  </outline>
</glyph>
<glyph name="quotedbl" format="2">
  <advance width="237"/>
  <unicode hex="0022"/>
  <outline>
    <contour>
      <point x="199" y="440" type="qcurve" smooth="yes"/>
      <point x="189" y="439"/>
      <point x="183" y="441"/>
      <point x="176" y="447" type="qcurve"/>
      <point x="175" y="454"/>
      <point x="181" y="466"/>
      <point x="186" y="473" type="qcurve" smooth="yes"/>
      <point x="198" y="493"/>
      <point x="229" y="548"/>
      <point x="234" y="563" type="qcurve" smooth="yes"/>
      <point x="236" y="574"/>
      <point x="245" y="609"/>
      <point x="245" y="628" type="qcurve" smooth="yes"/>
      <point x="245" y="633"/>
      <point x="246" y="647"/>
      <point x="252" y="658"/>
      <point x="257" y="655" type="qcurve" smooth="yes"/>
      <point x="266" y="651"/>
      <point x="287" y="640"/>
      <point x="300" y="626"/>
      <point x="298" y="615" type="qcurve" smooth="yes"/>
      <point x="296" y="591"/>
      <point x="280" y="550"/>
      <point x="274" y="530" type="qcurve" smooth="yes"/>
      <point x="268" y="508"/>
      <point x="240" y="470"/>
      <point x="223" y="450" type="qcurve" smooth="yes"/>
      <point x="224" y="446"/>
      <point x="210" y="444"/>
    </contour>
    <contour>
      <point x="319" y="440" type="qcurve" smooth="yes"/>
      <point x="309" y="439"/>
      <point x="303" y="441"/>
      <point x="296" y="447" type="qcurve"/>
      <point x="295" y="454"/>
      <point x="301" y="466"/>
      <point x="306" y="473" type="qcurve" smooth="yes"/>
      <point x="318" y="493"/>
      <point x="349" y="548"/>
      <point x="354" y="563" type="qcurve" smooth="yes"/>
      <point x="356" y="574"/>
      <point x="365" y="609"/>
      <point x="365" y="628" type="qcurve" smooth="yes"/>
      <point x="365" y="633"/>
      <point x="366" y="647"/>
      <point x="372" y="658"/>
      <point x="377" y="655" type="qcurve" smooth="yes"/>
      <point x="386" y="651"/>
      <point x="407" y="640"/>
      <point x="420" y="626"/>
      <point x="418" y="615" type="qcurve" smooth="yes"/>
      <point x="416" y="591"/>
      <point x="400" y="550"/>
      <point x="394" y="530" type="qcurve" smooth="yes"/>
      <point x="388" y="508"/>
      <point x="360" y="470"/>
      <point x="343" y="450" type="qcurve" smooth="yes"/>
      <point x="344" y="446"/>
      <point x="330" y="444"/>
    </contour>
  </outline>
</glyph>
<glyph name="quotesingle" format="2">
  <advance width="117"/>
  <unicode hex="0027"/>
  <outline>
    <contour>
      <point x="189" y="440" type="qcurve" smooth="yes"/>
      <point x="179" y="439"/>
      <point x="173" y="441"/>
      <point x="166" y="447" type="qcurve"/>
      <point x="165" y="454"/>
      <point x="171" y="466"/>
      <point x="176" y="473" type="qcurve" smooth="yes"/>
      <point x="188" y="493"/>
      <point x="219" y="548"/>
      <point x="224" y="563" type="qcurve" smooth="yes"/>
      <point x="226" y="574"/>
      <point x="235" y="609"/>
      <point x="235" y="628" type="qcurve" smooth="yes"/>
      <point x="235" y="633"/>
      <point x="236" y="647"/>
      <point x="242" y="658"/>
      <point x="247" y="655" type="qcurve" smooth="yes"/>
      <point x="256" y="651"/>
      <point x="277" y="640"/>
      <point x="290" y="626"/>
      <point x="288" y="615" type="qcurve" smooth="yes"/>
      <point x="286" y="591"/>
      <point x="270" y="550"/>
      <point x="264" y="530" type="qcurve" smooth="yes"/>
      <point x="258" y="508"/>
      <point x="230" y="470"/>
      <point x="213" y="450" type="qcurve" smooth="yes"/>
      <point x="214" y="446"/>
      <point x="200" y="444"/>
    </contour>
  </outline>
</glyph>
<glyph name="parenright" format="2">
  <advance width="330"/>
  <unicode hex="0029"/>
  <outline>
    <contour>
      <point x="72" y="-120" type="qcurve" smooth="yes"/>
      <point x="53" y="-115"/>
      <point x="32" y="-97"/>
      <point x="31" y="-82" type="qcurve" smooth="yes"/>
      <point x="32" y="-79"/>
      <point x="32" y="-68"/>
      <point x="36" y="-61" type="qcurve"/>
      <point x="36" y="-61"/>
      <point x="49" y="-67"/>
      <point x="65" y="-63" type="qcurve"/>
      <point x="85" y="-64"/>
      <point x="101" y="-54"/>
      <point x="116" y="-37" type="qcurve" smooth="yes"/>
      <point x="127" y="-22"/>
      <point x="156" y="18"/>
      <point x="161" y="31" type="qcurve"/>
      <point x="177" y="42"/>
      <point x="191" y="61"/>
      <point x="197" y="71" type="qcurve" smooth="yes"/>
      <point x="197" y="76"/>
      <point x="203" y="103"/>
      <point x="215" y="122" type="qcurve" smooth="yes"/>
      <point x="226" y="147"/>
      <point x="246" y="182"/>
      <point x="246" y="187" type="qcurve" smooth="yes"/>
      <point x="246" y="187"/>
      <point x="252" y="201"/>
      <point x="251" y="211" type="qcurve"/>
      <point x="257" y="214"/>
      <point x="266" y="235"/>
      <point x="265" y="246" type="qcurve" smooth="yes"/>
      <point x="265" y="249"/>
      <point x="283" y="290"/>
      <point x="284" y="311" type="qcurve"/>
      <point x="295" y="347"/>
      <point x="306" y="404"/>
      <point x="312" y="472"/>
      <point x="315" y="525" type="qcurve" smooth="yes"/>
      <point x="317" y="570"/>
      <point x="319" y="615"/>
      <point x="316" y="639"/>
      <point x="308" y="651" type="qcurve"/>
      <point x="298" y="683"/>
      <point x="291" y="683" type="qcurve" smooth="yes"/>
      <point x="288" y="683"/>
      <point x="281" y="700"/>
      <point x="285" y="714" type="qcurve" smooth="yes"/>
      <point x="284" y="718"/>
      <point x="292" y="728"/>
      <point x="301" y="727" type="qcurve" smooth="yes"/>
      <point x="308" y="727"/>
      <point x="325" y="716"/>
      <point x="328" y="712" type="qcurve"/>
      <point x="332" y="716"/>
      <point x="349" y="689"/>
      <point x="359" y="660" type="qcurve" smooth="yes"/>
      <point x="365" y="646"/>
      <point x="371" y="627"/>
      <point x="373" y="604"/>
      <point x="371" y="563"/>
      <point x="369" y="527" type="qcurve" smooth="yes"/>
      <point x="369" y="492"/>
      <point x="360" y="409"/>
      <point x="348" y="330"/>
      <point x="341" y="298" type="qcurve" smooth="yes"/>
      <point x="334" y="272"/>
      <point x="310" y="199"/>
      <point x="281" y="125"/>
      <point x="256" y="67"/>
      <point x="248" y="55" type="qcurve"/>
      <point x="250" y="55"/>
      <point x="235" y="31"/>
      <point x="210" y="-6"/>
      <point x="184" y="-45"/>
      <point x="175" y="-59" type="qcurve" smooth="yes"/>
      <point x="160" y="-80"/>
      <point x="122" y="-110"/>
      <point x="86" y="-124"/>
    </contour>
  </outline>
</glyph>
<glyph name="comma" format="2">
  <advance width="198"/>
  <unicode hex="002C"/>
  <outline>
    <contour>
      <point x="52" y="-79" type="qcurve" smooth="yes"/>
      <point x="42" y="-79"/>
      <point x="37" y="-76"/>
      <point x="33" y="-69" type="qcurve" smooth="yes"/>
      <point x="33" y="-62"/>
      <point x="40" y="-52"/>
      <point x="47" y="-45" type="qcurve" smooth="yes"/>
      <point x="57" y="-35"/>
      <point x="83" y="-6"/>
      <point x="106" y="24"/>
      <point x="111" y="33" type="qcurve" smooth="yes"/>
      <point x="115" y="44"/>
      <point x="122" y="74"/>
      <point x="126" y="92" type="qcurve" smooth="yes"/>
      <point x="126" y="100"/>
      <point x="127" y="113"/>
      <point x="131" y="117" type="qcurve" smooth="yes"/>
      <point x="138" y="124"/>
      <point x="149" y="122"/>
      <point x="158" y="100"/>
      <point x="160" y="78" type="qcurve" smooth="yes"/>
      <point x="164" y="56"/>
      <point x="156" y="20"/>
      <point x="145" y="-6" type="qcurve" smooth="yes"/>
      <point x="143" y="-13"/>
      <point x="121" y="-41"/>
      <point x="99" y="-65"/>
      <point x="96" y="-65" type="qcurve" smooth="yes"/>
      <point x="92" y="-65"/>
      <point x="86" y="-70"/>
      <point x="82" y="-74" type="qcurve" smooth="yes"/>
      <point x="78" y="-78"/>
      <point x="63" y="-79"/>
    </contour>
  </outline>
</glyph>
<glyph name="hyphen" format="2">
  <advance width="326"/>
  <unicode hex="002D"/>
  <outline>
    <contour>
      <point x="178" y="178" type="qcurve" smooth="yes"/>
      <point x="172" y="178"/>
      <point x="154" y="179"/>
      <point x="143" y="183" type="qcurve"/>
      <point x="128" y="183"/>
      <point x="118" y="190"/>
      <point x="114" y="197" type="qcurve" smooth="yes"/>
      <point x="103" y="212"/>
      <point x="121" y="223"/>
      <point x="158" y="227" type="qcurve"/>
      <point x="192" y="235"/>
      <point x="250" y="241"/>
      <point x="290" y="241" type="qcurve" smooth="yes"/>
      <point x="316" y="241"/>
      <point x="334" y="237"/>
      <point x="345" y="226" type="qcurve" smooth="yes"/>
      <point x="360" y="211"/>
      <point x="352" y="184"/>
      <point x="329" y="188" type="qcurve" smooth="yes"/>
      <point x="322" y="187"/>
      <point x="284" y="185"/>
      <point x="266" y="183" type="qcurve" smooth="yes"/>
      <point x="255" y="182"/>
      <point x="207" y="178"/>
    </contour>
  </outline>
</glyph>
<glyph name="one" format="2">
  <advance width="450"/>
  <unicode hex="0031"/>
  <outline>
    <contour>
      <point x="321" y="-10" type="qcurve" smooth="yes"/>
      <point x="318" y="-12"/>
      <point x="308" y="-9"/>
      <point x="296" y="0"/>
      <point x="289" y="6" type="qcurve" smooth="yes"/>
      <point x="285" y="10"/>
      <point x="283" y="21"/>
      <point x="289" y="49"/>
      <point x="295" y="80" type="qcurve" smooth="yes"/>
      <point x="299" y="100"/>
      <point x="309" y="140"/>
      <point x="317" y="167"/>
      <point x="317" y="167" type="qcurve"/>
      <point x="322" y="169"/>
      <point x="341" y="225"/>
      <point x="353" y="265" type="qcurve" smooth="yes"/>
      <point x="357" y="279"/>
      <point x="377" y="345"/>
      <point x="387" y="376" type="qcurve" smooth="yes"/>
      <point x="396" y="405"/>
      <point x="408" y="452"/>
      <point x="408" y="452" type="qcurve"/>
      <point x="408" y="452"/>
      <point x="379" y="435"/>
      <point x="335" y="408"/>
      <point x="314" y="392" type="qcurve" smooth="yes"/>
      <point x="297" y="382"/>
      <point x="250" y="346"/>
      <point x="232" y="335" type="qcurve" smooth="yes"/>
      <point x="205" y="314"/>
      <point x="193" y="309"/>
      <point x="184" y="314" type="qcurve" smooth="yes"/>
      <point x="171" y="325"/>
      <point x="162" y="349"/>
      <point x="168" y="359" type="qcurve" smooth="yes"/>
      <point x="170" y="360"/>
      <point x="191" y="374"/>
      <point x="217" y="392"/>
      <point x="240" y="408"/>
      <point x="245" y="411" type="qcurve" smooth="yes"/>
      <point x="248" y="411"/>
      <point x="264" y="425"/>
      <point x="273" y="431" type="qcurve" smooth="yes"/>
      <point x="278" y="437"/>
      <point x="338" y="479"/>
      <point x="373" y="505" type="qcurve" smooth="yes"/>
      <point x="410" y="528"/>
      <point x="461" y="556"/>
      <point x="465" y="555" type="qcurve" smooth="yes"/>
      <point x="468" y="555"/>
      <point x="481" y="547"/>
      <point x="493" y="535"/>
      <point x="494" y="529" type="qcurve" smooth="yes"/>
      <point x="500" y="522"/>
      <point x="488" y="497" type="qcurve" smooth="yes"/>
      <point x="484" y="488"/>
      <point x="466" y="441"/>
      <point x="445" y="380"/>
      <point x="426" y="321"/>
      <point x="420" y="300" type="qcurve" smooth="yes"/>
      <point x="412" y="269"/>
      <point x="399" y="235"/>
      <point x="388" y="204"/>
      <point x="381" y="177" type="qcurve" smooth="yes"/>
      <point x="374" y="161"/>
      <point x="359" y="112"/>
      <point x="347" y="65"/>
      <point x="344" y="50" type="qcurve" smooth="yes"/>
      <point x="336" y="28"/>
      <point x="326" y="-6"/>
    </contour>
  </outline>
</glyph>
<glyph name="two" format="2">
  <advance width="450"/>
  <unicode hex="0032"/>
  <outline>
    <contour>
      <point x="159" y="23" type="qcurve" smooth="yes"/>
      <point x="155" y="25"/>
      <point x="140" y="36"/>
      <point x="125" y="51"/>
      <point x="122" y="57" type="qcurve" smooth="yes"/>
      <point x="119" y="62"/>
      <point x="126" y="88"/>
      <point x="130" y="88" type="qcurve" smooth="yes"/>
      <point x="133" y="86"/>
      <point x="147" y="104"/>
      <point x="161" y="125"/>
      <point x="161" y="127" type="qcurve" smooth="yes"/>
      <point x="162" y="131"/>
      <point x="171" y="136"/>
      <point x="175" y="139" type="qcurve" smooth="yes"/>
      <point x="180" y="147"/>
      <point x="197" y="164"/>
      <point x="202" y="170" type="qcurve" smooth="yes"/>
      <point x="210" y="180"/>
      <point x="252" y="220"/>
      <point x="272" y="241" type="qcurve" smooth="yes"/>
      <point x="293" y="264"/>
      <point x="325" y="299"/>
      <point x="326" y="306" type="qcurve"/>
      <point x="326" y="306"/>
      <point x="333" y="313"/>
      <point x="338" y="316" type="qcurve" smooth="yes"/>
      <point x="343" y="319"/>
      <point x="360" y="333"/>
      <point x="366" y="339" type="qcurve"/>
      <point x="368" y="347"/>
      <point x="387" y="376"/>
      <point x="397" y="386" type="qcurve" smooth="yes"/>
      <point x="405" y="398"/>
      <point x="419" y="427"/>
      <point x="421" y="434" type="qcurve" smooth="yes"/>
      <point x="424" y="445"/>
      <point x="418" y="450"/>
      <point x="396" y="457" type="qcurve" smooth="yes"/>
      <point x="372" y="465"/>
      <point x="315" y="462"/>
      <point x="280" y="437" type="qcurve"/>
      <point x="266" y="434"/>
      <point x="243" y="424"/>
      <point x="235" y="425" type="qcurve" smooth="yes"/>
      <point x="231" y="427"/>
      <point x="221" y="441"/>
      <point x="215" y="447" type="qcurve" smooth="yes"/>
      <point x="205" y="468" type="line"/>
      <point x="236" y="485" type="line" smooth="yes"/>
      <point x="277" y="511"/>
      <point x="344" y="531"/>
      <point x="372" y="522" type="qcurve" smooth="yes"/>
      <point x="383" y="522"/>
      <point x="401" y="517"/>
      <point x="401" y="517" type="qcurve" smooth="yes"/>
      <point x="409" y="518"/>
      <point x="433" y="499"/>
      <point x="456" y="471"/>
      <point x="462" y="457" type="qcurve" smooth="yes"/>
      <point x="478" y="433"/>
      <point x="467" y="380"/>
      <point x="442" y="343" type="qcurve" smooth="yes"/>
      <point x="437" y="337"/>
      <point x="403" y="299"/>
      <point x="360" y="252"/>
      <point x="325" y="216"/>
      <point x="320" y="211" type="qcurve" smooth="yes"/>
      <point x="313" y="208"/>
      <point x="280" y="173"/>
      <point x="243" y="132"/>
      <point x="218" y="101"/>
      <point x="220" y="101" type="qcurve"/>
      <point x="219" y="97"/>
      <point x="227" y="98"/>
      <point x="236" y="101" type="qcurve" smooth="yes"/>
      <point x="251" y="106"/>
      <point x="300" y="116"/>
      <point x="352" y="123"/>
      <point x="391" y="125"/>
      <point x="394" y="122" type="qcurve" smooth="yes"/>
      <point x="396" y="117"/>
      <point x="399" y="120"/>
      <point x="399" y="120" type="qcurve" smooth="yes"/>
      <point x="401" y="127"/>
      <point x="448" y="121"/>
      <point x="467" y="115" type="qcurve" smooth="yes"/>
      <point x="478" y="112"/>
      <point x="491" y="108"/>
      <point x="491" y="104" type="qcurve" smooth="yes"/>
      <point x="491" y="104"/>
      <point x="496" y="95"/>
      <point x="502" y="88" type="qcurve" smooth="yes"/>
      <point x="518" y="75"/>
      <point x="494" y="67"/>
      <point x="454" y="74" type="qcurve"/>
      <point x="428" y="74"/>
      <point x="411" y="71" type="qcurve" smooth="yes"/>
      <point x="407" y="69"/>
      <point x="381" y="69"/>
      <point x="369" y="68" type="qcurve" smooth="yes"/>
      <point x="351" y="70"/>
      <point x="315" y="63"/>
      <point x="290" y="55" type="qcurve" smooth="yes"/>
      <point x="281" y="52"/>
      <point x="243" y="40"/>
      <point x="199" y="28"/>
      <point x="164" y="22"/>
    </contour>
  </outline>
</glyph>
<glyph name="three" format="2">
  <advance width="450"/>
  <unicode hex="0033"/>
  <outline>
    <contour>
      <point x="243" y="16" type="qcurve" smooth="yes"/>
      <point x="218" y="16"/>
      <point x="171" y="27"/>
      <point x="143" y="46"/>
      <point x="144" y="58" type="qcurve" smooth="yes"/>
      <point x="145" y="74"/>
      <point x="157" y="77"/>
      <point x="179" y="74" type="qcurve" smooth="yes"/>
      <point x="213" y="67"/>
      <point x="291" y="79"/>
      <point x="359" y="109"/>
      <point x="378" y="128" type="qcurve" smooth="yes"/>
      <point x="405" y="154"/>
      <point x="400" y="206"/>
      <point x="371" y="225" type="qcurve" smooth="yes"/>
      <point x="358" y="234"/>
      <point x="312" y="250"/>
      <point x="267" y="259"/>
      <point x="253" y="258" type="qcurve" smooth="yes"/>
      <point x="244" y="257"/>
      <point x="233" y="259"/>
      <point x="220" y="266" type="qcurve" smooth="yes"/>
      <point x="214" y="273"/>
      <point x="204" y="290"/>
      <point x="202" y="294" type="qcurve" smooth="yes"/>
      <point x="201" y="299"/>
      <point x="214" y="309"/>
      <point x="258" y="334"/>
      <point x="304" y="359" type="qcurve" smooth="yes"/>
      <point x="346" y="382"/>
      <point x="395" y="411"/>
      <point x="424" y="430"/>
      <point x="433" y="438" type="qcurve" smooth="yes"/>
      <point x="451" y="462"/>
      <point x="451" y="476"/>
      <point x="425" y="481" type="qcurve" smooth="yes"/>
      <point x="400" y="483"/>
      <point x="354" y="485"/>
      <point x="354" y="481" type="qcurve"/>
      <point x="354" y="481"/>
      <point x="353" y="481"/>
      <point x="350" y="481" type="qcurve" smooth="yes"/>
      <point x="345" y="483"/>
      <point x="311" y="477"/>
      <point x="280" y="469"/>
      <point x="279" y="466" type="qcurve" smooth="yes"/>
      <point x="278" y="464"/>
      <point x="257" y="455"/>
      <point x="236" y="449"/>
      <point x="233" y="449" type="qcurve" smooth="yes"/>
      <point x="228" y="451"/>
      <point x="215" y="468"/>
      <point x="207" y="487"/>
      <point x="209" y="492" type="qcurve" smooth="yes"/>
      <point x="211" y="496"/>
      <point x="232" y="509"/>
      <point x="260" y="524"/>
      <point x="271" y="529" type="qcurve" smooth="yes"/>
      <point x="285" y="533"/>
      <point x="336" y="537"/>
      <point x="388" y="538"/>
      <point x="400" y="537" type="qcurve" smooth="yes"/>
      <point x="446" y="532"/>
      <point x="496" y="494"/>
      <point x="502" y="462" type="qcurve" smooth="yes"/>
      <point x="505" y="448"/>
      <point x="503" y="430"/>
      <point x="487" y="411"/>
      <point x="467" y="393" type="qcurve"/>
      <point x="442" y="377"/>
      <point x="410" y="355"/>
      <point x="378" y="338" type="qcurve" smooth="yes"/>
      <point x="371" y="333"/>
      <point x="347" y="317"/>
      <point x="327" y="304"/>
      <point x="327" y="302" type="qcurve" smooth="yes"/>
      <point x="327" y="302"/>
      <point x="335" y="297"/>
      <point x="347" y="289"/>
      <point x="352" y="284" type="qcurve" smooth="yes"/>
      <point x="381" y="274"/>
      <point x="429" y="230"/>
      <point x="439" y="216" type="qcurve" smooth="yes"/>
      <point x="453" y="185"/>
      <point x="448" y="127"/>
      <point x="412" y="76"/>
      <point x="377" y="55" type="qcurve" smooth="yes"/>
      <point x="349" y="39"/>
      <point x="275" y="18"/>
    </contour>
  </outline>
</glyph>
<glyph name="four" format="2">
  <advance width="450"/>
  <unicode hex="0034"/>
  <outline>
    <contour>
      <point x="317" y="7" type="qcurve"/>
      <point x="310" y="16"/>
      <point x="310" y="40"/>
      <point x="319" y="77" type="qcurve" smooth="yes"/>
      <point x="324" y="103"/>
      <point x="338" y="164"/>
      <point x="342" y="182" type="qcurve" smooth="yes"/>
      <point x="350" y="201"/>
      <point x="359" y="233"/>
      <point x="359" y="233" type="qcurve"/>
      <point x="359" y="233"/>
      <point x="333" y="231"/>
      <point x="315" y="223" type="qcurve" smooth="yes"/>
      <point x="265" y="211"/>
      <point x="210" y="221"/>
      <point x="194" y="248" type="qcurve" smooth="yes"/>
      <point x="189" y="253"/>
      <point x="182" y="278"/>
      <point x="182" y="302"/>
      <point x="187" y="307" type="qcurve" smooth="yes"/>
      <point x="193" y="320"/>
      <point x="206" y="346"/>
      <point x="215" y="366"/>
      <point x="215" y="368" type="qcurve" smooth="yes"/>
      <point x="215" y="371"/>
      <point x="220" y="378"/>
      <point x="220" y="382" type="qcurve" smooth="yes"/>
      <point x="224" y="391"/>
      <point x="255" y="440"/>
      <point x="294" y="498"/>
      <point x="329" y="546"/>
      <point x="337" y="553" type="qcurve" smooth="yes"/>
      <point x="345" y="557"/>
      <point x="363" y="562"/>
      <point x="366" y="558" type="qcurve" smooth="yes"/>
      <point x="369" y="553"/>
      <point x="375" y="533"/>
      <point x="378" y="517"/>
      <point x="375" y="517" type="qcurve" smooth="yes"/>
      <point x="375" y="517"/>
      <point x="370" y="516"/>
      <point x="370" y="512" type="qcurve" smooth="yes"/>
      <point x="370" y="508"/>
      <point x="350" y="482"/>
      <point x="338" y="468" type="qcurve" smooth="yes"/>
      <point x="324" y="449"/>
      <point x="300" y="414"/>
      <point x="278" y="380"/>
      <point x="257" y="346"/>
      <point x="247" y="328" type="qcurve" smooth="yes"/>
      <point x="236" y="294"/>
      <point x="233" y="276"/>
      <point x="237" y="272" type="qcurve" smooth="yes"/>
      <point x="243" y="269"/>
      <point x="282" y="272"/>
      <point x="317" y="282" type="qcurve" smooth="yes"/>
      <point x="336" y="286"/>
      <point x="369" y="293"/>
      <point x="376" y="297" type="qcurve" smooth="yes"/>
      <point x="384" y="297"/>
      <point x="397" y="303"/>
      <point x="397" y="307" type="qcurve" smooth="yes"/>
      <point x="397" y="311"/>
      <point x="410" y="337"/>
      <point x="414" y="348" type="qcurve" smooth="yes"/>
      <point x="422" y="363"/>
      <point x="445" y="414"/>
      <point x="457" y="433" type="qcurve" smooth="yes"/>
      <point x="482" y="489"/>
      <point x="495" y="522"/>
      <point x="499" y="522" type="qcurve" smooth="yes"/>
      <point x="503" y="522"/>
      <point x="517" y="515"/>
      <point x="521" y="507" type="qcurve" smooth="yes"/>
      <point x="528" y="500"/>
      <point x="532" y="487"/>
      <point x="524" y="473" type="qcurve"/>
      <point x="522" y="461"/>
      <point x="515" y="444"/>
      <point x="502" y="420"/>
      <point x="490" y="397" type="qcurve" smooth="yes"/>
      <point x="478" y="373"/>
      <point x="447" y="307"/>
      <point x="417" y="237"/>
      <point x="392" y="176"/>
      <point x="386" y="158" type="qcurve" smooth="yes"/>
      <point x="372" y="118"/>
      <point x="358" y="73"/>
      <point x="357" y="48"/>
      <point x="362" y="38" type="qcurve" smooth="yes"/>
      <point x="364" y="20"/>
      <point x="344" y="-5"/>
      <point x="321" y="-8"/>
    </contour>
  </outline>
</glyph>
<glyph name="eight" format="2">
  <advance width="450"/>
  <unicode hex="0038"/>
  <outline>
    <contour>
      <point x="176" y="-32" type="qcurve" smooth="yes"/>
      <point x="169" y="-31"/>
      <point x="155" y="-23"/>
      <point x="142" y="-11"/>
      <point x="136" y="-6" type="qcurve" smooth="yes"/>
      <point x="129" y="11"/>
      <point x="123" y="29"/>
      <point x="126" y="50" type="qcurve" smooth="yes"/>
      <point x="126" y="62"/>
      <point x="131" y="94"/>
      <point x="138" y="104" type="qcurve" smooth="yes"/>
      <point x="145" y="124"/>
      <point x="176" y="178"/>
      <point x="213" y="232"/>
      <point x="246" y="277"/>
      <point x="254" y="287" type="qcurve" smooth="yes"/>
      <point x="265" y="301"/>
      <point x="264" y="320"/>
      <point x="244" y="347" type="qcurve" smooth="yes"/>
      <point x="240" y="358"/>
      <point x="230" y="369"/>
      <point x="234" y="369" type="qcurve"/>
      <point x="234" y="369"/>
      <point x="229" y="376"/>
      <point x="226" y="383" type="qcurve" smooth="yes"/>
      <point x="211" y="397"/>
      <point x="212" y="455"/>
      <point x="226" y="483" type="qcurve" smooth="yes"/>
      <point x="242" y="519"/>
      <point x="281" y="556"/>
      <point x="311" y="560" type="qcurve" smooth="yes"/>
      <point x="322" y="559"/>
      <point x="374" y="549"/>
      <point x="430" y="537"/>
      <point x="447" y="529" type="qcurve" smooth="yes"/>
      <point x="459" y="524"/>
      <point x="490" y="502"/>
      <point x="514" y="481"/>
      <point x="515" y="475" type="qcurve" smooth="yes"/>
      <point x="515" y="472"/>
      <point x="522" y="465"/>
      <point x="523" y="460" type="qcurve" smooth="yes"/>
      <point x="529" y="449"/>
      <point x="530" y="419"/>
      <point x="524" y="390"/>
      <point x="518" y="381" type="qcurve" smooth="yes"/>
      <point x="493" y="353"/>
      <point x="483" y="349" type="qcurve" smooth="yes"/>
      <point x="478" y="345"/>
      <point x="465" y="333"/>
      <point x="457" y="331" type="qcurve"/>
      <point x="452" y="324"/>
      <point x="443" y="314"/>
      <point x="439" y="314" type="qcurve" smooth="yes"/>
      <point x="435" y="317"/>
      <point x="427" y="318"/>
      <point x="427" y="314" type="qcurve" smooth="yes"/>
      <point x="427" y="312"/>
      <point x="400" y="298"/>
      <point x="372" y="288"/>
      <point x="368" y="290" type="qcurve" smooth="yes"/>
      <point x="368" y="290"/>
      <point x="362" y="290"/>
      <point x="356" y="286" type="qcurve"/>
      <point x="343" y="288"/>
      <point x="371" y="254" type="qcurve"/>
      <point x="394" y="211"/>
      <point x="417" y="132"/>
      <point x="402" y="111" type="qcurve"/>
      <point x="383" y="68"/>
      <point x="339" y="13"/>
      <point x="326" y="14" type="qcurve"/>
      <point x="326" y="14"/>
      <point x="317" y="8"/>
      <point x="312" y="5" type="qcurve" smooth="yes"/>
      <point x="310" y="-2"/>
      <point x="297" y="-7"/>
      <point x="292" y="-6" type="qcurve" smooth="yes"/>
      <point x="283" y="-2"/>
      <point x="261" y="-16" type="qcurve" smooth="yes"/>
      <point x="248" y="-25"/>
      <point x="213" y="-34"/>
      <point x="183" y="-35"/>
    </contour>
    <contour>
      <point x="192" y="19" type="qcurve" smooth="yes"/>
      <point x="202" y="18"/>
      <point x="238" y="32"/>
      <point x="279" y="55"/>
      <point x="294" y="65" type="qcurve" smooth="yes"/>
      <point x="332" y="96"/>
      <point x="359" y="154"/>
      <point x="347" y="185" type="qcurve" smooth="yes"/>
      <point x="341" y="197"/>
      <point x="327" y="225"/>
      <point x="322" y="233" type="qcurve" smooth="yes"/>
      <point x="316" y="242"/>
      <point x="307" y="250"/>
      <point x="302" y="253" type="qcurve"/>
      <point x="302" y="253"/>
      <point x="287" y="242"/>
      <point x="282" y="231" type="qcurve" smooth="yes"/>
      <point x="271" y="217"/>
      <point x="258" y="197"/>
      <point x="254" y="190" type="qcurve" smooth="yes"/>
      <point x="247" y="183"/>
      <point x="235" y="171"/>
      <point x="232" y="168" type="qcurve" smooth="yes"/>
      <point x="232" y="165"/>
      <point x="220" y="136"/>
      <point x="212" y="122" type="qcurve" smooth="yes"/>
      <point x="190" y="84"/>
      <point x="179" y="21"/>
    </contour>
    <contour>
      <point x="347" y="349" type="qcurve"/>
      <point x="368" y="368"/>
      <point x="399" y="373"/>
      <point x="405" y="362" type="qcurve" smooth="yes"/>
      <point x="407" y="358"/>
      <point x="450" y="384"/>
      <point x="466" y="401" type="qcurve" smooth="yes"/>
      <point x="472" y="412"/>
      <point x="474" y="424"/>
      <point x="472" y="440" type="qcurve" smooth="yes"/>
      <point x="473" y="450"/>
      <point x="467" y="463"/>
      <point x="448" y="475"/>
      <point x="427" y="483" type="qcurve" smooth="yes"/>
      <point x="365" y="505"/>
      <point x="285" y="489"/>
      <point x="271" y="442" type="qcurve" smooth="yes"/>
      <point x="265" y="423"/>
      <point x="265" y="393"/>
      <point x="273" y="376" type="qcurve"/>
      <point x="282" y="372"/>
      <point x="288" y="359"/>
      <point x="288" y="359" type="qcurve" smooth="yes"/>
      <point x="288" y="350"/>
      <point x="296" y="350" type="qcurve"/>
      <point x="298" y="345"/>
      <point x="322" y="333"/>
    </contour>
  </outline>
</glyph>
<glyph name="colon" format="2">
  <advance width="198"/>
  <unicode hex="003A"/>
  <outline>
    <contour>
      <point x="229" y="262" type="qcurve" smooth="yes"/>
      <point x="210" y="255"/>
      <point x="185" y="256"/>
      <point x="170" y="267" type="qcurve" smooth="yes"/>
      <point x="151" y="285"/>
      <point x="164" y="322"/>
      <point x="190" y="340" type="qcurve" smooth="yes"/>
      <point x="208" y="351"/>
      <point x="225" y="353"/>
      <point x="243" y="345" type="qcurve" smooth="yes"/>
      <point x="273" y="326"/>
      <point x="266" y="280"/>
    </contour>
    <contour>
      <point x="159" y="52" type="qcurve" smooth="yes"/>
      <point x="140" y="45"/>
      <point x="115" y="46"/>
      <point x="100" y="57" type="qcurve" smooth="yes"/>
      <point x="81" y="75"/>
      <point x="94" y="112"/>
      <point x="120" y="130" type="qcurve" smooth="yes"/>
      <point x="138" y="141"/>
      <point x="155" y="143"/>
      <point x="173" y="135" type="qcurve" smooth="yes"/>
      <point x="203" y="116"/>
      <point x="196" y="70"/>
    </contour>
  </outline>
</glyph>
<glyph name="A" format="2">
  <advance width="502"/>
  <unicode hex="0041"/>
  <anchor x="538" y="785" name="Anchor-4"/>
  <anchor x="483" y="40" name="Anchor-2"/>
  <outline>
    <contour>
      <point x="69" y="-33" type="line" smooth="yes"/>
      <point x="51" y="-23"/>
      <point x="48" y="1"/>
      <point x="78" y="61"/>
      <point x="110" y="124" type="qcurve" smooth="yes"/>
      <point x="134" y="169"/>
      <point x="159" y="220"/>
      <point x="168" y="242"/>
      <point x="168" y="245" type="qcurve" smooth="yes"/>
      <point x="166" y="254"/>
      <point x="174" y="265"/>
      <point x="183" y="269" type="qcurve" smooth="yes"/>
      <point x="188" y="274"/>
      <point x="211" y="300"/>
      <point x="221" y="318" type="qcurve" smooth="yes"/>
      <point x="230" y="339"/>
      <point x="254" y="383"/>
      <point x="294" y="450"/>
      <point x="326" y="504" type="qcurve" smooth="yes"/>
      <point x="346" y="539"/>
      <point x="394" y="612"/>
      <point x="421" y="648" type="qcurve" smooth="yes"/>
      <point x="432" y="662"/>
      <point x="450" y="679"/>
      <point x="459" y="678" type="qcurve" smooth="yes"/>
      <point x="471" y="678"/>
      <point x="502" y="662"/>
      <point x="528" y="636"/>
      <point x="534" y="621" type="qcurve" smooth="yes"/>
      <point x="539" y="613"/>
      <point x="537" y="561"/>
      <point x="531" y="487"/>
      <point x="527" y="445" type="qcurve" smooth="yes"/>
      <point x="524" y="404"/>
      <point x="512" y="292"/>
      <point x="501" y="170"/>
      <point x="495" y="57"/>
      <point x="498" y="15" type="qcurve" smooth="yes"/>
      <point x="499" y="6"/>
      <point x="497" y="-10"/>
      <point x="497" y="-15" type="qcurve" smooth="yes"/>
      <point x="491" y="-21"/>
      <point x="464" y="-20"/>
      <point x="439" y="-8"/>
      <point x="437" y="1" type="qcurve" smooth="yes"/>
      <point x="434" y="4"/>
      <point x="433" y="15"/>
      <point x="435" y="51"/>
      <point x="436" y="90" type="qcurve" smooth="yes"/>
      <point x="441" y="252" type="line"/>
      <point x="428" y="251" type="line" smooth="yes"/>
      <point x="419" y="251"/>
      <point x="369" y="247"/>
      <point x="311" y="240"/>
      <point x="262" y="233"/>
      <point x="253" y="230" type="qcurve" smooth="yes"/>
      <point x="244" y="230"/>
      <point x="219" y="206"/>
      <point x="208" y="187" type="qcurve" smooth="yes"/>
      <point x="204" y="173"/>
      <point x="183" y="142"/>
      <point x="183" y="137" type="qcurve"/>
      <point x="176" y="132"/>
      <point x="167" y="118"/>
      <point x="167" y="118" type="qcurve" smooth="yes"/>
      <point x="167" y="112"/>
      <point x="148" y="65"/>
      <point x="120" y="8"/>
      <point x="106" y="-13" type="qcurve" smooth="yes"/>
      <point x="85" y="-45" type="line"/>
    </contour>
    <contour>
      <point x="276" y="289" type="qcurve" smooth="yes"/>
      <point x="276" y="289"/>
      <point x="297" y="293"/>
      <point x="326" y="298"/>
      <point x="338" y="298" type="qcurve" smooth="yes"/>
      <point x="380" y="308"/>
      <point x="418" y="315"/>
      <point x="433" y="315"/>
      <point x="439" y="312" type="qcurve" smooth="yes"/>
      <point x="443" y="307"/>
      <point x="450" y="305"/>
      <point x="450" y="305" type="qcurve" smooth="yes"/>
      <point x="451" y="307"/>
      <point x="455" y="349"/>
      <point x="462" y="411"/>
      <point x="469" y="478"/>
      <point x="473" y="535"/>
      <point x="474" y="550" type="qcurve" smooth="yes"/>
      <point x="475" y="569"/>
      <point x="477" y="600"/>
      <point x="477" y="600" type="qcurve"/>
      <point x="471" y="600"/>
      <point x="432" y="556"/>
      <point x="384" y="484"/>
      <point x="363" y="443" type="qcurve" smooth="yes"/>
      <point x="353" y="424"/>
      <point x="335" y="394"/>
      <point x="330" y="394" type="qcurve" smooth="yes"/>
      <point x="328" y="392"/>
      <point x="309" y="361"/>
      <point x="287" y="322"/>
      <point x="273" y="291"/>
    </contour>
  </outline>
</glyph>
<glyph name="B" format="2">
  <advance width="520"/>
  <unicode hex="0042"/>
  <outline>
    <contour>
      <point x="205" y="-57" type="qcurve" smooth="yes"/>
      <point x="162" y="-29"/>
      <point x="132" y="12"/>
      <point x="159" y="29" type="qcurve" smooth="yes"/>
      <point x="165" y="33"/>
      <point x="192" y="12"/>
      <point x="201" y="3" type="qcurve" smooth="yes"/>
      <point x="221" y="-15"/>
      <point x="280" y="-24"/>
      <point x="317" y="-14" type="qcurve" smooth="yes"/>
      <point x="359" y="-1"/>
      <point x="422" y="46"/>
      <point x="450" y="80" type="qcurve" smooth="yes"/>
      <point x="471" y="107"/>
      <point x="487" y="170"/>
      <point x="484" y="224"/>
      <point x="474" y="235" type="qcurve" smooth="yes"/>
      <point x="449" y="270"/>
      <point x="360" y="297"/>
      <point x="300" y="281" type="qcurve" smooth="yes"/>
      <point x="293" y="280"/>
      <point x="265" y="274"/>
      <point x="243" y="269"/>
      <point x="242" y="269" type="qcurve" smooth="yes"/>
      <point x="235" y="267"/>
      <point x="227" y="262"/>
      <point x="216" y="237"/>
      <point x="194" y="174"/>
      <point x="172" y="113" type="qcurve" smooth="yes"/>
      <point x="151" y="52"/>
      <point x="126" y="1"/>
      <point x="107" y="6"/>
      <point x="93" y="25" type="qcurve" smooth="yes"/>
      <point x="85" y="39"/>
      <point x="81" y="66"/>
      <point x="91" y="84" type="qcurve" smooth="yes"/>
      <point x="96" y="93"/>
      <point x="102" y="108"/>
      <point x="107" y="127" type="qcurve" smooth="yes"/>
      <point x="112" y="142"/>
      <point x="141" y="217"/>
      <point x="181" y="318"/>
      <point x="225" y="426"/>
      <point x="266" y="522"/>
      <point x="280" y="555" type="qcurve" smooth="yes"/>
      <point x="294" y="586"/>
      <point x="300" y="614"/>
      <point x="295" y="615" type="qcurve"/>
      <point x="295" y="620"/>
      <point x="289" y="629"/>
      <point x="290" y="633" type="qcurve" smooth="yes"/>
      <point x="290" y="637"/>
      <point x="317" y="651"/>
      <point x="350" y="663"/>
      <point x="359" y="661" type="qcurve" smooth="yes"/>
      <point x="364" y="661"/>
      <point x="378" y="662"/>
      <point x="378" y="666" type="qcurve"/>
      <point x="381" y="666"/>
      <point x="413" y="670"/>
      <point x="432" y="668" type="qcurve" smooth="yes"/>
      <point x="499" y="662"/>
      <point x="573" y="597"/>
      <point x="572" y="541" type="qcurve" smooth="yes"/>
      <point x="571" y="524"/>
      <point x="538" y="466"/>
      <point x="491" y="408"/>
      <point x="469" y="388" type="qcurve" smooth="yes"/>
      <point x="456" y="377"/>
      <point x="427" y="354"/>
      <point x="406" y="339"/>
      <point x="406" y="339" type="qcurve"/>
      <point x="406" y="339"/>
      <point x="422" y="333"/>
      <point x="431" y="330" type="qcurve" smooth="yes"/>
      <point x="477" y="313"/>
      <point x="537" y="261"/>
      <point x="548" y="215" type="qcurve" smooth="yes"/>
      <point x="552" y="200"/>
      <point x="545" y="156"/>
      <point x="533" y="113"/>
      <point x="526" y="98" type="qcurve" smooth="yes"/>
      <point x="519" y="91"/>
      <point x="511" y="76"/>
      <point x="511" y="76" type="qcurve" smooth="yes"/>
      <point x="511" y="74"/>
      <point x="495" y="47"/>
      <point x="473" y="15"/>
      <point x="463" y="3" type="qcurve" smooth="yes"/>
      <point x="453" y="-5"/>
      <point x="426" y="-27"/>
      <point x="393" y="-47"/>
      <point x="374" y="-54" type="qcurve" smooth="yes"/>
      <point x="346" y="-66"/>
      <point x="281" y="-75"/>
      <point x="223" y="-68"/>
    </contour>
    <contour>
      <point x="254" y="328" type="qcurve"/>
      <point x="254" y="328"/>
      <point x="291" y="335"/>
      <point x="335" y="344"/>
      <point x="345" y="348" type="qcurve" smooth="yes"/>
      <point x="350" y="351"/>
      <point x="369" y="361"/>
      <point x="379" y="371" type="qcurve" smooth="yes"/>
      <point x="393" y="384"/>
      <point x="436" y="433"/>
      <point x="478" y="488"/>
      <point x="489" y="510" type="qcurve" smooth="yes"/>
      <point x="512" y="546"/>
      <point x="516" y="581"/>
      <point x="503" y="594" type="qcurve" smooth="yes"/>
      <point x="494" y="605"/>
      <point x="451" y="612"/>
      <point x="403" y="609"/>
      <point x="386" y="604" type="qcurve" smooth="yes"/>
      <point x="373" y="600"/>
      <point x="359" y="589"/>
      <point x="359" y="578" type="qcurve" smooth="yes"/>
      <point x="359" y="569"/>
      <point x="348" y="552"/>
      <point x="343" y="547" type="qcurve"/>
      <point x="342" y="540"/>
      <point x="334" y="529"/>
      <point x="334" y="529" type="qcurve" smooth="yes"/>
      <point x="334" y="525"/>
      <point x="306" y="467"/>
      <point x="292" y="429" type="qcurve" smooth="yes"/>
      <point x="274" y="386"/>
      <point x="254" y="333"/>
    </contour>
  </outline>
</glyph>
<glyph name="D" format="2">
  <advance width="578"/>
  <unicode hex="0044"/>
  <anchor x="574" y="785" name="Anchor-4"/>
  <anchor x="280" y="-110" name="Anchor-1"/>
  <outline>
    <contour>
      <point x="225" y="-95" type="qcurve" smooth="yes"/>
      <point x="206" y="-98"/>
      <point x="174" y="-99"/>
      <point x="143" y="-91" type="qcurve" smooth="yes"/>
      <point x="127" y="-86"/>
      <point x="114" y="-72"/>
      <point x="99" y="-53" type="qcurve" smooth="yes"/>
      <point x="88" y="-37"/>
      <point x="79" y="-10"/>
      <point x="85" y="5"/>
      <point x="95" y="2" type="qcurve" smooth="yes"/>
      <point x="98" y="1"/>
      <point x="111" y="-10"/>
      <point x="117" y="-18" type="qcurve" smooth="yes"/>
      <point x="131" y="-33"/>
      <point x="171" y="-43"/>
      <point x="204" y="-39" type="qcurve" smooth="yes"/>
      <point x="218" y="-36"/>
      <point x="258" y="-25"/>
      <point x="296" y="-9"/>
      <point x="307" y="-1" type="qcurve" smooth="yes"/>
      <point x="360" y="35"/>
      <point x="424" y="77"/>
      <point x="424" y="77" type="qcurve" smooth="yes"/>
      <point x="426" y="81"/>
      <point x="437" y="86"/>
      <point x="445" y="89" type="qcurve" smooth="yes"/>
      <point x="451" y="95"/>
      <point x="478" y="121"/>
      <point x="503" y="147"/>
      <point x="506" y="149" type="qcurve" smooth="yes"/>
      <point x="508" y="158"/>
      <point x="512" y="169"/>
      <point x="512" y="175" type="qcurve"/>
      <point x="520" y="183"/>
      <point x="547" y="234"/>
      <point x="575" y="297"/>
      <point x="581" y="323" type="qcurve" smooth="yes"/>
      <point x="595" y="393"/>
      <point x="581" y="489"/>
      <point x="538" y="558"/>
      <point x="506" y="585" type="qcurve" smooth="yes"/>
      <point x="495" y="594"/>
      <point x="456" y="615"/>
      <point x="414" y="631"/>
      <point x="383" y="641"/>
      <point x="380" y="640" type="qcurve" smooth="yes"/>
      <point x="376" y="639"/>
      <point x="351" y="578"/>
      <point x="317" y="484"/>
      <point x="278" y="378"/>
      <point x="261" y="331" type="qcurve" smooth="yes"/>
      <point x="255" y="312"/>
      <point x="241" y="270"/>
      <point x="231" y="239"/>
      <point x="231" y="234" type="qcurve" smooth="yes"/>
      <point x="220" y="217"/>
      <point x="207" y="161"/>
      <point x="199" y="96" type="qcurve"/>
      <point x="190" y="62"/>
      <point x="182" y="27"/>
      <point x="178" y="28" type="qcurve" smooth="yes"/>
      <point x="178" y="28"/>
      <point x="177" y="27"/>
      <point x="174" y="24" type="qcurve" smooth="yes"/>
      <point x="174" y="18"/>
      <point x="158" y="18"/>
      <point x="137" y="27"/>
      <point x="131" y="33" type="qcurve"/>
      <point x="128" y="44"/>
      <point x="127" y="64"/>
      <point x="135" y="93" type="qcurve" smooth="yes"/>
      <point x="140" y="112"/>
      <point x="155" y="167"/>
      <point x="173" y="226"/>
      <point x="189" y="276"/>
      <point x="193" y="289" type="qcurve" smooth="yes"/>
      <point x="200" y="306"/>
      <point x="213" y="353" type="qcurve" smooth="yes"/>
      <point x="221" y="379"/>
      <point x="238" y="431"/>
      <point x="254" y="472"/>
      <point x="257" y="478" type="qcurve" smooth="yes"/>
      <point x="262" y="491"/>
      <point x="282" y="553"/>
      <point x="298" y="591" type="qcurve"/>
      <point x="305" y="624" type="line"/>
      <point x="294" y="629" type="line"/>
      <point x="282" y="625"/>
      <point x="269" y="628"/>
      <point x="267" y="629" type="qcurve" smooth="yes"/>
      <point x="261" y="627"/>
      <point x="239" y="637"/>
      <point x="222" y="653"/>
      <point x="220" y="659" type="qcurve" smooth="yes"/>
      <point x="218" y="663"/>
      <point x="217" y="676"/>
      <point x="217" y="676" type="qcurve" smooth="yes"/>
      <point x="218" y="682"/>
      <point x="246" y="693"/>
      <point x="291" y="701"/>
      <point x="344" y="704"/>
      <point x="369" y="702" type="qcurve" smooth="yes"/>
      <point x="395" y="700"/>
      <point x="441" y="682"/>
      <point x="468" y="672" type="qcurve" smooth="yes"/>
      <point x="500" y="660"/>
      <point x="571" y="601"/>
      <point x="630" y="521"/>
      <point x="640" y="477" type="qcurve" smooth="yes"/>
      <point x="643" y="465"/>
      <point x="649" y="421"/>
      <point x="650" y="380"/>
      <point x="645" y="374" type="qcurve" smooth="yes"/>
      <point x="643" y="370"/>
      <point x="642" y="359"/>
      <point x="646" y="357" type="qcurve" smooth="yes"/>
      <point x="645" y="354"/>
      <point x="633" y="315"/>
      <point x="628" y="301" type="qcurve" smooth="yes"/>
      <point x="626" y="275"/>
      <point x="606" y="219"/>
      <point x="582" y="170"/>
      <point x="572" y="153" type="qcurve" smooth="yes"/>
      <point x="568" y="153"/>
      <point x="561" y="150"/>
      <point x="565" y="149" type="qcurve"/>
      <point x="565" y="144"/>
      <point x="554" y="130" type="qcurve" smooth="yes"/>
      <point x="550" y="127"/>
      <point x="533" y="104"/>
      <point x="528" y="100" type="qcurve"/>
      <point x="527" y="93"/>
      <point x="517" y="84"/>
      <point x="513" y="84" type="qcurve" smooth="yes"/>
      <point x="513" y="84"/>
      <point x="510" y="84"/>
      <point x="510" y="80" type="qcurve" smooth="yes"/>
      <point x="502" y="68"/>
      <point x="468" y="35"/>
      <point x="425" y="0"/>
      <point x="380" y="-30"/>
      <point x="360" y="-38" type="qcurve" smooth="yes"/>
      <point x="350" y="-45"/>
      <point x="328" y="-54"/>
      <point x="318" y="-59" type="qcurve" smooth="yes"/>
      <point x="313" y="-63"/>
      <point x="279" y="-78"/>
      <point x="240" y="-92"/>
    </contour>
  </outline>
</glyph>
<glyph name="E" format="2">
  <advance width="529"/>
  <unicode hex="0045"/>
  <anchor x="541" y="785" name="Anchor-4"/>
  <anchor x="436" y="40" name="Anchor-2"/>
  <anchor x="215" y="-110" name="Anchor-1"/>
  <outline>
    <contour>
      <point x="231" y="-24" type="qcurve" smooth="yes"/>
      <point x="200" y="-22"/>
      <point x="153" y="12"/>
      <point x="127" y="30" type="qcurve"/>
      <point x="110" y="47"/>
      <point x="90" y="86"/>
      <point x="84" y="118" type="qcurve" smooth="yes"/>
      <point x="80" y="137"/>
      <point x="88" y="195"/>
      <point x="106" y="254"/>
      <point x="114" y="272" type="qcurve" smooth="yes"/>
      <point x="126" y="300"/>
      <point x="163" y="365"/>
      <point x="200" y="424"/>
      <point x="211" y="442" type="qcurve" smooth="yes"/>
      <point x="218" y="449"/>
      <point x="217" y="450"/>
      <point x="217" y="450" type="qcurve" smooth="yes"/>
      <point x="217" y="455"/>
      <point x="238" y="496"/>
      <point x="246" y="512" type="qcurve"/>
      <point x="261" y="528"/>
      <point x="265" y="548"/>
      <point x="260" y="554" type="qcurve" smooth="yes"/>
      <point x="258" y="558"/>
      <point x="276" y="578"/>
      <point x="312" y="604"/>
      <point x="335" y="617" type="qcurve"/>
      <point x="359" y="636"/>
      <point x="404" y="639"/>
      <point x="408" y="628" type="qcurve" smooth="yes"/>
      <point x="408" y="625"/>
      <point x="431" y="628"/>
      <point x="462" y="635"/>
      <point x="474" y="637" type="qcurve"/>
      <point x="479" y="643"/>
      <point x="516" y="650"/>
      <point x="541" y="653" type="qcurve" smooth="yes"/>
      <point x="554" y="652"/>
      <point x="579" y="653"/>
      <point x="596" y="655"/>
      <point x="596" y="655" type="qcurve" smooth="yes"/>
      <point x="603" y="657"/>
      <point x="622" y="649"/>
      <point x="630" y="631" type="qcurve" smooth="yes"/>
      <point x="637" y="613"/>
      <point x="614" y="595"/>
      <point x="573" y="590" type="qcurve" smooth="yes"/>
      <point x="543" y="586"/>
      <point x="499" y="581"/>
      <point x="451" y="574"/>
      <point x="416" y="566" type="qcurve" smooth="yes"/>
      <point x="391" y="561"/>
      <point x="359" y="548"/>
      <point x="335" y="523"/>
      <point x="320" y="500" type="qcurve" smooth="yes"/>
      <point x="313" y="495"/>
      <point x="291" y="453"/>
      <point x="280" y="432" type="qcurve" smooth="yes"/>
      <point x="252" y="393"/>
      <point x="211" y="336"/>
      <point x="215" y="331" type="qcurve" smooth="yes"/>
      <point x="215" y="331"/>
      <point x="237" y="325"/>
      <point x="241" y="325" type="qcurve" smooth="yes"/>
      <point x="251" y="330"/>
      <point x="280" y="334"/>
      <point x="289" y="336" type="qcurve" smooth="yes"/>
      <point x="351" y="352"/>
      <point x="422" y="370"/>
      <point x="459" y="379"/>
      <point x="469" y="380" type="qcurve"/>
      <point x="483" y="391"/>
      <point x="510" y="377"/>
      <point x="518" y="362" type="qcurve" smooth="yes"/>
      <point x="523" y="351"/>
      <point x="514" y="335"/>
      <point x="473" y="319"/>
      <point x="393" y="297"/>
      <point x="328" y="279" type="qcurve" smooth="yes"/>
      <point x="273" y="263"/>
      <point x="195" y="257"/>
      <point x="197" y="277" type="qcurve"/>
      <point x="190" y="281"/>
      <point x="173" y="254"/>
      <point x="157" y="208"/>
      <point x="146" y="156"/>
      <point x="143" y="111"/>
      <point x="147" y="100" type="qcurve" smooth="yes"/>
      <point x="155" y="77"/>
      <point x="181" y="50"/>
      <point x="215" y="40" type="qcurve"/>
      <point x="235" y="39"/>
      <point x="273" y="35"/>
      <point x="297" y="45" type="qcurve"/>
      <point x="356" y="55"/>
      <point x="424" y="77"/>
      <point x="429" y="81" type="qcurve" smooth="yes"/>
      <point x="437" y="85"/>
      <point x="442" y="86"/>
      <point x="447" y="86" type="qcurve"/>
      <point x="444" y="81"/>
      <point x="455" y="90"/>
      <point x="465" y="100" type="qcurve" smooth="yes"/>
      <point x="476" y="110"/>
      <point x="512" y="128"/>
      <point x="541" y="138"/>
      <point x="542" y="133" type="qcurve" smooth="yes"/>
      <point x="548" y="123"/>
      <point x="532" y="88"/>
      <point x="490" y="47"/>
      <point x="457" y="28" type="qcurve" smooth="yes"/>
      <point x="404" y="0"/>
      <point x="280" y="-23"/>
    </contour>
  </outline>
</glyph>
<glyph name="F" format="2">
  <advance width="454"/>
  <unicode hex="0046"/>
  <outline>
    <contour>
      <point x="511" y="316" type="qcurve" smooth="yes"/>
      <point x="508" y="309"/>
      <point x="468" y="301"/>
      <point x="424" y="296" type="qcurve" smooth="yes"/>
      <point x="411" y="295"/>
      <point x="360" y="293"/>
      <point x="301" y="291"/>
      <point x="253" y="292"/>
      <point x="244" y="294" type="qcurve"/>
      <point x="244" y="294"/>
      <point x="235" y="284"/>
      <point x="235" y="276" type="qcurve"/>
      <point x="228" y="264"/>
      <point x="207" y="214"/>
      <point x="182" y="154"/>
      <point x="161" y="94"/>
      <point x="147" y="50"/>
      <point x="147" y="42" type="qcurve" smooth="yes"/>
      <point x="138" y="18"/>
      <point x="134" y="-16"/>
      <point x="129" y="-19" type="qcurve" smooth="yes"/>
      <point x="128" y="-23"/>
      <point x="104" y="-19"/>
      <point x="96" y="-10" type="qcurve" smooth="yes"/>
      <point x="84" y="-1"/>
      <point x="81" y="14"/>
      <point x="88" y="36" type="qcurve" smooth="yes"/>
      <point x="91" y="49"/>
      <point x="106" y="100"/>
      <point x="125" y="162"/>
      <point x="146" y="221"/>
      <point x="156" y="240" type="qcurve" smooth="yes"/>
      <point x="167" y="259"/>
      <point x="173" y="290"/>
      <point x="178" y="303" type="qcurve"/>
      <point x="177" y="314"/>
      <point x="179" y="322"/>
      <point x="186" y="330" type="qcurve" smooth="yes"/>
      <point x="191" y="334"/>
      <point x="206" y="355"/>
      <point x="216" y="377" type="qcurve" smooth="yes"/>
      <point x="219" y="387"/>
      <point x="232" y="422"/>
      <point x="244" y="459"/>
      <point x="254" y="485"/>
      <point x="254" y="486" type="qcurve" smooth="yes"/>
      <point x="256" y="490"/>
      <point x="264" y="513"/>
      <point x="266" y="520" type="qcurve" smooth="yes"/>
      <point x="270" y="534"/>
      <point x="275" y="552"/>
      <point x="271" y="552" type="qcurve" smooth="yes"/>
      <point x="263" y="550"/>
      <point x="239" y="549" type="qcurve" smooth="yes"/>
      <point x="227" y="547"/>
      <point x="216" y="546"/>
      <point x="212" y="545" type="qcurve" smooth="yes"/>
      <point x="202" y="544"/>
      <point x="186" y="550"/>
      <point x="186" y="559" type="qcurve" smooth="yes"/>
      <point x="188" y="575"/>
      <point x="207" y="596"/>
      <point x="222" y="597" type="qcurve" smooth="yes"/>
      <point x="229" y="599"/>
      <point x="246" y="602"/>
      <point x="261" y="606" type="qcurve" smooth="yes"/>
      <point x="280" y="610"/>
      <point x="301" y="615"/>
      <point x="307" y="613" type="qcurve"/>
      <point x="312" y="616"/>
      <point x="320" y="623"/>
      <point x="320" y="627" type="qcurve" smooth="yes"/>
      <point x="320" y="632"/>
      <point x="329" y="637"/>
      <point x="341" y="638"/>
      <point x="354" y="634"/>
      <point x="357" y="629" type="qcurve" smooth="yes"/>
      <point x="359" y="626"/>
      <point x="373" y="622"/>
      <point x="410" y="627"/>
      <point x="444" y="634" type="qcurve" smooth="yes"/>
      <point x="462" y="636"/>
      <point x="517" y="640"/>
      <point x="533" y="635" type="qcurve"/>
      <point x="550" y="638"/>
      <point x="577" y="637"/>
      <point x="582" y="641" type="qcurve"/>
      <point x="603" y="637"/>
      <point x="622" y="634"/>
      <point x="628" y="629" type="qcurve" smooth="yes"/>
      <point x="632" y="625"/>
      <point x="629" y="618"/>
      <point x="629" y="618" type="qcurve"/>
      <point x="625" y="620"/>
      <point x="635" y="615"/>
      <point x="637" y="613" type="qcurve" smooth="yes"/>
      <point x="644" y="610"/>
      <point x="648" y="601"/>
      <point x="648" y="593"/>
      <point x="647" y="590" type="qcurve" smooth="yes"/>
      <point x="646" y="581"/>
      <point x="628" y="578"/>
      <point x="592" y="579" type="qcurve" smooth="yes"/>
      <point x="549" y="585"/>
      <point x="466" y="582"/>
      <point x="411" y="574" type="qcurve" smooth="yes"/>
      <point x="391" y="573"/>
      <point x="360" y="564"/>
      <point x="358" y="564" type="qcurve" smooth="yes"/>
      <point x="354" y="564"/>
      <point x="334" y="537"/>
      <point x="325" y="511" type="qcurve" smooth="yes"/>
      <point x="321" y="504"/>
      <point x="301" y="454"/>
      <point x="278" y="396"/>
      <point x="261" y="352"/>
      <point x="259" y="350" type="qcurve"/>
      <point x="273" y="346"/>
      <point x="336" y="346"/>
      <point x="413" y="351"/>
      <point x="445" y="354" type="qcurve" smooth="yes"/>
      <point x="460" y="357"/>
      <point x="493" y="362"/>
      <point x="498" y="360" type="qcurve" smooth="yes"/>
      <point x="503" y="357"/>
      <point x="511" y="340"/>
      <point x="514" y="322"/>
    </contour>
  </outline>
</glyph>
<glyph name="G" format="2">
  <advance width="487"/>
  <unicode hex="0047"/>
  <anchor x="523" y="785" name="Anchor-4"/>
  <anchor x="198" y="-110" name="Anchor-1"/>
  <outline>
    <contour>
      <point x="171" y="-31" type="qcurve" smooth="yes"/>
      <point x="144" y="-14"/>
      <point x="114" y="49"/>
      <point x="115" y="81" type="qcurve" smooth="yes"/>
      <point x="114" y="143"/>
      <point x="137" y="270"/>
      <point x="156" y="330" type="qcurve" smooth="yes"/>
      <point x="169" y="366"/>
      <point x="200" y="443"/>
      <point x="232" y="511"/>
      <point x="244" y="531" type="qcurve" smooth="yes"/>
      <point x="275" y="582"/>
      <point x="344" y="649"/>
      <point x="361" y="659" type="qcurve" smooth="yes"/>
      <point x="375" y="667"/>
      <point x="444" y="683"/>
      <point x="481" y="674" type="qcurve" smooth="yes"/>
      <point x="507" y="667"/>
      <point x="552" y="647"/>
      <point x="559" y="640" type="qcurve" smooth="yes"/>
      <point x="567" y="628"/>
      <point x="580" y="611"/>
      <point x="580" y="599" type="qcurve" smooth="yes"/>
      <point x="581" y="591"/>
      <point x="568" y="568"/>
      <point x="549" y="558"/>
      <point x="540" y="568" type="qcurve" smooth="yes"/>
      <point x="527" y="588"/>
      <point x="499" y="603"/>
      <point x="483" y="611" type="qcurve" smooth="yes"/>
      <point x="472" y="618"/>
      <point x="434" y="619"/>
      <point x="394" y="609"/>
      <point x="379" y="597" type="qcurve" smooth="yes"/>
      <point x="369" y="588"/>
      <point x="337" y="553"/>
      <point x="305" y="511"/>
      <point x="295" y="491" type="qcurve" smooth="yes"/>
      <point x="268" y="444"/>
      <point x="225" y="349"/>
      <point x="210" y="293" type="qcurve" smooth="yes"/>
      <point x="206" y="279"/>
      <point x="193" y="225"/>
      <point x="181" y="171"/>
      <point x="179" y="154" type="qcurve" smooth="yes"/>
      <point x="172" y="105"/>
      <point x="177" y="31"/>
      <point x="223" y="3"/>
      <point x="276" y="21" type="qcurve"/>
      <point x="299" y="24"/>
      <point x="352" y="58"/>
      <point x="403" y="109"/>
      <point x="421" y="138" type="qcurve" smooth="yes"/>
      <point x="438" y="170"/>
      <point x="465" y="232"/>
      <point x="467" y="272"/>
      <point x="447" y="271" type="qcurve" smooth="yes"/>
      <point x="410" y="275"/>
      <point x="364" y="272"/>
      <point x="346" y="280" type="qcurve"/>
      <point x="339" y="291"/>
      <point x="341" y="313"/>
      <point x="352" y="324" type="qcurve"/>
      <point x="363" y="328"/>
      <point x="415" y="332"/>
      <point x="475" y="325"/>
      <point x="498" y="314" type="qcurve" smooth="yes"/>
      <point x="515" y="306"/>
      <point x="529" y="275"/>
      <point x="529" y="235"/>
      <point x="525" y="214" type="qcurve" smooth="yes"/>
      <point x="520" y="192"/>
      <point x="487" y="131"/>
      <point x="464" y="97" type="qcurve" smooth="yes"/>
      <point x="449" y="76"/>
      <point x="396" y="26"/>
      <point x="341" y="-14"/>
      <point x="322" y="-21" type="qcurve" smooth="yes"/>
      <point x="282" y="-39"/>
      <point x="198" y="-50"/>
    </contour>
  </outline>
</glyph>
<glyph name="I" format="2">
  <advance width="400"/>
  <unicode hex="0049"/>
  <anchor x="459" y="785" name="Anchor-4"/>
  <anchor x="200" y="40" name="Anchor-2"/>
  <anchor x="173" y="-110" name="Anchor-1"/>
  <outline>
    <contour>
      <point x="192" y="-31" type="qcurve"/>
      <point x="185" y="-20"/>
      <point x="136" y="-14"/>
      <point x="101" y="-16" type="qcurve" smooth="yes"/>
      <point x="87" y="-18"/>
      <point x="61" y="-11"/>
      <point x="46" y="4"/>
      <point x="48" y="12" type="qcurve" smooth="yes"/>
      <point x="49" y="24"/>
      <point x="88" y="38"/>
      <point x="131" y="39" type="qcurve" smooth="yes"/>
      <point x="184" y="40" type="line"/>
      <point x="194" y="60" type="line" smooth="yes"/>
      <point x="198" y="71"/>
      <point x="210" y="111"/>
      <point x="217" y="134" type="qcurve" smooth="yes"/>
      <point x="221" y="148"/>
      <point x="237" y="196"/>
      <point x="255" y="250"/>
      <point x="269" y="293"/>
      <point x="271" y="302" type="qcurve" smooth="yes"/>
      <point x="275" y="311"/>
      <point x="289" y="354"/>
      <point x="302" y="399"/>
      <point x="304" y="409" type="qcurve" smooth="yes"/>
      <point x="330" y="488"/>
      <point x="346" y="555"/>
      <point x="342" y="556" type="qcurve" smooth="yes"/>
      <point x="338" y="556"/>
      <point x="307" y="554"/>
      <point x="270" y="551"/>
      <point x="241" y="547"/>
      <point x="238" y="545" type="qcurve" smooth="yes"/>
      <point x="233" y="538"/>
      <point x="209" y="546"/>
      <point x="206" y="556" type="qcurve" smooth="yes"/>
      <point x="205" y="565"/>
      <point x="206" y="575"/>
      <point x="211" y="578" type="qcurve" smooth="yes"/>
      <point x="218" y="584"/>
      <point x="258" y="599"/>
      <point x="309" y="611"/>
      <point x="332" y="614" type="qcurve" smooth="yes"/>
      <point x="349" y="616"/>
      <point x="383" y="627"/>
      <point x="393" y="635" type="qcurve" smooth="yes"/>
      <point x="402" y="638"/>
      <point x="419" y="642"/>
      <point x="428" y="641" type="qcurve" smooth="yes"/>
      <point x="436" y="636"/>
      <point x="475" y="636"/>
      <point x="497" y="637" type="qcurve" smooth="yes"/>
      <point x="553" y="642"/>
      <point x="592" y="638"/>
      <point x="599" y="624" type="qcurve" smooth="yes"/>
      <point x="604" y="605"/>
      <point x="598" y="584"/>
      <point x="581" y="585" type="qcurve" smooth="yes"/>
      <point x="572" y="583"/>
      <point x="525" y="580"/>
      <point x="499" y="579" type="qcurve" smooth="yes"/>
      <point x="428" y="573"/>
      <point x="423" y="565" type="qcurve" smooth="yes"/>
      <point x="419" y="561"/>
      <point x="414" y="553"/>
      <point x="410" y="548" type="qcurve" smooth="yes"/>
      <point x="411" y="544"/>
      <point x="400" y="501"/>
      <point x="392" y="479" type="qcurve" smooth="yes"/>
      <point x="388" y="466"/>
      <point x="372" y="418"/>
      <point x="355" y="367"/>
      <point x="341" y="326"/>
      <point x="338" y="319" type="qcurve" smooth="yes"/>
      <point x="334" y="310"/>
      <point x="329" y="289"/>
      <point x="328" y="284" type="qcurve" smooth="yes"/>
      <point x="314" y="235"/>
      <point x="293" y="167"/>
      <point x="276" y="116"/>
      <point x="262" y="69"/>
      <point x="254" y="41" type="qcurve"/>
      <point x="254" y="41"/>
      <point x="285" y="44"/>
      <point x="311" y="46" type="qcurve" smooth="yes"/>
      <point x="358" y="51"/>
      <point x="399" y="53"/>
      <point x="413" y="46"/>
      <point x="416" y="37" type="qcurve" smooth="yes"/>
      <point x="436" y="10"/>
      <point x="406" y="-10"/>
      <point x="350" y="-9" type="qcurve" smooth="yes"/>
      <point x="298" y="-11"/>
      <point x="243" y="-14"/>
      <point x="222" y="-20"/>
      <point x="220" y="-27" type="qcurve" smooth="yes"/>
      <point x="220" y="-35"/>
      <point x="204" y="-35"/>
    </contour>
  </outline>
</glyph>
<glyph name="K" format="2">
  <advance width="498"/>
  <unicode hex="004B"/>
  <anchor x="211" y="-110" name="Anchor-1"/>
  <outline>
    <contour>
      <point x="96" y="-37" type="qcurve" smooth="yes"/>
      <point x="83" y="-29"/>
      <point x="81" y="-14"/>
      <point x="87" y="7" type="qcurve"/>
      <point x="86" y="20"/>
      <point x="91" y="42"/>
      <point x="92" y="46" type="qcurve"/>
      <point x="97" y="46"/>
      <point x="99" y="58"/>
      <point x="99" y="62" type="qcurve" smooth="yes"/>
      <point x="99" y="70"/>
      <point x="112" y="108"/>
      <point x="117" y="128" type="qcurve" smooth="yes"/>
      <point x="125" y="148"/>
      <point x="140" y="183"/>
      <point x="140" y="187" type="qcurve" smooth="yes"/>
      <point x="140" y="195"/>
      <point x="148" y="212"/>
      <point x="153" y="220" type="qcurve" smooth="yes"/>
      <point x="158" y="232"/>
      <point x="163" y="261"/>
      <point x="163" y="269" type="qcurve" smooth="yes"/>
      <point x="169" y="282"/>
      <point x="183" y="312"/>
      <point x="187" y="328" type="qcurve" smooth="yes"/>
      <point x="193" y="345"/>
      <point x="216" y="410"/>
      <point x="229" y="444" type="qcurve" smooth="yes"/>
      <point x="238" y="463"/>
      <point x="256" y="505"/>
      <point x="270" y="535"/>
      <point x="273" y="535" type="qcurve"/>
      <point x="273" y="535"/>
      <point x="273" y="542"/>
      <point x="273" y="546" type="qcurve" smooth="yes"/>
      <point x="273" y="551"/>
      <point x="289" y="580"/>
      <point x="296" y="596" type="qcurve" smooth="yes"/>
      <point x="306" y="611"/>
      <point x="314" y="638"/>
      <point x="314" y="638" type="qcurve"/>
      <point x="314" y="638"/>
      <point x="321" y="650"/>
      <point x="325" y="654" type="qcurve" smooth="yes"/>
      <point x="338" y="663"/>
      <point x="361" y="659"/>
      <point x="369" y="642" type="qcurve" smooth="yes"/>
      <point x="377" y="626"/>
      <point x="375" y="605"/>
      <point x="367" y="593" type="qcurve" smooth="yes"/>
      <point x="359" y="575"/>
      <point x="333" y="520"/>
      <point x="304" y="457"/>
      <point x="279" y="400"/>
      <point x="264" y="359"/>
      <point x="264" y="354" type="qcurve" smooth="yes"/>
      <point x="223" y="253" type="line" smooth="yes"/>
      <point x="223" y="251"/>
      <point x="216" y="235"/>
      <point x="205" y="203"/>
      <point x="189" y="151"/>
      <point x="178" y="114" type="qcurve" smooth="yes"/>
      <point x="158" y="50"/>
      <point x="136" y="-21"/>
      <point x="123" y="-48"/>
      <point x="116" y="-48" type="qcurve" smooth="yes"/>
      <point x="112" y="-48"/>
      <point x="103" y="-41"/>
    </contour>
    <contour>
      <point x="449" y="-45" type="qcurve"/>
      <point x="440" y="-46"/>
      <point x="409" y="-27"/>
      <point x="374" y="1"/>
      <point x="343" y="31"/>
      <point x="334" y="42" type="qcurve" smooth="yes"/>
      <point x="318" y="65"/>
      <point x="270" y="140"/>
      <point x="258" y="183" type="qcurve" smooth="yes"/>
      <point x="251" y="215"/>
      <point x="237" y="252"/>
      <point x="235" y="264" type="qcurve" smooth="yes"/>
      <point x="236" y="334" type="line"/>
      <point x="287" y="318" type="line"/>
      <point x="292" y="264"/>
      <point x="313" y="193"/>
      <point x="328" y="166" type="qcurve" smooth="yes"/>
      <point x="340" y="140"/>
      <point x="370" y="89"/>
      <point x="387" y="72" type="qcurve" smooth="yes"/>
      <point x="410" y="47"/>
      <point x="446" y="23"/>
      <point x="455" y="23" type="qcurve" smooth="yes"/>
      <point x="460" y="22"/>
      <point x="479" y="10"/>
      <point x="496" y="-3"/>
      <point x="497" y="-9" type="qcurve" smooth="yes"/>
      <point x="498" y="-12"/>
      <point x="498" y="-25"/>
      <point x="495" y="-36"/>
      <point x="493" y="-39" type="qcurve" smooth="yes"/>
      <point x="490" y="-46"/>
      <point x="475" y="-57"/>
    </contour>
    <contour>
      <point x="225" y="326" type="line"/>
      <point x="298" y="379" type="line" smooth="yes"/>
      <point x="301" y="382"/>
      <point x="338" y="416"/>
      <point x="381" y="448" type="qcurve" smooth="yes"/>
      <point x="504" y="548" type="line"/>
      <point x="529" y="561"/>
      <point x="582" y="601"/>
      <point x="596" y="610" type="qcurve" smooth="yes"/>
      <point x="613" y="622"/>
      <point x="639" y="640"/>
      <point x="643" y="639" type="qcurve" smooth="yes"/>
      <point x="651" y="643"/>
      <point x="668" y="630"/>
      <point x="679" y="609"/>
      <point x="678" y="601" type="qcurve" smooth="yes"/>
      <point x="680" y="591"/>
      <point x="668" y="577"/>
      <point x="645" y="564" type="qcurve" smooth="yes"/>
      <point x="626" y="555"/>
      <point x="597" y="537"/>
      <point x="594" y="531" type="qcurve" smooth="yes"/>
      <point x="594" y="531"/>
      <point x="557" y="502"/>
      <point x="528" y="482" type="qcurve" smooth="yes"/>
      <point x="488" y="456"/>
      <point x="431" y="410"/>
      <point x="423" y="398" type="qcurve" smooth="yes"/>
      <point x="419" y="398"/>
      <point x="412" y="392"/>
      <point x="408" y="393" type="qcurve" smooth="yes"/>
      <point x="408" y="393"/>
      <point x="393" y="383"/>
      <point x="389" y="378" type="qcurve" smooth="yes"/>
      <point x="387" y="373"/>
      <point x="374" y="355"/>
      <point x="364" y="356" type="qcurve"/>
      <point x="357" y="352"/>
      <point x="321" y="327"/>
      <point x="282" y="297"/>
      <point x="254" y="273"/>
      <point x="253" y="271" type="qcurve"/>
    </contour>
  </outline>
</glyph>
<glyph name="M" format="2">
  <advance width="720"/>
  <unicode hex="004D"/>
  <outline>
    <contour>
      <point x="661" y="-48" type="qcurve" smooth="yes"/>
      <point x="660" y="-54"/>
      <point x="639" y="-49"/>
      <point x="631" y="-37" type="qcurve" smooth="yes"/>
      <point x="623" y="-18"/>
      <point x="623" y="14"/>
      <point x="624" y="46" type="qcurve"/>
      <point x="630" y="81"/>
      <point x="651" y="194"/>
      <point x="680" y="335"/>
      <point x="697" y="412" type="qcurve" smooth="yes"/>
      <point x="709" y="452"/>
      <point x="724" y="519"/>
      <point x="732" y="561"/>
      <point x="732" y="561" type="qcurve" smooth="yes"/>
      <point x="732" y="564"/>
      <point x="721" y="553"/>
      <point x="711" y="539"/>
      <point x="712" y="535" type="qcurve" smooth="yes"/>
      <point x="712" y="535"/>
      <point x="698" y="515"/>
      <point x="687" y="498" type="qcurve" smooth="yes"/>
      <point x="677" y="488"/>
      <point x="649" y="428"/>
      <point x="632" y="402" type="qcurve" smooth="yes"/>
      <point x="616" y="372"/>
      <point x="580" y="303"/>
      <point x="566" y="280" type="qcurve" smooth="yes"/>
      <point x="557" y="267"/>
      <point x="539" y="233"/>
      <point x="537" y="228" type="qcurve" smooth="yes"/>
      <point x="533" y="217"/>
      <point x="513" y="186"/>
      <point x="501" y="171" type="qcurve" smooth="yes"/>
      <point x="495" y="162"/>
      <point x="483" y="143"/>
      <point x="476" y="130"/>
      <point x="476" y="130" type="qcurve" smooth="yes"/>
      <point x="476" y="127"/>
      <point x="457" y="97"/>
      <point x="430" y="61"/>
      <point x="418" y="48" type="qcurve" smooth="yes"/>
      <point x="383" y="11"/>
      <point x="341" y="-2"/>
      <point x="315" y="22" type="qcurve" smooth="yes"/>
      <point x="302" y="38"/>
      <point x="290" y="79"/>
      <point x="292" y="140"/>
      <point x="298" y="186" type="qcurve" smooth="yes"/>
      <point x="305" y="221"/>
      <point x="317" y="292"/>
      <point x="328" y="355"/>
      <point x="337" y="399"/>
      <point x="340" y="406" type="qcurve" smooth="yes"/>
      <point x="342" y="426"/>
      <point x="336" y="430"/>
      <point x="327" y="416" type="qcurve" smooth="yes"/>
      <point x="323" y="409"/>
      <point x="289" y="354"/>
      <point x="244" y="274"/>
      <point x="222" y="227" type="qcurve" smooth="yes"/>
      <point x="181" y="151"/>
      <point x="128" y="52"/>
      <point x="97" y="-6"/>
      <point x="83" y="-34"/>
      <point x="77" y="-44"/>
      <point x="75" y="-46" type="qcurve" smooth="yes"/>
      <point x="66" y="-46"/>
      <point x="47" y="-31"/>
      <point x="37" y="-21" type="qcurve" smooth="yes"/>
      <point x="34" y="-14"/>
      <point x="35" y="0"/>
      <point x="47" y="27"/>
      <point x="59" y="55" type="qcurve" smooth="yes"/>
      <point x="72" y="81"/>
      <point x="94" y="120"/>
      <point x="100" y="124" type="qcurve" smooth="yes"/>
      <point x="105" y="132"/>
      <point x="113" y="148"/>
      <point x="114" y="159" type="qcurve"/>
      <point x="119" y="165"/>
      <point x="140" y="202"/>
      <point x="151" y="224" type="qcurve" smooth="yes"/>
      <point x="159" y="237"/>
      <point x="184" y="279"/>
      <point x="212" y="330"/>
      <point x="223" y="353" type="qcurve" smooth="yes"/>
      <point x="269" y="432"/>
      <point x="333" y="541"/>
      <point x="349" y="556" type="qcurve" smooth="yes"/>
      <point x="354" y="561"/>
      <point x="365" y="579"/>
      <point x="365" y="586" type="qcurve" smooth="yes"/>
      <point x="365" y="607"/>
      <point x="382" y="642"/>
      <point x="391" y="640" type="qcurve" smooth="yes"/>
      <point x="401" y="640"/>
      <point x="417" y="636"/>
      <point x="426" y="625" type="qcurve" smooth="yes"/>
      <point x="434" y="613"/>
      <point x="446" y="589"/>
      <point x="439" y="553" type="qcurve" smooth="yes"/>
      <point x="439" y="539"/>
      <point x="433" y="504"/>
      <point x="428" y="475"/>
      <point x="427" y="467" type="qcurve" smooth="yes"/>
      <point x="414" y="428"/>
      <point x="392" y="331"/>
      <point x="374" y="232"/>
      <point x="362" y="147"/>
      <point x="359" y="92"/>
      <point x="362" y="88" type="qcurve" smooth="yes"/>
      <point x="369" y="84"/>
      <point x="379" y="90"/>
      <point x="391" y="113" type="qcurve" smooth="yes"/>
      <point x="398" y="125"/>
      <point x="423" y="160"/>
      <point x="435" y="175" type="qcurve" smooth="yes"/>
      <point x="443" y="189"/>
      <point x="477" y="245"/>
      <point x="530" y="333"/>
      <point x="605" y="460"/>
      <point x="653" y="544" type="qcurve" smooth="yes"/>
      <point x="676" y="579"/>
      <point x="717" y="646"/>
      <point x="730" y="656" type="qcurve" smooth="yes"/>
      <point x="744" y="669"/>
      <point x="774" y="656"/>
      <point x="797" y="616"/>
      <point x="798" y="586" type="qcurve" smooth="yes"/>
      <point x="799" y="572"/>
      <point x="790" y="510"/>
      <point x="772" y="431"/>
      <point x="758" y="389" type="qcurve" smooth="yes"/>
      <point x="755" y="372"/>
      <point x="742" y="321"/>
      <point x="726" y="267"/>
      <point x="718" y="243" type="qcurve"/>
      <point x="713" y="210"/>
      <point x="700" y="146"/>
      <point x="702" y="135" type="qcurve"/>
      <point x="693" y="119"/>
      <point x="687" y="59"/>
      <point x="687" y="27" type="qcurve" smooth="yes"/>
      <point x="683" y="-12"/>
      <point x="679" y="-44"/>
      <point x="674" y="-43" type="qcurve" smooth="yes"/>
      <point x="661" y="-39"/>
    </contour>
  </outline>
</glyph>
<glyph name="P" format="2">
  <advance width="464"/>
  <unicode hex="0050"/>
  <outline>
    <contour>
      <point x="110" y="-48" type="qcurve" smooth="yes"/>
      <point x="98" y="-48"/>
      <point x="90" y="-35" type="qcurve" smooth="yes"/>
      <point x="84" y="-29"/>
      <point x="81" y="-8"/>
      <point x="97" y="47"/>
      <point x="116" y="104" type="qcurve" smooth="yes"/>
      <point x="126" y="142"/>
      <point x="138" y="177"/>
      <point x="138" y="185" type="qcurve" smooth="yes"/>
      <point x="138" y="196"/>
      <point x="143" y="211"/>
      <point x="143" y="218" type="qcurve"/>
      <point x="149" y="218"/>
      <point x="161" y="240"/>
      <point x="165" y="259" type="qcurve" smooth="yes"/>
      <point x="169" y="276"/>
      <point x="176" y="297"/>
      <point x="176" y="301" type="qcurve" smooth="yes"/>
      <point x="181" y="309"/>
      <point x="192" y="343"/>
      <point x="204" y="367" type="qcurve"/>
      <point x="212" y="397"/>
      <point x="232" y="462"/>
      <point x="253" y="519"/>
      <point x="260" y="535" type="qcurve" smooth="yes"/>
      <point x="271" y="566"/>
      <point x="283" y="591"/>
      <point x="277" y="595" type="qcurve" smooth="yes"/>
      <point x="270" y="600"/>
      <point x="278" y="624"/>
      <point x="296" y="639" type="qcurve" smooth="yes"/>
      <point x="307" y="652"/>
      <point x="323" y="663"/>
      <point x="348" y="663"/>
      <point x="372" y="661" type="qcurve" smooth="yes"/>
      <point x="390" y="660"/>
      <point x="431" y="660"/>
      <point x="436" y="660" type="qcurve" smooth="yes"/>
      <point x="445" y="656"/>
      <point x="471" y="647"/>
      <point x="492" y="639"/>
      <point x="492" y="636" type="qcurve" smooth="yes"/>
      <point x="492" y="630"/>
      <point x="501" y="627"/>
      <point x="506" y="626" type="qcurve" smooth="yes"/>
      <point x="513" y="626"/>
      <point x="537" y="605"/>
      <point x="563" y="574"/>
      <point x="570" y="557" type="qcurve" smooth="yes"/>
      <point x="578" y="540"/>
      <point x="587" y="510"/>
      <point x="582" y="482" type="qcurve" smooth="yes"/>
      <point x="581" y="467"/>
      <point x="574" y="437"/>
      <point x="570" y="432" type="qcurve" smooth="yes"/>
      <point x="564" y="428"/>
      <point x="554" y="416"/>
      <point x="554" y="411" type="qcurve" smooth="yes"/>
      <point x="554" y="407"/>
      <point x="540" y="384"/>
      <point x="518" y="354"/>
      <point x="492" y="324"/>
      <point x="480" y="313" type="qcurve" smooth="yes"/>
      <point x="467" y="297"/>
      <point x="432" y="269"/>
      <point x="418" y="260" type="qcurve" smooth="yes"/>
      <point x="392" y="248"/>
      <point x="329" y="224"/>
      <point x="272" y="208"/>
      <point x="253" y="209" type="qcurve" smooth="yes"/>
      <point x="224" y="205"/>
      <point x="207" y="198"/>
      <point x="203" y="184" type="qcurve" smooth="yes"/>
      <point x="198" y="171"/>
      <point x="189" y="144"/>
      <point x="189" y="139" type="qcurve" smooth="yes"/>
      <point x="187" y="135"/>
      <point x="172" y="94"/>
      <point x="155" y="40"/>
      <point x="139" y="-12"/>
      <point x="135" y="-29" type="qcurve" smooth="yes"/>
      <point x="131" y="-43"/>
      <point x="119" y="-48"/>
    </contour>
    <contour>
      <point x="234" y="262" type="qcurve" smooth="yes"/>
      <point x="238" y="258"/>
      <point x="292" y="264"/>
      <point x="323" y="276" type="qcurve" smooth="yes"/>
      <point x="343" y="283"/>
      <point x="384" y="303"/>
      <point x="403" y="315" type="qcurve" smooth="yes"/>
      <point x="413" y="322"/>
      <point x="453" y="358"/>
      <point x="473" y="383" type="qcurve" smooth="yes"/>
      <point x="476" y="388"/>
      <point x="491" y="417"/>
      <point x="497" y="430" type="qcurve" smooth="yes"/>
      <point x="506" y="444"/>
      <point x="524" y="499"/>
      <point x="519" y="517" type="qcurve" smooth="yes"/>
      <point x="514" y="543"/>
      <point x="472" y="588"/>
      <point x="443" y="596" type="qcurve" smooth="yes"/>
      <point x="421" y="600"/>
      <point x="392" y="600"/>
      <point x="375" y="597" type="qcurve" smooth="yes"/>
      <point x="359" y="592"/>
      <point x="344" y="574"/>
      <point x="332" y="545" type="qcurve" smooth="yes"/>
      <point x="325" y="531"/>
      <point x="299" y="474"/>
      <point x="290" y="449" type="qcurve" smooth="yes"/>
      <point x="272" y="383"/>
      <point x="237" y="298"/>
      <point x="233" y="287" type="qcurve"/>
      <point x="234" y="276"/>
      <point x="230" y="267"/>
    </contour>
  </outline>
</glyph>
<glyph name="T" format="2">
  <advance width="458"/>
  <unicode hex="0054"/>
  <anchor x="485" y="785" name="Anchor-4"/>
  <anchor x="189" y="-110" name="Anchor-1"/>
  <outline>
    <contour>
      <point x="215" y="-44" type="qcurve" smooth="yes"/>
      <point x="207" y="-44"/>
      <point x="187" y="-18"/>
      <point x="188" y="-6" type="qcurve" smooth="yes"/>
      <point x="189" y="10"/>
      <point x="205" y="70"/>
      <point x="225" y="132"/>
      <point x="233" y="150" type="qcurve" smooth="yes"/>
      <point x="237" y="166"/>
      <point x="244" y="191"/>
      <point x="245" y="195" type="qcurve" smooth="yes"/>
      <point x="248" y="199"/>
      <point x="261" y="233"/>
      <point x="265" y="249" type="qcurve" smooth="yes"/>
      <point x="267" y="257"/>
      <point x="280" y="302"/>
      <point x="299" y="362"/>
      <point x="318" y="420"/>
      <point x="332" y="464"/>
      <point x="334" y="471" type="qcurve" smooth="yes"/>
      <point x="342" y="483"/>
      <point x="350" y="505"/>
      <point x="351" y="509" type="qcurve" smooth="yes"/>
      <point x="357" y="513"/>
      <point x="359" y="526"/>
      <point x="359" y="530" type="qcurve" smooth="yes"/>
      <point x="359" y="535"/>
      <point x="366" y="541"/>
      <point x="366" y="545" type="qcurve" smooth="yes"/>
      <point x="370" y="548"/>
      <point x="372" y="561"/>
      <point x="377" y="566" type="qcurve" smooth="yes"/>
      <point x="382" y="583" type="line"/>
      <point x="441" y="584" type="line"/>
      <point x="439" y="572"/>
      <point x="431" y="537"/>
      <point x="416" y="508" type="qcurve"/>
      <point x="411" y="488"/>
      <point x="398" y="456"/>
      <point x="399" y="451" type="qcurve" smooth="yes"/>
      <point x="397" y="449"/>
      <point x="384" y="413"/>
      <point x="367" y="361"/>
      <point x="350" y="309"/>
      <point x="337" y="270"/>
      <point x="335" y="265" type="qcurve" smooth="yes"/>
      <point x="327" y="249"/>
      <point x="307" y="187"/>
      <point x="287" y="134" type="qcurve" smooth="yes"/>
      <point x="279" y="118"/>
      <point x="256" y="54"/>
      <point x="249" y="28" type="qcurve" smooth="yes"/>
      <point x="238" y="-11"/>
      <point x="229" y="-42"/>
      <point x="223" y="-45"/>
    </contour>
    <contour>
      <point x="223" y="552" type="qcurve" smooth="yes"/>
      <point x="195" y="551"/>
      <point x="168" y="559"/>
      <point x="172" y="575" type="qcurve" smooth="yes"/>
      <point x="175" y="587"/>
      <point x="195" y="599"/>
      <point x="214" y="602" type="qcurve" smooth="yes"/>
      <point x="225" y="604"/>
      <point x="260" y="610"/>
      <point x="276" y="613" type="qcurve" smooth="yes"/>
      <point x="309" y="617"/>
      <point x="352" y="623"/>
      <point x="398" y="627"/>
      <point x="433" y="629" type="qcurve" smooth="yes"/>
      <point x="462" y="631"/>
      <point x="503" y="634"/>
      <point x="503" y="634" type="qcurve" smooth="yes"/>
      <point x="506" y="634"/>
      <point x="542" y="630"/>
      <point x="584" y="624"/>
      <point x="594" y="620" type="qcurve" smooth="yes"/>
      <point x="617" y="615"/>
      <point x="638" y="597"/>
      <point x="642" y="580" type="qcurve" smooth="yes"/>
      <point x="645" y="568"/>
      <point x="639" y="563"/>
      <point x="631" y="559" type="qcurve" smooth="yes"/>
      <point x="608" y="552"/>
      <point x="586" y="552"/>
      <point x="572" y="557" type="qcurve" smooth="yes"/>
      <point x="567" y="562"/>
      <point x="554" y="570"/>
      <point x="523" y="575"/>
      <point x="490" y="577" type="qcurve"/>
      <point x="462" y="574"/>
      <point x="420" y="574"/>
      <point x="420" y="569" type="qcurve"/>
      <point x="361" y="566" type="line"/>
      <point x="312" y="561" type="line" smooth="yes"/>
      <point x="302" y="560"/>
      <point x="266" y="557"/>
      <point x="232" y="554"/>
    </contour>
  </outline>
</glyph>
<glyph name="V" format="2">
  <advance width="490"/>
  <unicode hex="0056"/>
  <outline>
    <contour>
      <point x="260" y="-58" type="qcurve" smooth="yes"/>
      <point x="255" y="-56"/>
      <point x="251" y="-48"/>
      <point x="249" y="-36" type="qcurve" smooth="yes"/>
      <point x="249" y="-25"/>
      <point x="237" y="-15"/>
      <point x="220" y="-11" type="qcurve"/>
      <point x="209" y="0"/>
      <point x="199" y="28"/>
      <point x="194" y="92"/>
      <point x="190" y="156" type="qcurve"/>
      <point x="192" y="191"/>
      <point x="195" y="239"/>
      <point x="199" y="281"/>
      <point x="204" y="329"/>
      <point x="209" y="365" type="qcurve"/>
      <point x="207" y="388"/>
      <point x="216" y="442"/>
      <point x="213" y="458" type="qcurve"/>
      <point x="220" y="480"/>
      <point x="224" y="537"/>
      <point x="231" y="559" type="qcurve" smooth="yes"/>
      <point x="233" y="576"/>
      <point x="238" y="606"/>
      <point x="238" y="616" type="qcurve" smooth="yes"/>
      <point x="236" y="636"/>
      <point x="244" y="670"/>
      <point x="256" y="675" type="qcurve" smooth="yes"/>
      <point x="262" y="677"/>
      <point x="284" y="679"/>
      <point x="289" y="675" type="qcurve" smooth="yes"/>
      <point x="297" y="671"/>
      <point x="303" y="653"/>
      <point x="302" y="642" type="qcurve" smooth="yes"/>
      <point x="304" y="631"/>
      <point x="301" y="577"/>
      <point x="293" y="512"/>
      <point x="286" y="481" type="qcurve" smooth="yes"/>
      <point x="278" y="440"/>
      <point x="269" y="355"/>
      <point x="267" y="314" type="qcurve" smooth="yes"/>
      <point x="263" y="232"/>
      <point x="255" y="124"/>
      <point x="258" y="100" type="qcurve" smooth="yes"/>
      <point x="258" y="97"/>
      <point x="262" y="71"/>
      <point x="268" y="48"/>
      <point x="271" y="48" type="qcurve" smooth="yes"/>
      <point x="279" y="49"/>
      <point x="294" y="75"/>
      <point x="307" y="110"/>
      <point x="313" y="123" type="qcurve" smooth="yes"/>
      <point x="326" y="148"/>
      <point x="353" y="207"/>
      <point x="363" y="234" type="qcurve" smooth="yes"/>
      <point x="381" y="276"/>
      <point x="417" y="336"/>
      <point x="433" y="373" type="qcurve" smooth="yes"/>
      <point x="439" y="389"/>
      <point x="470" y="450"/>
      <point x="484" y="476" type="qcurve" smooth="yes"/>
      <point x="501" y="502"/>
      <point x="532" y="550"/>
      <point x="553" y="590" type="qcurve" smooth="yes"/>
      <point x="582" y="638"/>
      <point x="614" y="674"/>
      <point x="630" y="674" type="qcurve" smooth="yes"/>
      <point x="641" y="676"/>
      <point x="646" y="673"/>
      <point x="653" y="663" type="qcurve" smooth="yes"/>
      <point x="661" y="652"/>
      <point x="662" y="629"/>
      <point x="641" y="589"/>
      <point x="615" y="552" type="qcurve" smooth="yes"/>
      <point x="595" y="522"/>
      <point x="546" y="442"/>
      <point x="505" y="371"/>
      <point x="496" y="354" type="qcurve" smooth="yes"/>
      <point x="491" y="343"/>
      <point x="483" y="319"/>
      <point x="475" y="309" type="qcurve" smooth="yes"/>
      <point x="465" y="299"/>
      <point x="431" y="233"/>
      <point x="415" y="201" type="qcurve" smooth="yes"/>
      <point x="397" y="159"/>
      <point x="376" y="112"/>
      <point x="363" y="82"/>
      <point x="351" y="54"/>
      <point x="342" y="33" type="qcurve" smooth="yes"/>
      <point x="337" y="16"/>
      <point x="320" y="-21"/>
      <point x="319" y="-27" type="qcurve" smooth="yes"/>
      <point x="312" y="-38"/>
      <point x="289" y="-55"/>
      <point x="267" y="-61"/>
    </contour>
  </outline>
</glyph>
<glyph name="W" format="2">
  <advance width="720"/>
  <unicode hex="0057"/>
  <anchor x="630" y="785" name="Anchor-4"/>
  <outline>
    <contour>
      <point x="498" y="-53" type="qcurve" smooth="yes"/>
      <point x="485" y="-54"/>
      <point x="464" y="-41"/>
      <point x="460" y="-31" type="qcurve" smooth="yes"/>
      <point x="456" y="-26"/>
      <point x="440" y="-2"/>
      <point x="438" y="10" type="qcurve" smooth="yes"/>
      <point x="435" y="42"/>
      <point x="434" y="102"/>
      <point x="437" y="156" type="qcurve" smooth="yes"/>
      <point x="440" y="200"/>
      <point x="457" y="283"/>
      <point x="474" y="349"/>
      <point x="484" y="388"/>
      <point x="481" y="388" type="qcurve" smooth="yes"/>
      <point x="477" y="388"/>
      <point x="461" y="359"/>
      <point x="441" y="317"/>
      <point x="421" y="276"/>
      <point x="414" y="263" type="qcurve" smooth="yes"/>
      <point x="400" y="232"/>
      <point x="363" y="163"/>
      <point x="325" y="99"/>
      <point x="311" y="75" type="qcurve" smooth="yes"/>
      <point x="302" y="65"/>
      <point x="278" y="28"/>
      <point x="250" y="-12"/>
      <point x="235" y="-25" type="qcurve" smooth="yes"/>
      <point x="213" y="-46"/>
      <point x="170" y="-50"/>
      <point x="155" y="-37" type="qcurve" smooth="yes"/>
      <point x="152" y="-33"/>
      <point x="145" y="-22"/>
      <point x="141" y="-4"/>
      <point x="144" y="8" type="qcurve" smooth="yes"/>
      <point x="143" y="22"/>
      <point x="146" y="81"/>
      <point x="154" y="152"/>
      <point x="163" y="218"/>
      <point x="167" y="240" type="qcurve" smooth="yes"/>
      <point x="176" y="304"/>
      <point x="207" y="438"/>
      <point x="220" y="506" type="qcurve"/>
      <point x="228" y="526"/>
      <point x="241" y="577"/>
      <point x="248" y="599" type="qcurve"/>
      <point x="249" y="621"/>
      <point x="267" y="636"/>
      <point x="290" y="631"/>
      <point x="297" y="621" type="qcurve" smooth="yes"/>
      <point x="307" y="611"/>
      <point x="318" y="569"/>
      <point x="304" y="537" type="qcurve" smooth="yes"/>
      <point x="284" y="488"/>
      <point x="247" y="347"/>
      <point x="232" y="247" type="qcurve" smooth="yes"/>
      <point x="228" y="223"/>
      <point x="218" y="157"/>
      <point x="210" y="95"/>
      <point x="207" y="53"/>
      <point x="209" y="52" type="qcurve" smooth="yes"/>
      <point x="217" y="50"/>
      <point x="245" y="79"/>
      <point x="256" y="103" type="qcurve" smooth="yes"/>
      <point x="297" y="171"/>
      <point x="378" y="320"/>
      <point x="415" y="393" type="qcurve" smooth="yes"/>
      <point x="432" y="422"/>
      <point x="467" y="491"/>
      <point x="483" y="520" type="qcurve" smooth="yes"/>
      <point x="500" y="550"/>
      <point x="528" y="599"/>
      <point x="548" y="631"/>
      <point x="554" y="633" type="qcurve" smooth="yes"/>
      <point x="570" y="632"/>
      <point x="593" y="619"/>
      <point x="601" y="599" type="qcurve" smooth="yes"/>
      <point x="603" y="594"/>
      <point x="597" y="570"/>
      <point x="593" y="561" type="qcurve" smooth="yes"/>
      <point x="592" y="554"/>
      <point x="577" y="510"/>
      <point x="571" y="483" type="qcurve" smooth="yes"/>
      <point x="561" y="456"/>
      <point x="546" y="403"/>
      <point x="543" y="386" type="qcurve" smooth="yes"/>
      <point x="535" y="343"/>
      <point x="511" y="240"/>
      <point x="494" y="139"/>
      <point x="493" y="99" type="qcurve" smooth="yes"/>
      <point x="492" y="71"/>
      <point x="495" y="39"/>
      <point x="499" y="30" type="qcurve" smooth="yes"/>
      <point x="501" y="22"/>
      <point x="522" y="18"/>
      <point x="529" y="27" type="qcurve" smooth="yes"/>
      <point x="549" y="52"/>
      <point x="578" y="93"/>
      <point x="604" y="136"/>
      <point x="618" y="163" type="qcurve" smooth="yes"/>
      <point x="643" y="209"/>
      <point x="696" y="322"/>
      <point x="745" y="434"/>
      <point x="763" y="476" type="qcurve" smooth="yes"/>
      <point x="782" y="530"/>
      <point x="805" y="594"/>
      <point x="823" y="626"/>
      <point x="833" y="632" type="qcurve" smooth="yes"/>
      <point x="838" y="636"/>
      <point x="856" y="636"/>
      <point x="865" y="628" type="qcurve" smooth="yes"/>
      <point x="869" y="624"/>
      <point x="876" y="607"/>
      <point x="875" y="595" type="qcurve" smooth="yes"/>
      <point x="870" y="579"/>
      <point x="845" y="509"/>
      <point x="813" y="425"/>
      <point x="783" y="349"/>
      <point x="772" y="326" type="qcurve" smooth="yes"/>
      <point x="761" y="305"/>
      <point x="741" y="275"/>
      <point x="741" y="267" type="qcurve" smooth="yes"/>
      <point x="741" y="263"/>
      <point x="721" y="222"/>
      <point x="690" y="164"/>
      <point x="654" y="102"/>
      <point x="622" y="50"/>
      <point x="611" y="36" type="qcurve" smooth="yes"/>
      <point x="586" y="5"/>
      <point x="539" y="-35"/>
      <point x="505" y="-53"/>
    </contour>
  </outline>
</glyph>
<glyph name="backslash" format="2">
  <advance width="330"/>
  <unicode hex="005C"/>
  <outline>
    <contour>
      <point x="339" y="-104" type="qcurve" smooth="yes"/>
      <point x="335" y="-104"/>
      <point x="327" y="-101"/>
      <point x="326" y="-98" type="qcurve" smooth="yes"/>
      <point x="308" y="-94"/>
      <point x="312" y="-80" type="qcurve" smooth="yes"/>
      <point x="312" y="-76"/>
      <point x="305" y="-46"/>
      <point x="295" y="-2"/>
      <point x="282" y="49"/>
      <point x="269" y="98"/>
      <point x="257" y="138"/>
      <point x="253" y="149" type="qcurve" smooth="yes"/>
      <point x="253" y="154"/>
      <point x="251" y="162"/>
      <point x="252" y="166" type="qcurve" smooth="yes"/>
      <point x="251" y="170"/>
      <point x="246" y="183"/>
      <point x="247" y="188" type="qcurve"/>
      <point x="243" y="191"/>
      <point x="241" y="211"/>
      <point x="242" y="218" type="qcurve" smooth="yes"/>
      <point x="241" y="226"/>
      <point x="237" y="242"/>
      <point x="233" y="242" type="qcurve" smooth="yes"/>
      <point x="232" y="245"/>
      <point x="224" y="291"/>
      <point x="211" y="361"/>
      <point x="198" y="439"/>
      <point x="186" y="511"/>
      <point x="179" y="562"/>
      <point x="179" y="569" type="qcurve" smooth="yes"/>
      <point x="181" y="577"/>
      <point x="175" y="599"/>
      <point x="173" y="611" type="qcurve" smooth="yes"/>
      <point x="171" y="649"/>
      <point x="183" y="703"/>
      <point x="208" y="726"/>
      <point x="226" y="718" type="qcurve" smooth="yes"/>
      <point x="231" y="713"/>
      <point x="233" y="697"/>
      <point x="229" y="674" type="qcurve" smooth="yes"/>
      <point x="228" y="663"/>
      <point x="236" y="595"/>
      <point x="250" y="503"/>
      <point x="264" y="407"/>
      <point x="276" y="325"/>
      <point x="279" y="302" type="qcurve"/>
      <point x="286" y="280"/>
      <point x="289" y="249"/>
      <point x="287" y="246" type="qcurve" smooth="yes"/>
      <point x="287" y="246"/>
      <point x="286" y="236"/>
      <point x="290" y="234" type="qcurve" smooth="yes"/>
      <point x="294" y="230"/>
      <point x="296" y="222"/>
      <point x="296" y="219" type="qcurve" smooth="yes"/>
      <point x="296" y="217"/>
      <point x="302" y="191"/>
      <point x="311" y="156"/>
      <point x="322" y="123"/>
      <point x="326" y="115" type="qcurve"/>
      <point x="326" y="102"/>
      <point x="330" y="83"/>
      <point x="329" y="79" type="qcurve" smooth="yes"/>
      <point x="329" y="78"/>
      <point x="332" y="67"/>
      <point x="338" y="50"/>
      <point x="344" y="30"/>
      <point x="346" y="19" type="qcurve" smooth="yes"/>
      <point x="354" y="-3"/>
      <point x="368" y="-29"/>
      <point x="375" y="-47"/>
      <point x="372" y="-57" type="qcurve" smooth="yes"/>
      <point x="373" y="-68"/>
      <point x="368" y="-85"/>
      <point x="357" y="-92" type="qcurve" smooth="yes"/>
      <point x="347" y="-99"/>
      <point x="339" y="-104"/>
    </contour>
  </outline>
</glyph>
<glyph name="grave" format="2">
  <advance width="353"/>
  <unicode hex="0060"/>
  <outline>
    <contour>
      <point x="347" y="441" type="qcurve" smooth="yes"/>
      <point x="335" y="432"/>
      <point x="326" y="440"/>
      <point x="320" y="457" type="qcurve" smooth="yes"/>
      <point x="314" y="469"/>
      <point x="292" y="503"/>
      <point x="271" y="537"/>
      <point x="262" y="566"/>
      <point x="268" y="575" type="qcurve" smooth="yes"/>
      <point x="281" y="586"/>
      <point x="300" y="598"/>
      <point x="310" y="587" type="qcurve" smooth="yes"/>
      <point x="317" y="583"/>
      <point x="336" y="550"/>
      <point x="355" y="508"/>
      <point x="367" y="473"/>
      <point x="367" y="467" type="qcurve" smooth="yes"/>
      <point x="368" y="464"/>
      <point x="362" y="453"/>
      <point x="353" y="443"/>
    </contour>
  </outline>
</glyph>
<glyph name="d" format="2">
  <advance width="393"/>
  <unicode hex="0064"/>
  <anchor x="166" y="-110" name="Anchor-1"/>
  <outline>
    <contour>
      <point x="362" y="-19" type="qcurve" smooth="yes"/>
      <point x="349" y="-22"/>
      <point x="332" y="-9"/>
      <point x="328" y="3" type="qcurve" smooth="yes"/>
      <point x="320" y="26"/>
      <point x="313" y="81"/>
      <point x="315" y="102" type="qcurve" smooth="yes"/>
      <point x="317" y="123" type="line"/>
      <point x="278" y="92" type="line" smooth="yes"/>
      <point x="244" y="62"/>
      <point x="181" y="36"/>
      <point x="157" y="36" type="qcurve" smooth="yes"/>
      <point x="146" y="38"/>
      <point x="124" y="50"/>
      <point x="107" y="68"/>
      <point x="102" y="78" type="qcurve" smooth="yes"/>
      <point x="96" y="92"/>
      <point x="101" y="140"/>
      <point x="120" y="197"/>
      <point x="149" y="252"/>
      <point x="168" y="273" type="qcurve"/>
      <point x="201" y="323"/>
      <point x="277" y="345"/>
      <point x="314" y="323" type="qcurve" smooth="yes"/>
      <point x="340" y="312"/>
      <point x="353" y="314"/>
      <point x="358" y="336" type="qcurve" smooth="yes"/>
      <point x="362" y="352"/>
      <point x="370" y="385"/>
      <point x="379" y="413" type="qcurve" smooth="yes"/>
      <point x="404" y="489"/>
      <point x="441" y="575"/>
      <point x="456" y="607" type="qcurve" smooth="yes"/>
      <point x="467" y="630"/>
      <point x="482" y="641"/>
      <point x="490" y="640" type="qcurve" smooth="yes"/>
      <point x="501" y="640"/>
      <point x="519" y="624"/>
      <point x="524" y="610" type="qcurve" smooth="yes"/>
      <point x="528" y="601"/>
      <point x="527" y="588"/>
      <point x="521" y="577" type="qcurve" smooth="yes"/>
      <point x="508" y="553"/>
      <point x="473" y="474"/>
      <point x="438" y="380"/>
      <point x="408" y="288"/>
      <point x="398" y="253" type="qcurve" smooth="yes"/>
      <point x="392" y="231"/>
      <point x="383" y="163"/>
      <point x="377" y="92"/>
      <point x="376" y="37"/>
      <point x="378" y="29" type="qcurve" smooth="yes"/>
      <point x="384" y="9"/>
      <point x="383" y="-11"/>
      <point x="373" y="-18"/>
    </contour>
    <contour>
      <point x="193" y="92" type="qcurve" smooth="yes"/>
      <point x="207" y="95"/>
      <point x="234" y="111"/>
      <point x="249" y="122" type="qcurve" smooth="yes"/>
      <point x="279" y="145"/>
      <point x="323" y="183"/>
      <point x="330" y="222" type="qcurve" smooth="yes"/>
      <point x="332" y="241"/>
      <point x="321" y="264"/>
      <point x="309" y="274" type="qcurve" smooth="yes"/>
      <point x="297" y="282"/>
      <point x="256" y="279"/>
      <point x="234" y="259" type="qcurve" smooth="yes"/>
      <point x="210" y="237"/>
      <point x="165" y="163"/>
      <point x="154" y="109" type="qcurve" smooth="yes"/>
      <point x="152" y="99"/>
      <point x="168" y="87"/>
    </contour>
  </outline>
</glyph>
<glyph name="h" format="2">
  <advance width="464"/>
  <unicode hex="0068"/>
  <anchor x="192" y="-110" name="Anchor-1"/>
  <anchor x="437" y="560" name="Anchor-0"/>
  <outline>
    <contour>
      <point x="136" y="54" type="qcurve" smooth="yes"/>
      <point x="129" y="53"/>
      <point x="114" y="56"/>
      <point x="107" y="61" type="qcurve" smooth="yes"/>
      <point x="99" y="69"/>
      <point x="93" y="78"/>
      <point x="96" y="98"/>
      <point x="101" y="119" type="qcurve" smooth="yes"/>
      <point x="106" y="135"/>
      <point x="120" y="192"/>
      <point x="128" y="220" type="qcurve" smooth="yes"/>
      <point x="131" y="236"/>
      <point x="142" y="270"/>
      <point x="154" y="299"/>
      <point x="157" y="307" type="qcurve" smooth="yes"/>
      <point x="165" y="335"/>
      <point x="180" y="377"/>
      <point x="202" y="432"/>
      <point x="218" y="478" type="qcurve" smooth="yes"/>
      <point x="240" y="538"/>
      <point x="263" y="601"/>
      <point x="274" y="630"/>
      <point x="276" y="638" type="qcurve" smooth="yes"/>
      <point x="276" y="646"/>
      <point x="285" y="654"/>
      <point x="292" y="654" type="qcurve" smooth="yes"/>
      <point x="306" y="654"/>
      <point x="323" y="627"/>
      <point x="327" y="590"/>
      <point x="319" y="574" type="qcurve" smooth="yes"/>
      <point x="303" y="538"/>
      <point x="267" y="439"/>
      <point x="233" y="344"/>
      <point x="218" y="311" type="qcurve" smooth="yes"/>
      <point x="218" y="307"/>
      <point x="212" y="287"/>
      <point x="208" y="279" type="qcurve" smooth="yes"/>
      <point x="204" y="271"/>
      <point x="197" y="257"/>
      <point x="197" y="257" type="qcurve" smooth="yes"/>
      <point x="197" y="253"/>
      <point x="191" y="231"/>
      <point x="186" y="215" type="qcurve" smooth="yes"/>
      <point x="182" y="203"/>
      <point x="171" y="165"/>
      <point x="169" y="152" type="qcurve"/>
      <point x="174" y="161"/>
      <point x="206" y="197"/>
      <point x="220" y="210" type="qcurve" smooth="yes"/>
      <point x="236" y="224"/>
      <point x="276" y="258"/>
      <point x="288" y="266" type="qcurve" smooth="yes"/>
      <point x="300" y="274"/>
      <point x="319" y="287"/>
      <point x="319" y="287" type="qcurve" smooth="yes"/>
      <point x="319" y="291"/>
      <point x="326" y="292"/>
      <point x="330" y="292" type="qcurve" smooth="yes"/>
      <point x="334" y="292"/>
      <point x="335" y="294"/>
      <point x="335" y="298" type="qcurve" smooth="yes"/>
      <point x="335" y="303"/>
      <point x="358" y="311"/>
      <point x="389" y="316"/>
      <point x="399" y="316" type="qcurve" smooth="yes"/>
      <point x="411" y="316"/>
      <point x="425" y="306"/>
      <point x="436" y="289" type="qcurve" smooth="yes"/>
      <point x="448" y="273"/>
      <point x="455" y="228"/>
      <point x="447" y="204" type="qcurve" smooth="yes"/>
      <point x="447" y="196"/>
      <point x="442" y="167"/>
      <point x="442" y="151" type="qcurve" smooth="yes"/>
      <point x="436" y="119" type="line"/>
      <point x="452" y="119" type="line" smooth="yes"/>
      <point x="460" y="119"/>
      <point x="474" y="114"/>
      <point x="474" y="114" type="qcurve" smooth="yes"/>
      <point x="478" y="110"/>
      <point x="486" y="103"/>
      <point x="490" y="103" type="qcurve" smooth="yes"/>
      <point x="502" y="103"/>
      <point x="496" y="84"/>
      <point x="484" y="76" type="qcurve" smooth="yes"/>
      <point x="460" y="60"/>
      <point x="421" y="60"/>
      <point x="405" y="76" type="qcurve" smooth="yes"/>
      <point x="389" y="93"/>
      <point x="381" y="135"/>
      <point x="389" y="167" type="qcurve"/>
      <point x="393" y="211"/>
      <point x="394" y="252"/>
      <point x="383" y="252" type="qcurve" smooth="yes"/>
      <point x="373" y="252"/>
      <point x="323" y="225"/>
      <point x="261" y="179"/>
      <point x="201" y="123"/>
      <point x="181" y="93" type="qcurve" smooth="yes"/>
      <point x="169" y="78"/>
      <point x="147" y="55"/>
    </contour>
  </outline>
</glyph>
<glyph name="j" format="2">
  <advance width="204"/>
  <unicode hex="006A"/>
  <outline>
    <contour>
      <point x="60" y="-194" type="qcurve" smooth="yes"/>
      <point x="38" y="-216"/>
      <point x="-31" y="-215"/>
      <point x="-55" y="-190" type="qcurve"/>
      <point x="-67" y="-171"/>
      <point x="-80" y="-127"/>
      <point x="-79" y="-94"/>
      <point x="-69" y="-94" type="qcurve" smooth="yes"/>
      <point x="-64" y="-94"/>
      <point x="-56" y="-100"/>
      <point x="-50" y="-111"/>
      <point x="-50" y="-119" type="qcurve" smooth="yes"/>
      <point x="-50" y="-134"/>
      <point x="-36" y="-158"/>
      <point x="-23" y="-158" type="qcurve"/>
      <point x="-12" y="-162"/>
      <point x="25" y="-142"/>
      <point x="36" y="-124" type="qcurve" smooth="yes"/>
      <point x="46" y="-111"/>
      <point x="75" y="-55"/>
      <point x="104" y="6"/>
      <point x="111" y="25" type="qcurve" smooth="yes"/>
      <point x="123" y="66"/>
      <point x="142" y="152"/>
      <point x="152" y="201" type="qcurve" smooth="yes"/>
      <point x="156" y="228"/>
      <point x="167" y="267"/>
      <point x="167" y="271" type="qcurve" smooth="yes"/>
      <point x="167" y="275"/>
      <point x="169" y="300"/>
      <point x="174" y="310" type="qcurve"/>
      <point x="174" y="325"/>
      <point x="179" y="348"/>
      <point x="179" y="352" type="qcurve" smooth="yes"/>
      <point x="182" y="355"/>
      <point x="193" y="353"/>
      <point x="206" y="347"/>
      <point x="211" y="342" type="qcurve" smooth="yes"/>
      <point x="219" y="334"/>
      <point x="224" y="318"/>
      <point x="221" y="284"/>
      <point x="216" y="247" type="qcurve" smooth="yes"/>
      <point x="216" y="241"/>
      <point x="210" y="204"/>
      <point x="200" y="158"/>
      <point x="190" y="115"/>
      <point x="187" y="101" type="qcurve" smooth="yes"/>
      <point x="183" y="86"/>
      <point x="173" y="50"/>
      <point x="172" y="43" type="qcurve" smooth="yes"/>
      <point x="171" y="37"/>
      <point x="159" y="2"/>
      <point x="146" y="-32"/>
      <point x="145" y="-39" type="qcurve" smooth="yes"/>
      <point x="144" y="-43"/>
      <point x="135" y="-73"/>
      <point x="121" y="-104" type="qcurve" smooth="yes"/>
      <point x="116" y="-116"/>
      <point x="93" y="-154"/>
      <point x="69" y="-187"/>
    </contour>
    <contour>
      <point x="218" y="485" type="qcurve" smooth="yes"/>
      <point x="207" y="498"/>
      <point x="214" y="540"/>
      <point x="230" y="561" type="qcurve" smooth="yes"/>
      <point x="243" y="576"/>
      <point x="273" y="580"/>
      <point x="286" y="569" type="qcurve"/>
      <point x="297" y="552"/>
      <point x="297" y="531"/>
      <point x="286" y="515" type="qcurve" smooth="yes"/>
      <point x="261" y="487"/>
      <point x="231" y="474"/>
    </contour>
  </outline>
</glyph>
<glyph name="k" format="2">
  <advance width="365"/>
  <unicode hex="006B"/>
  <anchor x="141" y="-110" name="Anchor-1"/>
  <outline>
    <contour>
      <point x="112" y="5" type="qcurve" smooth="yes"/>
      <point x="104" y="8"/>
      <point x="86" y="27"/>
      <point x="74" y="53"/>
      <point x="74" y="64" type="qcurve"/>
      <point x="79" y="75"/>
      <point x="95" y="130"/>
      <point x="107" y="166" type="qcurve"/>
      <point x="115" y="177"/>
      <point x="124" y="207"/>
      <point x="128" y="219" type="qcurve" smooth="yes"/>
      <point x="136" y="235"/>
      <point x="158" y="286"/>
      <point x="179" y="339"/>
      <point x="187" y="357" type="qcurve" smooth="yes"/>
      <point x="200" y="384"/>
      <point x="219" y="429"/>
      <point x="238" y="475"/>
      <point x="249" y="502" type="qcurve" smooth="yes"/>
      <point x="261" y="530"/>
      <point x="286" y="588"/>
      <point x="305" y="635"/>
      <point x="307" y="645" type="qcurve" smooth="yes"/>
      <point x="307" y="653"/>
      <point x="314" y="661"/>
      <point x="318" y="661" type="qcurve" smooth="yes"/>
      <point x="322" y="665"/>
      <point x="330" y="666"/>
      <point x="334" y="666" type="qcurve" smooth="yes"/>
      <point x="338" y="666"/>
      <point x="361" y="636"/>
      <point x="361" y="624" type="qcurve" smooth="yes"/>
      <point x="361" y="608"/>
      <point x="330" y="520"/>
      <point x="302" y="464" type="qcurve" smooth="yes"/>
      <point x="268" y="390"/>
      <point x="226" y="295"/>
      <point x="210" y="248"/>
      <point x="212" y="245" type="qcurve" smooth="yes"/>
      <point x="212" y="245"/>
      <point x="240" y="258"/>
      <point x="256" y="270" type="qcurve" smooth="yes"/>
      <point x="267" y="276"/>
      <point x="293" y="294"/>
      <point x="317" y="311"/>
      <point x="325" y="313" type="qcurve" smooth="yes"/>
      <point x="337" y="321"/>
      <point x="363" y="336"/>
      <point x="367" y="340" type="qcurve" smooth="yes"/>
      <point x="384" y="348"/>
      <point x="401" y="342"/>
      <point x="410" y="330" type="qcurve" smooth="yes"/>
      <point x="421" y="317"/>
      <point x="407" y="298"/>
      <point x="381" y="282" type="qcurve" smooth="yes"/>
      <point x="360" y="269"/>
      <point x="301" y="233"/>
      <point x="256" y="205"/>
      <point x="253" y="202" type="qcurve"/>
      <point x="253" y="202"/>
      <point x="269" y="172"/>
      <point x="277" y="160" type="qcurve" smooth="yes"/>
      <point x="285" y="144"/>
      <point x="304" y="117"/>
      <point x="304" y="112" type="qcurve" smooth="yes"/>
      <point x="315" y="81"/>
      <point x="359" y="53"/>
      <point x="383" y="64" type="qcurve" smooth="yes"/>
      <point x="403" y="72"/>
      <point x="422" y="66"/>
      <point x="426" y="54" type="qcurve" smooth="yes"/>
      <point x="430" y="46"/>
      <point x="427" y="39"/>
      <point x="415" y="27" type="qcurve" smooth="yes"/>
      <point x="396" y="8"/>
      <point x="357" y="-2"/>
      <point x="341" y="6" type="qcurve"/>
      <point x="326" y="5"/>
      <point x="282" y="46"/>
      <point x="241" y="99" type="qcurve" smooth="yes"/>
      <point x="241" y="103"/>
      <point x="234" y="118"/>
      <point x="230" y="125" type="qcurve" smooth="yes"/>
      <point x="226" y="133"/>
      <point x="214" y="152"/>
      <point x="214" y="152" type="qcurve" smooth="yes"/>
      <point x="214" y="156"/>
      <point x="208" y="166"/>
      <point x="203" y="173" type="qcurve"/>
      <point x="187" y="178"/>
      <point x="173" y="156"/>
      <point x="165" y="144" type="qcurve" smooth="yes"/>
      <point x="160" y="131"/>
      <point x="145" y="84"/>
      <point x="136" y="40"/>
      <point x="138" y="32" type="qcurve" smooth="yes"/>
      <point x="138" y="16"/>
      <point x="128" y="5"/>
    </contour>
  </outline>
</glyph>
<glyph name="l" format="2">
  <advance width="169"/>
  <unicode hex="006C"/>
  <anchor x="43" y="-110" name="Anchor-1"/>
  <anchor x="288" y="560" name="Anchor-0"/>
  <outline>
    <contour>
      <point x="130" y="0" type="qcurve" smooth="yes"/>
      <point x="111" y="-5"/>
      <point x="88" y="21"/>
      <point x="84" y="75"/>
      <point x="92" y="112" type="qcurve" smooth="yes"/>
      <point x="97" y="124"/>
      <point x="103" y="147"/>
      <point x="103" y="154" type="qcurve" smooth="yes"/>
      <point x="105" y="164"/>
      <point x="117" y="203"/>
      <point x="131" y="245"/>
      <point x="144" y="278"/>
      <point x="146" y="282" type="qcurve" smooth="yes"/>
      <point x="150" y="282"/>
      <point x="156" y="296"/>
      <point x="156" y="303" type="qcurve" smooth="yes"/>
      <point x="156" y="311"/>
      <point x="163" y="331"/>
      <point x="167" y="335" type="qcurve" smooth="yes"/>
      <point x="167" y="340"/>
      <point x="172" y="353"/>
      <point x="172" y="357" type="qcurve" smooth="yes"/>
      <point x="172" y="361"/>
      <point x="177" y="369"/>
      <point x="177" y="373" type="qcurve" smooth="yes"/>
      <point x="184" y="386"/>
      <point x="207" y="443"/>
      <point x="234" y="513"/>
      <point x="258" y="581"/>
      <point x="273" y="628"/>
      <point x="273" y="633" type="qcurve" smooth="yes"/>
      <point x="273" y="641"/>
      <point x="281" y="649"/>
      <point x="289" y="649" type="qcurve" smooth="yes"/>
      <point x="292" y="652"/>
      <point x="301" y="654"/>
      <point x="305" y="654" type="qcurve" smooth="yes"/>
      <point x="305" y="654"/>
      <point x="313" y="646"/>
      <point x="321" y="638" type="qcurve" smooth="yes"/>
      <point x="329" y="631"/>
      <point x="332" y="613"/>
      <point x="332" y="601" type="qcurve" smooth="yes"/>
      <point x="332" y="588"/>
      <point x="326" y="568"/>
      <point x="308" y="530"/>
      <point x="289" y="490" type="qcurve" smooth="yes"/>
      <point x="281" y="470"/>
      <point x="263" y="435"/>
      <point x="263" y="431" type="qcurve" smooth="yes"/>
      <point x="263" y="427"/>
      <point x="256" y="411"/>
      <point x="252" y="399" type="qcurve" smooth="yes"/>
      <point x="248" y="391"/>
      <point x="234" y="360"/>
      <point x="219" y="325"/>
      <point x="209" y="300"/>
      <point x="209" y="298" type="qcurve" smooth="yes"/>
      <point x="209" y="294"/>
      <point x="208" y="286"/>
      <point x="204" y="282" type="qcurve" smooth="yes"/>
      <point x="200" y="282"/>
      <point x="199" y="271"/>
      <point x="199" y="271" type="qcurve" smooth="yes"/>
      <point x="199" y="261"/>
      <point x="183" y="218" type="qcurve" smooth="yes"/>
      <point x="167" y="163"/>
      <point x="140" y="71"/>
      <point x="140" y="43" type="qcurve" smooth="yes"/>
      <point x="140" y="19"/>
      <point x="138" y="4"/>
    </contour>
  </outline>
</glyph>
<glyph name="o" format="2">
  <advance width="353"/>
  <unicode hex="006F"/>
  <anchor x="191" y="40" name="Anchor-2"/>
  <anchor x="135" y="-110" name="Anchor-1"/>
  <anchor x="380" y="560" name="Anchor-0"/>
  <outline>
    <contour>
      <point x="169" y="15" type="qcurve" smooth="yes"/>
      <point x="156" y="15"/>
      <point x="141" y="25"/>
      <point x="130" y="34" type="qcurve" smooth="yes"/>
      <point x="111" y="54"/>
      <point x="95" y="91"/>
      <point x="98" y="108" type="qcurve" smooth="yes"/>
      <point x="101" y="116"/>
      <point x="100" y="131"/>
      <point x="100" y="131" type="qcurve"/>
      <point x="95" y="136"/>
      <point x="99" y="139"/>
      <point x="101" y="143" type="qcurve"/>
      <point x="107" y="143"/>
      <point x="105" y="154" type="qcurve" smooth="yes"/>
      <point x="103" y="162"/>
      <point x="123" y="216"/>
      <point x="138" y="240" type="qcurve" smooth="yes"/>
      <point x="144" y="250"/>
      <point x="168" y="283"/>
      <point x="197" y="316"/>
      <point x="209" y="326" type="qcurve" smooth="yes"/>
      <point x="234" y="347"/>
      <point x="272" y="367"/>
      <point x="294" y="372" type="qcurve" smooth="yes"/>
      <point x="316" y="377"/>
      <point x="333" y="377"/>
      <point x="348" y="361" type="qcurve"/>
      <point x="371" y="351"/>
      <point x="392" y="323"/>
      <point x="395" y="296" type="qcurve" smooth="yes"/>
      <point x="398" y="266"/>
      <point x="383" y="189"/>
      <point x="343" y="132" type="qcurve" smooth="yes"/>
      <point x="318" y="96"/>
      <point x="276" y="61"/>
      <point x="247" y="44" type="qcurve" smooth="yes"/>
      <point x="226" y="30"/>
      <point x="192" y="17"/>
    </contour>
    <contour>
      <point x="265" y="121" type="qcurve" smooth="yes"/>
      <point x="289" y="148"/>
      <point x="318" y="196"/>
      <point x="331" y="233" type="qcurve" smooth="yes"/>
      <point x="335" y="244"/>
      <point x="337" y="277"/>
      <point x="334" y="306"/>
      <point x="328" y="308" type="qcurve" smooth="yes"/>
      <point x="316" y="315"/>
      <point x="282" y="310"/>
      <point x="262" y="293" type="qcurve" smooth="yes"/>
      <point x="231" y="267"/>
      <point x="185" y="190"/>
      <point x="163" y="141" type="qcurve" smooth="yes"/>
      <point x="148" y="105"/>
      <point x="165" y="62"/>
      <point x="222" y="75"/>
    </contour>
  </outline>
</glyph>
<glyph name="r" format="2">
  <advance width="360"/>
  <unicode hex="0072"/>
  <anchor x="140" y="-110" name="Anchor-1"/>
  <anchor x="383" y="560" name="Anchor-0"/>
  <outline>
    <contour>
      <point x="119" y="35" type="qcurve" smooth="yes"/>
      <point x="110" y="42"/>
      <point x="103" y="56"/>
      <point x="106" y="76" type="qcurve" smooth="yes"/>
      <point x="109" y="104"/>
      <point x="119" y="147"/>
      <point x="126" y="175" type="qcurve" smooth="yes"/>
      <point x="128" y="187"/>
      <point x="147" y="245"/>
      <point x="175" y="313"/>
      <point x="203" y="374"/>
      <point x="213" y="389" type="qcurve" smooth="yes"/>
      <point x="221" y="395"/>
      <point x="244" y="393"/>
      <point x="252" y="385" type="qcurve" smooth="yes"/>
      <point x="263" y="376"/>
      <point x="248" y="331"/>
      <point x="225" y="283" type="qcurve" smooth="yes"/>
      <point x="213" y="256"/>
      <point x="201" y="229"/>
      <point x="203" y="224"/>
      <point x="211" y="229" type="qcurve"/>
      <point x="217" y="240"/>
      <point x="249" y="269"/>
      <point x="285" y="297"/>
      <point x="317" y="319"/>
      <point x="323" y="322" type="qcurve" smooth="yes"/>
      <point x="331" y="327"/>
      <point x="352" y="334"/>
      <point x="356" y="336" type="qcurve" smooth="yes"/>
      <point x="379" y="347"/>
      <point x="427" y="341"/>
      <point x="433" y="326" type="qcurve" smooth="yes"/>
      <point x="434" y="318"/>
      <point x="445" y="310"/>
      <point x="445" y="310" type="qcurve" smooth="yes"/>
      <point x="449" y="310"/>
      <point x="450" y="304"/>
      <point x="450" y="304" type="qcurve" smooth="yes"/>
      <point x="450" y="297"/>
      <point x="429" y="294"/>
      <point x="413" y="293" type="qcurve" smooth="yes"/>
      <point x="400" y="292"/>
      <point x="380" y="284"/>
      <point x="366" y="278" type="qcurve" smooth="yes"/>
      <point x="328" y="256"/>
      <point x="259" y="214"/>
      <point x="227" y="179" type="qcurve" smooth="yes"/>
      <point x="220" y="171"/>
      <point x="206" y="149"/>
      <point x="198" y="136" type="qcurve" smooth="yes"/>
      <point x="193" y="131"/>
      <point x="183" y="97"/>
      <point x="176" y="66"/>
      <point x="176" y="63" type="qcurve" smooth="yes"/>
      <point x="176" y="63"/>
      <point x="170" y="44"/>
      <point x="163" y="35" type="qcurve" smooth="yes"/>
      <point x="151" y="19"/>
      <point x="135" y="19"/>
    </contour>
  </outline>
</glyph>
<glyph name="t" format="2">
  <advance width="331"/>
  <unicode hex="0074"/>
  <anchor x="164" y="-110" name="Anchor-1"/>
  <outline>
    <contour>
      <point x="179" y="7" type="qcurve" smooth="yes"/>
      <point x="168" y="9"/>
      <point x="145" y="28"/>
      <point x="128" y="53"/>
      <point x="125" y="63" type="qcurve" smooth="yes"/>
      <point x="125" y="65"/>
      <point x="120" y="71"/>
      <point x="120" y="71" type="qcurve" smooth="yes"/>
      <point x="116" y="74"/>
      <point x="115" y="121"/>
      <point x="121" y="179"/>
      <point x="125" y="196" type="qcurve" smooth="yes"/>
      <point x="130" y="212"/>
      <point x="150" y="267"/>
      <point x="157" y="289" type="qcurve" smooth="yes"/>
      <point x="184" y="347" type="line"/>
      <point x="144" y="358" type="line" smooth="yes"/>
      <point x="137" y="360"/>
      <point x="128" y="372"/>
      <point x="128" y="376" type="qcurve" smooth="yes"/>
      <point x="128" y="384"/>
      <point x="146" y="407"/>
      <point x="150" y="407" type="qcurve" smooth="yes"/>
      <point x="155" y="406"/>
      <point x="182" y="406"/>
      <point x="208" y="408"/>
      <point x="211" y="409" type="qcurve" smooth="yes"/>
      <point x="215" y="411"/>
      <point x="223" y="418"/>
      <point x="225" y="425" type="qcurve" smooth="yes"/>
      <point x="230" y="436"/>
      <point x="238" y="455"/>
      <point x="245" y="467" type="qcurve" smooth="yes"/>
      <point x="252" y="480"/>
      <point x="261" y="498"/>
      <point x="271" y="514" type="qcurve" smooth="yes"/>
      <point x="276" y="521"/>
      <point x="288" y="541"/>
      <point x="297" y="548" type="qcurve" smooth="yes"/>
      <point x="306" y="556"/>
      <point x="325" y="555"/>
      <point x="340" y="542" type="qcurve" smooth="yes"/>
      <point x="348" y="532"/>
      <point x="350" y="522"/>
      <point x="341" y="508" type="qcurve" smooth="yes"/>
      <point x="333" y="491"/>
      <point x="312" y="457"/>
      <point x="303" y="440" type="qcurve" smooth="yes"/>
      <point x="287" y="418"/>
      <point x="307" y="412"/>
      <point x="353" y="419" type="qcurve" smooth="yes"/>
      <point x="382" y="424"/>
      <point x="408" y="409"/>
      <point x="410" y="392" type="qcurve" smooth="yes"/>
      <point x="413" y="368"/>
      <point x="397" y="358"/>
      <point x="359" y="358" type="qcurve"/>
      <point x="335" y="354"/>
      <point x="301" y="353"/>
      <point x="293" y="353" type="qcurve" smooth="yes"/>
      <point x="280" y="352"/>
      <point x="272" y="352"/>
      <point x="264" y="350" type="qcurve" smooth="yes"/>
      <point x="256" y="348"/>
      <point x="249" y="339"/>
      <point x="245" y="331" type="qcurve" smooth="yes"/>
      <point x="241" y="327"/>
      <point x="225" y="293"/>
      <point x="213" y="273" type="qcurve"/>
      <point x="199" y="231"/>
      <point x="179" y="148"/>
      <point x="173" y="109" type="qcurve" smooth="yes"/>
      <point x="169" y="84"/>
      <point x="179" y="65"/>
      <point x="200" y="63" type="qcurve" smooth="yes"/>
      <point x="211" y="62"/>
      <point x="260" y="65"/>
      <point x="274" y="69" type="qcurve" smooth="yes"/>
      <point x="285" y="74"/>
      <point x="309" y="85"/>
      <point x="319" y="91" type="qcurve" smooth="yes"/>
      <point x="328" y="96"/>
      <point x="346" y="107"/>
      <point x="346" y="107" type="qcurve"/>
      <point x="351" y="115"/>
      <point x="363" y="109"/>
      <point x="367" y="97" type="qcurve" smooth="yes"/>
      <point x="367" y="85"/>
      <point x="357" y="59"/>
      <point x="325" y="41" type="qcurve" smooth="yes"/>
      <point x="280" y="13"/>
      <point x="205" y="2"/>
    </contour>
  </outline>
</glyph>
<glyph name="w" format="2">
  <advance width="517"/>
  <unicode hex="0077"/>
  <anchor x="463" y="560" name="Anchor-0"/>
  <outline>
    <contour>
      <point x="177" y="45" type="qcurve" smooth="yes"/>
      <point x="162" y="45"/>
      <point x="137" y="82"/>
      <point x="126" y="141"/>
      <point x="128" y="173" type="qcurve" smooth="yes"/>
      <point x="128" y="205"/>
      <point x="135" y="244"/>
      <point x="139" y="263" type="qcurve" smooth="yes"/>
      <point x="142" y="269"/>
      <point x="143" y="277"/>
      <point x="146" y="295"/>
      <point x="151" y="316" type="qcurve" smooth="yes"/>
      <point x="155" y="333"/>
      <point x="163" y="355"/>
      <point x="167" y="359" type="qcurve" smooth="yes"/>
      <point x="172" y="365"/>
      <point x="188" y="368"/>
      <point x="204" y="362"/>
      <point x="209" y="354" type="qcurve" smooth="yes"/>
      <point x="215" y="349"/>
      <point x="216" y="314"/>
      <point x="210" y="277"/>
      <point x="204" y="269" type="qcurve" smooth="yes"/>
      <point x="202" y="264"/>
      <point x="197" y="222"/>
      <point x="192" y="176"/>
      <point x="189" y="162" type="qcurve" smooth="yes"/>
      <point x="186" y="144"/>
      <point x="199" y="122"/>
      <point x="236" y="143"/>
      <point x="267" y="188" type="qcurve" smooth="yes"/>
      <point x="288" y="218"/>
      <point x="310" y="256"/>
      <point x="323" y="289"/>
      <point x="330" y="308" type="qcurve" smooth="yes"/>
      <point x="335" y="324"/>
      <point x="344" y="345"/>
      <point x="348" y="348" type="qcurve" smooth="yes"/>
      <point x="355" y="353"/>
      <point x="374" y="351"/>
      <point x="386" y="343" type="qcurve" smooth="yes"/>
      <point x="398" y="331"/>
      <point x="398" y="298"/>
      <point x="386" y="274" type="qcurve" smooth="yes"/>
      <point x="378" y="258"/>
      <point x="363" y="208"/>
      <point x="354" y="157"/>
      <point x="354" y="141" type="qcurve" smooth="yes"/>
      <point x="354" y="121"/>
      <point x="365" y="114"/>
      <point x="373" y="114" type="qcurve" smooth="yes"/>
      <point x="385" y="114"/>
      <point x="419" y="132"/>
      <point x="440" y="154" type="qcurve" smooth="yes"/>
      <point x="449" y="163"/>
      <point x="475" y="198"/>
      <point x="500" y="237"/>
      <point x="517" y="267"/>
      <point x="517" y="271" type="qcurve" smooth="yes"/>
      <point x="517" y="277"/>
      <point x="526" y="288" type="qcurve" smooth="yes"/>
      <point x="532" y="296"/>
      <point x="539" y="305"/>
      <point x="549" y="310" type="qcurve" smooth="yes"/>
      <point x="557" y="314"/>
      <point x="569" y="309"/>
      <point x="576" y="301" type="qcurve" smooth="yes"/>
      <point x="581" y="297"/>
      <point x="582" y="281"/>
      <point x="582" y="269" type="qcurve" smooth="yes"/>
      <point x="579" y="258"/>
      <point x="566" y="223"/>
      <point x="551" y="192"/>
      <point x="546" y="186" type="qcurve" smooth="yes"/>
      <point x="542" y="182"/>
      <point x="522" y="161"/>
      <point x="514" y="149" type="qcurve" smooth="yes"/>
      <point x="489" y="119"/>
      <point x="467" y="101"/>
      <point x="459" y="93" type="qcurve" smooth="yes"/>
      <point x="438" y="72"/>
      <point x="392" y="51"/>
      <point x="351" y="51"/>
      <point x="337" y="61" type="qcurve" smooth="yes"/>
      <point x="306" y="77"/>
      <point x="306" y="115" type="qcurve" smooth="yes"/>
      <point x="306" y="123"/>
      <point x="301" y="136"/>
      <point x="301" y="136" type="qcurve" smooth="yes"/>
      <point x="297" y="136"/>
      <point x="284" y="132"/>
      <point x="277" y="120" type="qcurve" smooth="yes"/>
      <point x="268" y="103"/>
      <point x="229" y="68"/>
      <point x="189" y="45"/>
    </contour>
  </outline>
</glyph>
<glyph name="x" format="2">
  <advance width="343"/>
  <unicode hex="0078"/>
  <outline>
    <contour>
      <point x="391" y="3" type="qcurve" smooth="yes"/>
      <point x="387" y="3"/>
      <point x="374" y="5"/>
      <point x="370" y="9" type="qcurve" smooth="yes"/>
      <point x="366" y="9"/>
      <point x="346" y="15"/>
      <point x="338" y="19" type="qcurve" smooth="yes"/>
      <point x="328" y="23"/>
      <point x="294" y="48"/>
      <point x="260" y="78"/>
      <point x="237" y="104"/>
      <point x="237" y="110" type="qcurve" smooth="yes"/>
      <point x="237" y="115"/>
      <point x="232" y="115" type="qcurve" smooth="yes"/>
      <point x="232" y="115"/>
      <point x="226" y="122"/>
      <point x="226" y="126" type="qcurve" smooth="yes"/>
      <point x="226" y="136"/>
      <point x="216" y="136" type="qcurve"/>
      <point x="216" y="136"/>
      <point x="182" y="108"/>
      <point x="162" y="88" type="qcurve" smooth="yes"/>
      <point x="134" y="60"/>
      <point x="107" y="35"/>
      <point x="99" y="35" type="qcurve" smooth="yes"/>
      <point x="91" y="35"/>
      <point x="71" y="47"/>
      <point x="56" y="64"/>
      <point x="56" y="72" type="qcurve"/>
      <point x="56" y="72"/>
      <point x="97" y="118"/>
      <point x="125" y="142" type="qcurve" smooth="yes"/>
      <point x="189" y="205" type="line"/>
      <point x="178" y="243" type="line" smooth="yes"/>
      <point x="171" y="259"/>
      <point x="156" y="294"/>
      <point x="152" y="306" type="qcurve" smooth="yes"/>
      <point x="140" y="323"/>
      <point x="139" y="332"/>
      <point x="147" y="344" type="qcurve"/>
      <point x="147" y="344" type="line"/>
      <point x="147" y="344" type="line"/>
      <point x="155" y="352"/>
      <point x="166" y="357"/>
      <point x="178" y="349" type="qcurve" smooth="yes"/>
      <point x="184" y="349"/>
      <point x="204" y="316"/>
      <point x="221" y="277"/>
      <point x="221" y="269" type="qcurve" smooth="yes"/>
      <point x="221" y="253"/>
      <point x="245" y="259"/>
      <point x="269" y="275" type="qcurve" smooth="yes"/>
      <point x="281" y="286"/>
      <point x="295" y="301"/>
      <point x="295" y="301" type="qcurve" smooth="yes"/>
      <point x="298" y="304"/>
      <point x="328" y="325"/>
      <point x="360" y="347"/>
      <point x="365" y="349" type="qcurve" smooth="yes"/>
      <point x="373" y="355"/>
      <point x="393" y="344"/>
      <point x="407" y="323"/>
      <point x="407" y="312" type="qcurve" smooth="yes"/>
      <point x="407" y="300"/>
      <point x="395" y="286"/>
      <point x="375" y="275" type="qcurve" smooth="yes"/>
      <point x="357" y="262"/>
      <point x="330" y="242"/>
      <point x="301" y="219"/>
      <point x="279" y="200" type="qcurve" smooth="yes"/>
      <point x="253" y="179" type="line"/>
      <point x="269" y="152" type="line" smooth="yes"/>
      <point x="273" y="145"/>
      <point x="288" y="119"/>
      <point x="295" y="115" type="qcurve" smooth="yes"/>
      <point x="301" y="107"/>
      <point x="335" y="79"/>
      <point x="368" y="56"/>
      <point x="370" y="56" type="qcurve" smooth="yes"/>
      <point x="374" y="56"/>
      <point x="384" y="50"/>
      <point x="391" y="46" type="qcurve" smooth="yes"/>
      <point x="399" y="38"/>
      <point x="404" y="18"/>
      <point x="399" y="3"/>
    </contour>
  </outline>
</glyph>
<glyph name="y" format="2">
  <advance width="341"/>
  <unicode hex="0079"/>
  <anchor x="339" y="560" name="Anchor-0"/>
  <outline>
    <contour>
      <point x="79" y="-199" type="qcurve" smooth="yes"/>
      <point x="55" y="-206"/>
      <point x="-2" y="-197"/>
      <point x="-45" y="-171"/>
      <point x="-48" y="-155" type="qcurve" smooth="yes"/>
      <point x="-49" y="-149"/>
      <point x="-40" y="-135"/>
      <point x="-27" y="-130"/>
      <point x="-22" y="-136" type="qcurve" smooth="yes"/>
      <point x="-14" y="-141"/>
      <point x="28" y="-156"/>
      <point x="54" y="-151" type="qcurve" smooth="yes"/>
      <point x="77" y="-146"/>
      <point x="122" y="-102"/>
      <point x="136" y="-83" type="qcurve" smooth="yes"/>
      <point x="144" y="-71"/>
      <point x="182" y="-9"/>
      <point x="223" y="66"/>
      <point x="237" y="98" type="qcurve" smooth="yes"/>
      <point x="240" y="106"/>
      <point x="248" y="128"/>
      <point x="254" y="135" type="qcurve" smooth="yes"/>
      <point x="260" y="147"/>
      <point x="269" y="168"/>
      <point x="270" y="172" type="qcurve" smooth="yes"/>
      <point x="271" y="177"/>
      <point x="287" y="207"/>
      <point x="294" y="222" type="qcurve" smooth="yes"/>
      <point x="299" y="237"/>
      <point x="319" y="295"/>
      <point x="329" y="313" type="qcurve" smooth="yes"/>
      <point x="341" y="336"/>
      <point x="356" y="365"/>
      <point x="365" y="368" type="qcurve"/>
      <point x="365" y="368" type="line"/>
      <point x="365" y="368" type="line"/>
      <point x="374" y="375"/>
      <point x="381" y="375"/>
      <point x="392" y="369" type="qcurve" smooth="yes"/>
      <point x="404" y="357"/>
      <point x="410" y="334"/>
      <point x="399" y="301"/>
      <point x="384" y="273" type="qcurve"/>
      <point x="376" y="249"/>
      <point x="357" y="210"/>
      <point x="352" y="204" type="qcurve" smooth="yes"/>
      <point x="347" y="192"/>
      <point x="334" y="163"/>
      <point x="329" y="151" type="qcurve" smooth="yes"/>
      <point x="311" y="111"/>
      <point x="285" y="61"/>
      <point x="265" y="19"/>
      <point x="254" y="-9" type="qcurve"/>
      <point x="231" y="-46"/>
      <point x="188" y="-113"/>
      <point x="164" y="-142" type="qcurve" smooth="yes"/>
      <point x="154" y="-151"/>
      <point x="124" y="-175"/>
      <point x="93" y="-195"/>
    </contour>
    <contour>
      <point x="214" y="41" type="qcurve" smooth="yes"/>
      <point x="199" y="43"/>
      <point x="170" y="75"/>
      <point x="154" y="111"/>
      <point x="156" y="119" type="qcurve" smooth="yes"/>
      <point x="156" y="124"/>
      <point x="156" y="130"/>
      <point x="156" y="130" type="qcurve"/>
      <point x="150" y="130"/>
      <point x="141" y="160"/>
      <point x="137" y="208"/>
      <point x="136" y="262"/>
      <point x="138" y="286" type="qcurve" smooth="yes"/>
      <point x="142" y="303"/>
      <point x="142" y="344"/>
      <point x="143" y="356" type="qcurve" smooth="yes"/>
      <point x="142" y="372"/>
      <point x="150" y="383"/>
      <point x="154" y="386" type="qcurve"/>
      <point x="154" y="386" type="line"/>
      <point x="154" y="386" type="line"/>
      <point x="182" y="398"/>
      <point x="201" y="345"/>
      <point x="196" y="273" type="qcurve" smooth="yes"/>
      <point x="194" y="233"/>
      <point x="198" y="153"/>
      <point x="217" y="93"/>
      <point x="234" y="82" type="qcurve" smooth="yes"/>
      <point x="241" y="78"/>
      <point x="241" y="64"/>
      <point x="233" y="49"/>
      <point x="220" y="40"/>
    </contour>
  </outline>
</glyph>
<glyph name="braceleft" format="2">
  <advance width="330"/>
  <unicode hex="007B"/>
  <outline>
    <contour>
      <point x="176" y="-127" type="qcurve"/>
      <point x="167" y="-113"/>
      <point x="167" y="-119" type="qcurve"/>
      <point x="167" y="-119"/>
      <point x="156" y="-113"/>
      <point x="151" y="-106" type="qcurve" smooth="yes"/>
      <point x="143" y="-95"/>
      <point x="140" y="-74"/>
      <point x="141" y="-58" type="qcurve" smooth="yes"/>
      <point x="141" y="-48"/>
      <point x="141" y="-30"/>
      <point x="141" y="-30" type="qcurve"/>
      <point x="146" y="-25"/>
      <point x="148" y="-11"/>
      <point x="149" y="-4" type="qcurve" smooth="yes"/>
      <point x="151" y="4"/>
      <point x="168" y="54"/>
      <point x="188" y="111"/>
      <point x="196" y="127" type="qcurve" smooth="yes"/>
      <point x="207" y="148"/>
      <point x="223" y="191"/>
      <point x="223" y="201" type="qcurve" smooth="yes"/>
      <point x="223" y="217"/>
      <point x="196" y="239"/>
      <point x="173" y="243" type="qcurve"/>
      <point x="143" y="243"/>
      <point x="153" y="272" type="qcurve" smooth="yes"/>
      <point x="157" y="284"/>
      <point x="182" y="298"/>
      <point x="195" y="294" type="qcurve"/>
      <point x="210" y="294"/>
      <point x="249" y="324"/>
      <point x="284" y="374"/>
      <point x="293" y="404" type="qcurve" smooth="yes"/>
      <point x="305" y="436"/>
      <point x="317" y="497"/>
      <point x="321" y="546" type="qcurve" smooth="yes"/>
      <point x="324" y="585"/>
      <point x="339" y="638"/>
      <point x="368" y="681"/>
      <point x="392" y="704" type="qcurve" smooth="yes"/>
      <point x="406" y="722"/>
      <point x="436" y="738"/>
      <point x="447" y="744" type="qcurve" smooth="yes"/>
      <point x="467" y="752"/>
      <point x="507" y="752"/>
      <point x="514" y="747" type="qcurve" smooth="yes"/>
      <point x="519" y="745"/>
      <point x="530" y="727"/>
      <point x="537" y="709"/>
      <point x="534" y="707" type="qcurve" smooth="yes"/>
      <point x="529" y="707"/>
      <point x="513" y="702"/>
      <point x="498" y="702" type="qcurve" smooth="yes"/>
      <point x="479" y="698"/>
      <point x="446" y="680"/>
      <point x="426" y="663" type="qcurve"/>
      <point x="410" y="642"/>
      <point x="392" y="616"/>
      <point x="390" y="597" type="qcurve"/>
      <point x="383" y="579"/>
      <point x="377" y="557"/>
      <point x="373" y="527"/>
      <point x="370" y="498" type="qcurve" smooth="yes"/>
      <point x="367" y="468"/>
      <point x="363" y="434"/>
      <point x="355" y="404"/>
      <point x="345" y="381" type="qcurve" smooth="yes"/>
      <point x="332" y="344"/>
      <point x="299" y="290"/>
      <point x="276" y="270" type="qcurve" smooth="yes"/>
      <point x="259" y="260"/>
      <point x="256" y="252"/>
      <point x="265" y="241" type="qcurve" smooth="yes"/>
      <point x="265" y="237"/>
      <point x="275" y="218"/>
      <point x="275" y="208" type="qcurve"/>
      <point x="282" y="192"/>
      <point x="270" y="145"/>
      <point x="246" y="92" type="qcurve" smooth="yes"/>
      <point x="239" y="77"/>
      <point x="227" y="45"/>
      <point x="227" y="37" type="qcurve"/>
      <point x="222" y="30"/>
      <point x="212" y="-4"/>
      <point x="208" y="-18" type="qcurve" smooth="yes"/>
      <point x="204" y="-39"/>
      <point x="198" y="-67"/>
      <point x="198" y="-70" type="qcurve" smooth="yes"/>
      <point x="198" y="-89"/>
      <point x="243" y="-82" type="qcurve" smooth="yes"/>
      <point x="260" y="-77"/>
      <point x="272" y="-79"/>
      <point x="279" y="-88" type="qcurve" smooth="yes"/>
      <point x="290" y="-98"/>
      <point x="281" y="-114"/>
      <point x="259" y="-121" type="qcurve" smooth="yes"/>
      <point x="244" y="-129"/>
      <point x="211" y="-135"/>
      <point x="184" y="-132"/>
    </contour>
  </outline>
</glyph>
<glyph name="braceright" format="2">
  <advance width="330"/>
  <unicode hex="007D"/>
  <outline>
    <contour>
      <point x="141" y="-111" type="qcurve" smooth="yes"/>
      <point x="114" y="-112"/>
      <point x="78" y="-98"/>
      <point x="78" y="-87" type="qcurve" smooth="yes"/>
      <point x="78" y="-82"/>
      <point x="84" y="-76"/>
      <point x="84" y="-76" type="qcurve"/>
      <point x="89" y="-80"/>
      <point x="91" y="-80"/>
      <point x="91" y="-76" type="qcurve" smooth="yes"/>
      <point x="91" y="-76"/>
      <point x="111" y="-70"/>
      <point x="128" y="-63" type="qcurve"/>
      <point x="157" y="-58"/>
      <point x="186" y="-44"/>
      <point x="199" y="-16"/>
      <point x="204" y="9" type="qcurve" smooth="yes"/>
      <point x="207" y="21"/>
      <point x="212" y="42"/>
      <point x="212" y="46" type="qcurve" smooth="yes"/>
      <point x="212" y="49"/>
      <point x="215" y="108"/>
      <point x="213" y="147" type="qcurve" smooth="yes"/>
      <point x="211" y="191"/>
      <point x="210" y="232"/>
      <point x="215" y="251"/>
      <point x="220" y="261" type="qcurve" smooth="yes"/>
      <point x="228" y="269"/>
      <point x="231" y="284"/>
      <point x="229" y="294" type="qcurve" smooth="yes"/>
      <point x="221" y="314"/>
      <point x="225" y="347"/>
      <point x="233" y="353" type="qcurve" smooth="yes"/>
      <point x="250" y="372"/>
      <point x="271" y="394"/>
      <point x="288" y="417"/>
      <point x="297" y="435" type="qcurve" smooth="yes"/>
      <point x="323" y="476"/>
      <point x="361" y="557"/>
      <point x="368" y="587" type="qcurve" smooth="yes"/>
      <point x="368" y="591"/>
      <point x="368" y="597"/>
      <point x="368" y="597" type="qcurve"/>
      <point x="372" y="606"/>
      <point x="365" y="634"/>
      <point x="354" y="649" type="qcurve" smooth="yes"/>
      <point x="346" y="665"/>
      <point x="322" y="681"/>
      <point x="296" y="688" type="qcurve" smooth="yes"/>
      <point x="280" y="691"/>
      <point x="278" y="712"/>
      <point x="287" y="722" type="qcurve" smooth="yes"/>
      <point x="291" y="730"/>
      <point x="312" y="734"/>
      <point x="333" y="729"/>
      <point x="337" y="724" type="qcurve" smooth="yes"/>
      <point x="345" y="716"/>
      <point x="352" y="716" type="qcurve" smooth="yes"/>
      <point x="355" y="716"/>
      <point x="377" y="697"/>
      <point x="401" y="671"/>
      <point x="406" y="661" type="qcurve" smooth="yes"/>
      <point x="410" y="658"/>
      <point x="417" y="631"/>
      <point x="418" y="619" type="qcurve" smooth="yes"/>
      <point x="421" y="607"/>
      <point x="422" y="590"/>
      <point x="417" y="569"/>
      <point x="410" y="549" type="qcurve" smooth="yes"/>
      <point x="396" y="503"/>
      <point x="373" y="442"/>
      <point x="368" y="437" type="qcurve" smooth="yes"/>
      <point x="364" y="434"/>
      <point x="357" y="432"/>
      <point x="357" y="428" type="qcurve" smooth="yes"/>
      <point x="357" y="424"/>
      <point x="339" y="391"/>
      <point x="316" y="356"/>
      <point x="307" y="347" type="qcurve" smooth="yes"/>
      <point x="303" y="343"/>
      <point x="296" y="328"/>
      <point x="296" y="328" type="qcurve"/>
      <point x="296" y="328"/>
      <point x="294" y="327"/>
      <point x="289" y="324" type="qcurve" smooth="yes"/>
      <point x="282" y="320"/>
      <point x="282" y="305"/>
      <point x="289" y="289" type="qcurve" smooth="yes"/>
      <point x="291" y="280"/>
      <point x="299" y="266"/>
      <point x="303" y="258" type="qcurve"/>
      <point x="303" y="244"/>
      <point x="298" y="244" type="qcurve" smooth="yes"/>
      <point x="285" y="237"/>
      <point x="272" y="221"/>
      <point x="270" y="177"/>
      <point x="271" y="127" type="qcurve" smooth="yes"/>
      <point x="272" y="106"/>
      <point x="270" y="58"/>
      <point x="267" y="21"/>
      <point x="264" y="15" type="qcurve" smooth="yes"/>
      <point x="257" y="-15"/>
      <point x="246" y="-55"/>
      <point x="241" y="-55" type="qcurve" smooth="yes"/>
      <point x="241" y="-55"/>
      <point x="237" y="-56"/>
      <point x="238" y="-59" type="qcurve" smooth="yes"/>
      <point x="238" y="-73"/>
      <point x="210" y="-96"/>
      <point x="166" y="-110"/>
    </contour>
  </outline>
</glyph>
<glyph name="asciitilde" format="2">
  <advance width="446"/>
  <unicode hex="007E"/>
  <outline>
    <contour>
      <point x="357" y="201" type="qcurve" smooth="yes"/>
      <point x="335" y="201"/>
      <point x="298" y="216"/>
      <point x="279" y="229" type="qcurve" smooth="yes"/>
      <point x="269" y="235"/>
      <point x="242" y="258"/>
      <point x="222" y="265" type="qcurve" smooth="yes"/>
      <point x="206" y="270"/>
      <point x="183" y="253"/>
      <point x="161" y="232"/>
      <point x="147" y="230" type="qcurve"/>
      <point x="146" y="224"/>
      <point x="131" y="209"/>
      <point x="127" y="214" type="qcurve" smooth="yes"/>
      <point x="116" y="217"/>
      <point x="102" y="232"/>
      <point x="103" y="237" type="qcurve" smooth="yes"/>
      <point x="104" y="243"/>
      <point x="124" y="269"/>
      <point x="167" y="299"/>
      <point x="200" y="311" type="qcurve"/>
      <point x="220" y="314"/>
      <point x="266" y="300"/>
      <point x="283" y="283" type="qcurve" smooth="yes"/>
      <point x="306" y="262"/>
      <point x="344" y="243"/>
      <point x="363" y="251" type="qcurve" smooth="yes"/>
      <point x="371" y="252"/>
      <point x="406" y="264"/>
      <point x="410" y="266" type="qcurve" smooth="yes"/>
      <point x="436" y="273" type="line" smooth="yes"/>
      <point x="438" y="275"/>
      <point x="444" y="281"/>
      <point x="448" y="282" type="qcurve" smooth="yes"/>
      <point x="449" y="285"/>
      <point x="462" y="286" type="qcurve" smooth="yes"/>
      <point x="476" y="291"/>
      <point x="482" y="278"/>
      <point x="480" y="268" type="qcurve" smooth="yes"/>
      <point x="480" y="264"/>
      <point x="473" y="250"/>
      <point x="464" y="239" type="qcurve"/>
      <point x="444" y="230" type="line" smooth="yes"/>
      <point x="430" y="227"/>
      <point x="399" y="211"/>
      <point x="389" y="207" type="qcurve" smooth="yes"/>
      <point x="371" y="201"/>
    </contour>
  </outline>
</glyph>
<glyph name="section" format="2">
  <advance width="385"/>
  <unicode hex="00A7"/>
  <outline>
    <contour>
      <point x="331" y="189" type="qcurve" smooth="yes"/>
      <point x="293" y="179"/>
      <point x="231" y="201"/>
      <point x="216" y="224" type="qcurve" smooth="yes"/>
      <point x="209" y="238"/>
      <point x="209" y="249"/>
      <point x="216" y="253" type="qcurve" smooth="yes"/>
      <point x="224" y="254"/>
      <point x="237" y="251"/>
      <point x="248" y="247" type="qcurve"/>
      <point x="263" y="234"/>
      <point x="306" y="237"/>
      <point x="342" y="258"/>
      <point x="344" y="271" type="qcurve"/>
      <point x="338" y="273"/>
      <point x="330" y="292"/>
      <point x="326" y="303" type="qcurve"/>
      <point x="258" y="380"/>
      <point x="258" y="432" type="qcurve"/>
      <point x="254" y="444"/>
      <point x="260" y="472"/>
      <point x="274" y="501"/>
      <point x="283" y="513" type="qcurve" smooth="yes"/>
      <point x="309" y="542"/>
      <point x="373" y="592"/>
      <point x="400" y="605" type="qcurve"/>
      <point x="411" y="605"/>
      <point x="447" y="605"/>
      <point x="454" y="603" type="qcurve" smooth="yes"/>
      <point x="461" y="601"/>
      <point x="478" y="584"/>
      <point x="491" y="561"/>
      <point x="493" y="550" type="qcurve" smooth="yes"/>
      <point x="493" y="543"/>
      <point x="488" y="520"/>
      <point x="484" y="503" type="qcurve" smooth="yes"/>
      <point x="480" y="492"/>
      <point x="470" y="473"/>
      <point x="470" y="469" type="qcurve" smooth="yes"/>
      <point x="469" y="458"/>
      <point x="451" y="456"/>
      <point x="431" y="469"/>
      <point x="426" y="480" type="qcurve" smooth="yes"/>
      <point x="422" y="495"/>
      <point x="419" y="514"/>
      <point x="423" y="525" type="qcurve"/>
      <point x="434" y="538"/>
      <point x="434" y="546"/>
      <point x="423" y="544" type="qcurve" smooth="yes"/>
      <point x="416" y="544"/>
      <point x="380" y="523"/>
      <point x="343" y="491"/>
      <point x="331" y="474" type="qcurve" smooth="yes"/>
      <point x="319" y="460"/>
      <point x="312" y="443"/>
      <point x="313" y="429"/>
      <point x="313" y="418" type="qcurve" smooth="yes"/>
      <point x="313" y="409"/>
      <point x="323" y="383"/>
      <point x="336" y="364"/>
      <point x="341" y="363" type="qcurve" smooth="yes"/>
      <point x="341" y="363"/>
      <point x="357" y="336"/>
      <point x="373" y="321" type="qcurve"/>
      <point x="408" y="263"/>
      <point x="390" y="203"/>
    </contour>
    <contour>
      <point x="255" y="9" type="qcurve" smooth="yes"/>
      <point x="217" y="0"/>
      <point x="155" y="19"/>
      <point x="140" y="45" type="qcurve" smooth="yes"/>
      <point x="133" y="58"/>
      <point x="133" y="69"/>
      <point x="140" y="74" type="qcurve" smooth="yes"/>
      <point x="148" y="75"/>
      <point x="161" y="66"/>
      <point x="172" y="62" type="qcurve" smooth="yes"/>
      <point x="187" y="52"/>
      <point x="230" y="58"/>
      <point x="266" y="78"/>
      <point x="268" y="90" type="qcurve" smooth="yes"/>
      <point x="267" y="94"/>
      <point x="254" y="114"/>
      <point x="250" y="125" type="qcurve"/>
      <point x="217" y="157"/>
      <point x="182" y="230"/>
      <point x="182" y="254" type="qcurve"/>
      <point x="176" y="272"/>
      <point x="194" y="313"/>
      <point x="209" y="327" type="qcurve"/>
      <point x="226" y="353"/>
      <point x="269" y="389"/>
      <point x="288" y="405" type="qcurve"/>
      <point x="320" y="349" type="line"/>
      <point x="303" y="341"/>
      <point x="269" y="306"/>
      <point x="255" y="291" type="qcurve" smooth="yes"/>
      <point x="241" y="273"/>
      <point x="237" y="257"/>
      <point x="237" y="240" type="qcurve" smooth="yes"/>
      <point x="237" y="226"/>
      <point x="258" y="184"/>
      <point x="265" y="177" type="qcurve" smooth="yes"/>
      <point x="265" y="177"/>
      <point x="283" y="151"/>
      <point x="297" y="140" type="qcurve"/>
      <point x="332" y="79"/>
      <point x="314" y="20"/>
    </contour>
  </outline>
</glyph>
<glyph name="ordfeminine" format="2">
  <advance width="350"/>
  <unicode hex="00AA"/>
  <outline>
    <contour>
      <point x="229" y="324" type="qcurve" smooth="yes"/>
      <point x="219" y="324"/>
      <point x="203" y="329"/>
      <point x="197" y="333" type="qcurve" smooth="yes"/>
      <point x="195" y="334" type="line"/>
      <point x="189" y="346" type="line" smooth="yes"/>
      <point x="186" y="349"/>
      <point x="182" y="353"/>
      <point x="182" y="354" type="qcurve" smooth="yes"/>
      <point x="182" y="357"/>
      <point x="181" y="365"/>
      <point x="179" y="368" type="qcurve"/>
      <point x="180" y="368" type="line"/>
      <point x="175" y="373"/>
      <point x="184" y="412"/>
      <point x="207" y="468"/>
      <point x="221" y="499" type="qcurve" smooth="yes"/>
      <point x="226" y="504"/>
      <point x="234" y="518"/>
      <point x="238" y="525" type="qcurve" smooth="yes"/>
      <point x="244" y="535" type="line"/>
      <point x="243" y="534" type="line"/>
      <point x="243" y="536"/>
      <point x="248" y="542"/>
      <point x="251" y="543" type="qcurve" smooth="yes"/>
      <point x="251" y="549" type="line" smooth="yes"/>
      <point x="251" y="555"/>
      <point x="277" y="589"/>
      <point x="311" y="625"/>
      <point x="322" y="633" type="qcurve" smooth="yes"/>
      <point x="340" y="647"/>
      <point x="382" y="652"/>
      <point x="396" y="638" type="qcurve" smooth="yes"/>
      <point x="432" y="599" type="line"/>
      <point x="463" y="568" type="line"/>
      <point x="450" y="524" type="line" smooth="yes"/>
      <point x="446" y="512"/>
      <point x="443" y="490"/>
      <point x="443" y="480" type="qcurve" smooth="yes"/>
      <point x="443" y="460"/>
      <point x="456" y="422"/>
      <point x="463" y="406" type="qcurve" smooth="yes"/>
      <point x="471" y="391"/>
      <point x="494" y="387" type="qcurve" smooth="yes"/>
      <point x="502" y="385"/>
      <point x="517" y="376"/>
      <point x="517" y="366" type="qcurve" smooth="yes"/>
      <point x="517" y="358"/>
      <point x="507" y="345"/>
      <point x="497" y="343" type="qcurve" smooth="yes"/>
      <point x="470" y="339"/>
      <point x="419" y="381"/>
      <point x="401" y="417" type="qcurve" smooth="yes"/>
      <point x="399" y="421"/>
      <point x="391" y="437"/>
      <point x="389" y="444" type="qcurve"/>
      <point x="385" y="437"/>
      <point x="374" y="426"/>
      <point x="371" y="422" type="qcurve" smooth="yes"/>
      <point x="327" y="373"/>
      <point x="257" y="324"/>
    </contour>
    <contour>
      <point x="235" y="383" type="qcurve" smooth="yes"/>
      <point x="237" y="381"/>
      <point x="264" y="396"/>
      <point x="280" y="410" type="qcurve" smooth="yes"/>
      <point x="302" y="433"/>
      <point x="359" y="501"/>
      <point x="377" y="527" type="qcurve" smooth="yes"/>
      <point x="394" y="556" type="line"/>
      <point x="385" y="576"/>
      <point x="371" y="591"/>
      <point x="367" y="591" type="qcurve" smooth="yes"/>
      <point x="357" y="591"/>
      <point x="319" y="548"/>
      <point x="275" y="477"/>
      <point x="254" y="435" type="qcurve" smooth="yes"/>
      <point x="249" y="424"/>
      <point x="236" y="386"/>
    </contour>
  </outline>
</glyph>
<glyph name="logicalnot" format="2">
  <advance width="465"/>
  <unicode hex="00AC"/>
  <outline>
    <contour>
      <point x="478" y="137" type="qcurve" smooth="yes"/>
      <point x="468" y="127"/>
      <point x="449" y="124"/>
      <point x="438" y="138"/>
      <point x="440" y="153" type="qcurve" smooth="yes"/>
      <point x="435" y="216" type="line"/>
      <point x="432" y="255" type="line"/>
      <point x="403" y="253" type="line" smooth="yes"/>
      <point x="397" y="253"/>
      <point x="343" y="251"/>
      <point x="272" y="249"/>
      <point x="209" y="248"/>
      <point x="195" y="248" type="qcurve" smooth="yes"/>
      <point x="189" y="248"/>
      <point x="171" y="249"/>
      <point x="160" y="253" type="qcurve"/>
      <point x="145" y="253"/>
      <point x="135" y="260"/>
      <point x="131" y="267" type="qcurve" smooth="yes"/>
      <point x="120" y="282"/>
      <point x="138" y="293"/>
      <point x="175" y="297" type="qcurve" smooth="yes"/>
      <point x="192" y="301"/>
      <point x="259" y="306"/>
      <point x="337" y="309"/>
      <point x="407" y="311"/>
      <point x="427" y="311" type="qcurve" smooth="yes"/>
      <point x="453" y="311"/>
      <point x="471" y="307"/>
      <point x="482" y="296" type="qcurve" smooth="yes"/>
      <point x="502" y="275"/>
      <point x="490" y="263" type="qcurve"/>
      <point x="492" y="247"/>
      <point x="493" y="213"/>
      <point x="493" y="192" type="qcurve" smooth="yes"/>
      <point x="493" y="167"/>
      <point x="489" y="148"/>
    </contour>
  </outline>
</glyph>
<glyph name="uni00B3" format="2">
  <advance width="320"/>
  <unicode hex="00B3"/>
  <outline>
    <contour>
      <point x="294" y="310" type="qcurve" smooth="yes"/>
      <point x="263" y="310"/>
      <point x="212" y="332"/>
      <point x="213" y="349" type="qcurve" smooth="yes"/>
      <point x="214" y="364"/>
      <point x="226" y="367"/>
      <point x="247" y="365" type="qcurve" smooth="yes"/>
      <point x="272" y="359"/>
      <point x="329" y="369"/>
      <point x="378" y="394"/>
      <point x="391" y="409" type="qcurve" smooth="yes"/>
      <point x="408" y="428"/>
      <point x="408" y="449" type="qcurve" smooth="yes"/>
      <point x="408" y="459"/>
      <point x="398" y="479"/>
      <point x="387" y="486" type="qcurve" smooth="yes"/>
      <point x="375" y="497"/>
      <point x="321" y="514"/>
      <point x="304" y="515" type="qcurve" smooth="yes"/>
      <point x="297" y="513"/>
      <point x="285" y="515"/>
      <point x="274" y="522" type="qcurve" smooth="yes"/>
      <point x="270" y="527"/>
      <point x="263" y="538"/>
      <point x="261" y="541" type="qcurve" smooth="yes"/>
      <point x="257" y="547" type="line" smooth="yes"/>
      <point x="256" y="555"/>
      <point x="283" y="574"/>
      <point x="327" y="601" type="qcurve"/>
      <point x="332" y="603" type="line"/>
      <point x="331" y="603" type="line"/>
      <point x="337" y="607" type="line" smooth="yes"/>
      <point x="365" y="625"/>
      <point x="403" y="649"/>
      <point x="426" y="667"/>
      <point x="433" y="673" type="qcurve"/>
      <point x="432" y="673" type="line"/>
      <point x="442" y="687"/>
      <point x="443" y="700"/>
      <point x="431" y="704" type="qcurve" smooth="yes"/>
      <point x="414" y="706"/>
      <point x="382" y="707"/>
      <point x="378" y="702" type="qcurve"/>
      <point x="374" y="704"/>
      <point x="349" y="700"/>
      <point x="327" y="694"/>
      <point x="326" y="692" type="qcurve" smooth="yes"/>
      <point x="325" y="690"/>
      <point x="307" y="683"/>
      <point x="288" y="678"/>
      <point x="286" y="678" type="qcurve" smooth="yes"/>
      <point x="282" y="679"/>
      <point x="271" y="694"/>
      <point x="263" y="713"/>
      <point x="263" y="718" type="qcurve" smooth="yes"/>
      <point x="266" y="722"/>
      <point x="282" y="734"/>
      <point x="303" y="746"/>
      <point x="311" y="750" type="qcurve" smooth="yes"/>
      <point x="322" y="753"/>
      <point x="363" y="756"/>
      <point x="403" y="758"/>
      <point x="412" y="757" type="qcurve" smooth="yes"/>
      <point x="413" y="757" type="line"/>
      <point x="448" y="753"/>
      <point x="490" y="718"/>
      <point x="494" y="691" type="qcurve" smooth="yes"/>
      <point x="497" y="675"/>
      <point x="487" y="652"/>
      <point x="465" y="629" type="qcurve" smooth="yes"/>
      <point x="461" y="625" type="line"/>
      <point x="451" y="618" type="line" smooth="yes"/>
      <point x="443" y="612"/>
      <point x="421" y="597"/>
      <point x="409" y="589" type="qcurve" smooth="yes"/>
      <point x="398" y="582" type="line"/>
      <point x="391" y="577" type="line"/>
      <point x="383" y="570" type="line"/>
      <point x="376" y="565" type="line"/>
      <point x="363" y="555" type="line"/>
      <point x="380" y="542" type="line"/>
      <point x="400" y="532"/>
      <point x="439" y="493"/>
      <point x="447" y="481" type="qcurve" smooth="yes"/>
      <point x="452" y="469"/>
      <point x="457" y="448"/>
      <point x="457" y="437" type="qcurve" smooth="yes"/>
      <point x="457" y="409"/>
      <point x="427" y="363"/>
      <point x="397" y="342" type="qcurve" smooth="yes"/>
      <point x="377" y="329"/>
      <point x="320" y="312"/>
    </contour>
  </outline>
</glyph>
<glyph name="uni03BC.1" format="2">
  <advance width="370"/>
  <unicode hex="00B5"/>
  <outline>
    <contour>
      <point x="69" y="-173" type="qcurve" smooth="yes"/>
      <point x="62" y="-170"/>
      <point x="46" y="-156"/>
      <point x="36" y="-139"/>
      <point x="36" y="-133" type="qcurve" smooth="yes"/>
      <point x="36" y="-121"/>
      <point x="56" y="-58"/>
      <point x="83" y="27"/>
      <point x="110" y="120"/>
      <point x="118" y="162" type="qcurve" smooth="yes"/>
      <point x="123" y="185"/>
      <point x="140" y="241"/>
      <point x="158" y="281" type="qcurve" smooth="yes"/>
      <point x="179" y="322"/>
      <point x="201" y="361"/>
      <point x="204" y="365" type="qcurve" smooth="yes"/>
      <point x="209" y="367"/>
      <point x="217" y="368"/>
      <point x="220" y="367" type="qcurve" smooth="yes"/>
      <point x="228" y="366"/>
      <point x="240" y="355"/>
      <point x="241" y="345" type="qcurve" smooth="yes"/>
      <point x="244" y="340"/>
      <point x="243" y="323"/>
      <point x="236" y="299"/>
      <point x="223" y="269"/>
      <point x="214" y="252" type="qcurve" smooth="yes"/>
      <point x="200" y="218"/>
      <point x="177" y="150"/>
      <point x="173" y="102"/>
      <point x="187" y="97" type="qcurve" smooth="yes"/>
      <point x="192" y="94"/>
      <point x="211" y="95"/>
      <point x="236" y="108"/>
      <point x="251" y="121" type="qcurve" smooth="yes"/>
      <point x="268" y="137"/>
      <point x="307" y="194"/>
      <point x="325" y="237" type="qcurve" smooth="yes"/>
      <point x="333" y="257"/>
      <point x="341" y="288"/>
      <point x="342" y="307" type="qcurve"/>
      <point x="337" y="332"/>
      <point x="359" y="345" type="qcurve" smooth="yes"/>
      <point x="363" y="350"/>
      <point x="377" y="359"/>
      <point x="379" y="354" type="qcurve" smooth="yes"/>
      <point x="383" y="354"/>
      <point x="391" y="355"/>
      <point x="395" y="355" type="qcurve" smooth="yes"/>
      <point x="399" y="356"/>
      <point x="402" y="345"/>
      <point x="407" y="341" type="qcurve" smooth="yes"/>
      <point x="411" y="338"/>
      <point x="414" y="326"/>
      <point x="414" y="318" type="qcurve" smooth="yes"/>
      <point x="414" y="303"/>
      <point x="400" y="253"/>
      <point x="385" y="218" type="qcurve" smooth="yes"/>
      <point x="366" y="177"/>
      <point x="353" y="135"/>
      <point x="352" y="115" type="qcurve" smooth="yes"/>
      <point x="352" y="77"/>
      <point x="381" y="52" type="qcurve" smooth="yes"/>
      <point x="392" y="45"/>
      <point x="395" y="27"/>
      <point x="394" y="15" type="qcurve" smooth="yes"/>
      <point x="392" y="6"/>
      <point x="373" y="-5"/>
      <point x="349" y="-5"/>
      <point x="339" y="2" type="qcurve" smooth="yes"/>
      <point x="329" y="12"/>
      <point x="309" y="47"/>
      <point x="303" y="70" type="qcurve" smooth="yes"/>
      <point x="301" y="78"/>
      <point x="302" y="106"/>
      <point x="301" y="112" type="qcurve"/>
      <point x="298" y="105"/>
      <point x="285" y="90"/>
      <point x="279" y="85" type="qcurve" smooth="yes"/>
      <point x="275" y="81"/>
      <point x="247" y="58"/>
      <point x="233" y="51" type="qcurve" smooth="yes"/>
      <point x="202" y="32"/>
      <point x="161" y="25"/>
      <point x="144" y="43" type="qcurve"/>
      <point x="141" y="33"/>
      <point x="136" y="13"/>
      <point x="133" y="3" type="qcurve" smooth="yes"/>
      <point x="119" y="-40"/>
      <point x="99" y="-99"/>
      <point x="85" y="-137"/>
      <point x="77" y="-158"/>
      <point x="74" y="-164" type="qcurve" smooth="yes"/>
      <point x="73" y="-168"/>
      <point x="70" y="-171"/>
    </contour>
  </outline>
</glyph>
<glyph name="ordmasculine" format="2">
  <advance width="283"/>
  <unicode hex="00BA"/>
  <outline>
    <contour>
      <point x="250" y="313" type="qcurve" smooth="yes"/>
      <point x="237" y="313"/>
      <point x="221" y="325"/>
      <point x="209" y="337" type="qcurve" smooth="yes"/>
      <point x="196" y="353"/>
      <point x="186" y="383"/>
      <point x="189" y="401" type="qcurve" smooth="yes"/>
      <point x="191" y="406"/>
      <point x="189" y="419"/>
      <point x="189" y="419" type="qcurve"/>
      <point x="191" y="418" type="line"/>
      <point x="187" y="422"/>
      <point x="188" y="425"/>
      <point x="190" y="427" type="qcurve"/>
      <point x="188" y="426" type="line"/>
      <point x="188" y="427"/>
      <point x="190" y="428"/>
      <point x="190" y="429" type="qcurve" smooth="yes"/>
      <point x="196" y="431" type="line"/>
      <point x="196" y="431"/>
      <point x="194" y="437"/>
      <point x="193" y="439" type="qcurve" smooth="yes"/>
      <point x="194" y="446"/>
      <point x="201" y="473"/>
      <point x="214" y="505"/>
      <point x="221" y="518" type="qcurve" smooth="yes"/>
      <point x="226" y="527"/>
      <point x="245" y="556"/>
      <point x="268" y="585"/>
      <point x="278" y="594" type="qcurve" smooth="yes"/>
      <point x="298" y="613"/>
      <point x="329" y="631"/>
      <point x="348" y="636" type="qcurve"/>
      <point x="347" y="636" type="line"/>
      <point x="367" y="642"/>
      <point x="383" y="641"/>
      <point x="396" y="627" type="qcurve"/>
      <point x="413" y="617"/>
      <point x="434" y="589"/>
      <point x="436" y="566" type="qcurve" smooth="yes"/>
      <point x="438" y="540"/>
      <point x="426" y="471"/>
      <point x="394" y="418" type="qcurve" smooth="yes"/>
      <point x="374" y="387"/>
      <point x="338" y="356"/>
      <point x="315" y="339" type="qcurve"/>
      <point x="316" y="339" type="line"/>
      <point x="300" y="326"/>
      <point x="271" y="315"/>
    </contour>
    <contour>
      <point x="260" y="364" type="qcurve" smooth="yes"/>
      <point x="270" y="364"/>
      <point x="301" y="386"/>
      <point x="321" y="411" type="qcurve" smooth="yes"/>
      <point x="339" y="434"/>
      <point x="363" y="477"/>
      <point x="373" y="511" type="qcurve" smooth="yes"/>
      <point x="375" y="518"/>
      <point x="377" y="536"/>
      <point x="377" y="545" type="qcurve" smooth="yes"/>
      <point x="377" y="556"/>
      <point x="375" y="573"/>
      <point x="373" y="575" type="qcurve"/>
      <point x="374" y="575" type="line"/>
      <point x="366" y="580"/>
      <point x="342" y="576"/>
      <point x="328" y="562" type="qcurve" smooth="yes"/>
      <point x="306" y="541"/>
      <point x="269" y="470"/>
      <point x="252" y="427" type="qcurve" smooth="yes"/>
      <point x="249" y="417"/>
      <point x="244" y="397"/>
      <point x="244" y="391" type="qcurve" smooth="yes"/>
      <point x="244" y="364"/>
    </contour>
  </outline>
</glyph>
<glyph name="AE" format="2">
  <advance width="784"/>
  <unicode hex="00C6"/>
  <anchor x="717" y="785" name="Anchor-4"/>
  <outline>
    <contour>
      <point x="551" y="-48" type="qcurve" smooth="yes"/>
      <point x="511" y="-48"/>
      <point x="448" y="-39"/>
      <point x="422" y="-19" type="qcurve" smooth="yes"/>
      <point x="402" y="-3"/>
      <point x="384" y="39"/>
      <point x="389" y="103"/>
      <point x="401" y="150" type="qcurve" smooth="yes"/>
      <point x="404" y="167"/>
      <point x="413" y="198"/>
      <point x="417" y="206" type="qcurve"/>
      <point x="405" y="206" type="line" smooth="yes"/>
      <point x="386" y="203"/>
      <point x="311" y="206"/>
      <point x="261" y="209" type="qcurve"/>
      <point x="244" y="188" type="line" smooth="yes"/>
      <point x="241" y="184"/>
      <point x="215" y="150"/>
      <point x="204" y="129" type="qcurve" smooth="yes"/>
      <point x="194" y="110"/>
      <point x="165" y="60"/>
      <point x="149" y="41" type="qcurve" smooth="yes"/>
      <point x="128" y="10"/>
      <point x="108" y="-13"/>
      <point x="103" y="-13" type="qcurve" smooth="yes"/>
      <point x="94" y="-13"/>
      <point x="81" y="-11"/>
      <point x="73" y="-4" type="qcurve" smooth="yes"/>
      <point x="54" y="5"/>
      <point x="63" y="43"/>
      <point x="88" y="72" type="qcurve" smooth="yes"/>
      <point x="94" y="79"/>
      <point x="103" y="93"/>
      <point x="103" y="93" type="qcurve" smooth="yes"/>
      <point x="104" y="95"/>
      <point x="124" y="128"/>
      <point x="151" y="168"/>
      <point x="175" y="201"/>
      <point x="180" y="203" type="qcurve" smooth="yes"/>
      <point x="201" y="223"/>
      <point x="183" y="241" type="qcurve" smooth="yes"/>
      <point x="176" y="244"/>
      <point x="180" y="255"/>
      <point x="195" y="265"/>
      <point x="204" y="265" type="qcurve"/>
      <point x="214" y="270"/>
      <point x="223" y="274"/>
      <point x="223" y="278" type="qcurve" smooth="yes"/>
      <point x="224" y="280"/>
      <point x="242" y="309"/>
      <point x="267" y="348"/>
      <point x="292" y="383"/>
      <point x="300" y="392" type="qcurve" smooth="yes"/>
      <point x="315" y="420"/>
      <point x="329" y="439"/>
      <point x="335" y="448" type="qcurve" smooth="yes"/>
      <point x="341" y="453"/>
      <point x="365" y="487"/>
      <point x="376" y="503" type="qcurve"/>
      <point x="392" y="517"/>
      <point x="420" y="550"/>
      <point x="430" y="561" type="qcurve" smooth="yes"/>
      <point x="436" y="572"/>
      <point x="459" y="598"/>
      <point x="472" y="612" type="qcurve" smooth="yes"/>
      <point x="494" y="633"/>
      <point x="517" y="644"/>
      <point x="536" y="635" type="qcurve" smooth="yes"/>
      <point x="547" y="630"/>
      <point x="595" y="622"/>
      <point x="623" y="616" type="qcurve"/>
      <point x="641" y="623"/>
      <point x="687" y="635"/>
      <point x="709" y="636" type="qcurve" smooth="yes"/>
      <point x="715" y="640"/>
      <point x="756" y="644"/>
      <point x="810" y="644"/>
      <point x="833" y="642" type="qcurve" smooth="yes"/>
      <point x="855" y="642"/>
      <point x="881" y="630"/>
      <point x="894" y="624" type="qcurve" smooth="yes"/>
      <point x="899" y="619"/>
      <point x="904" y="605"/>
      <point x="906" y="594"/>
      <point x="906" y="594" type="qcurve" smooth="yes"/>
      <point x="906" y="591"/>
      <point x="880" y="588"/>
      <point x="839" y="587"/>
      <point x="817" y="587" type="qcurve" smooth="yes"/>
      <point x="793" y="587"/>
      <point x="744" y="581"/>
      <point x="708" y="575"/>
      <point x="701" y="575" type="qcurve" smooth="yes"/>
      <point x="687" y="571"/>
      <point x="666" y="569"/>
      <point x="666" y="569" type="qcurve" smooth="yes"/>
      <point x="664" y="569"/>
      <point x="643" y="538"/>
      <point x="618" y="497"/>
      <point x="599" y="462"/>
      <point x="599" y="459" type="qcurve" smooth="yes"/>
      <point x="599" y="449"/>
      <point x="583" y="425"/>
      <point x="572" y="409" type="qcurve" smooth="yes"/>
      <point x="562" y="396"/>
      <point x="556" y="375"/>
      <point x="565" y="371" type="qcurve"/>
      <point x="581" y="374"/>
      <point x="636" y="380"/>
      <point x="691" y="385"/>
      <point x="706" y="385" type="qcurve"/>
      <point x="723" y="390"/>
      <point x="745" y="384"/>
      <point x="750" y="381" type="qcurve" smooth="yes"/>
      <point x="762" y="379"/>
      <point x="772" y="368"/>
      <point x="771" y="358"/>
      <point x="764" y="355" type="qcurve" smooth="yes"/>
      <point x="758" y="349"/>
      <point x="710" y="333"/>
      <point x="646" y="317"/>
      <point x="581" y="304"/>
      <point x="535" y="296"/>
      <point x="531" y="297" type="qcurve" smooth="yes"/>
      <point x="525" y="311"/>
      <point x="520" y="282"/>
      <point x="500" y="238" type="qcurve" smooth="yes"/>
      <point x="489" y="213"/>
      <point x="472" y="168"/>
      <point x="461" y="119"/>
      <point x="455" y="88" type="qcurve" smooth="yes"/>
      <point x="448" y="61"/>
      <point x="455" y="28"/>
      <point x="487" y="13" type="qcurve"/>
      <point x="507" y="9"/>
      <point x="574" y="11"/>
      <point x="617" y="22" type="qcurve"/>
      <point x="635" y="33"/>
      <point x="665" y="46"/>
      <point x="672" y="50" type="qcurve" smooth="yes"/>
      <point x="677" y="50"/>
      <point x="698" y="55"/>
      <point x="702" y="55" type="qcurve" smooth="yes"/>
      <point x="706" y="60"/>
      <point x="715" y="66"/>
      <point x="722" y="66" type="qcurve" smooth="yes"/>
      <point x="724" y="66"/>
      <point x="739" y="51"/>
      <point x="753" y="33"/>
      <point x="752" y="30" type="qcurve" smooth="yes"/>
      <point x="752" y="20"/>
      <point x="708" y="0"/>
      <point x="658" y="-20" type="qcurve" smooth="yes"/>
      <point x="633" y="-31"/>
      <point x="602" y="-43"/>
      <point x="574" y="-48"/>
    </contour>
    <contour>
      <point x="298" y="261" type="qcurve" smooth="yes"/>
      <point x="298" y="261"/>
      <point x="347" y="266"/>
      <point x="375" y="265" type="qcurve" smooth="yes"/>
      <point x="394" y="267"/>
      <point x="425" y="266"/>
      <point x="435" y="266" type="qcurve"/>
      <point x="437" y="275"/>
      <point x="442" y="287"/>
      <point x="446" y="291" type="qcurve" smooth="yes"/>
      <point x="449" y="293"/>
      <point x="457" y="316"/>
      <point x="458" y="318" type="qcurve" smooth="yes"/>
      <point x="458" y="318"/>
      <point x="460" y="333"/>
      <point x="464" y="343" type="qcurve" smooth="yes"/>
      <point x="472" y="357"/>
      <point x="479" y="372"/>
      <point x="479" y="376" type="qcurve" smooth="yes"/>
      <point x="481" y="380"/>
      <point x="494" y="396"/>
      <point x="498" y="409" type="qcurve" smooth="yes"/>
      <point x="524" y="456"/>
      <point x="560" y="525"/>
      <point x="567" y="547" type="qcurve"/>
      <point x="554" y="549"/>
      <point x="524" y="551"/>
      <point x="507" y="551" type="qcurve" smooth="yes"/>
      <point x="505" y="554"/>
      <point x="480" y="532"/>
      <point x="447" y="498"/>
      <point x="419" y="466"/>
      <point x="414" y="458" type="qcurve" smooth="yes"/>
      <point x="410" y="453"/>
      <point x="381" y="411"/>
      <point x="364" y="387" type="qcurve" smooth="yes"/>
      <point x="334" y="348"/>
      <point x="302" y="294"/>
      <point x="293" y="264"/>
    </contour>
  </outline>
</glyph>
<glyph name="Eth" format="2">
  <advance width="578"/>
  <unicode hex="00D0"/>
  <anchor x="574" y="785" name="Anchor-4"/>
  <anchor x="280" y="-110" name="Anchor-1"/>
  <outline>
    <contour>
      <point x="225" y="-95" type="qcurve" smooth="yes"/>
      <point x="206" y="-98"/>
      <point x="174" y="-99"/>
      <point x="143" y="-91" type="qcurve" smooth="yes"/>
      <point x="133" y="-88"/>
      <point x="121" y="-80"/>
      <point x="109" y="-65"/>
      <point x="99" y="-53" type="qcurve" smooth="yes"/>
      <point x="83" y="-30"/>
      <point x="79" y="7"/>
      <point x="95" y="2" type="qcurve" smooth="yes"/>
      <point x="98" y="1"/>
      <point x="111" y="-10"/>
      <point x="117" y="-18" type="qcurve" smooth="yes"/>
      <point x="131" y="-33"/>
      <point x="171" y="-43"/>
      <point x="204" y="-39" type="qcurve" smooth="yes"/>
      <point x="218" y="-36"/>
      <point x="258" y="-25"/>
      <point x="296" y="-9"/>
      <point x="307" y="-1" type="qcurve" smooth="yes"/>
      <point x="360" y="35"/>
      <point x="424" y="77"/>
      <point x="424" y="77" type="qcurve" smooth="yes"/>
      <point x="426" y="81"/>
      <point x="437" y="86"/>
      <point x="445" y="89" type="qcurve" smooth="yes"/>
      <point x="451" y="95"/>
      <point x="478" y="121"/>
      <point x="503" y="147"/>
      <point x="506" y="149" type="qcurve" smooth="yes"/>
      <point x="508" y="158"/>
      <point x="512" y="169"/>
      <point x="512" y="175" type="qcurve"/>
      <point x="520" y="183"/>
      <point x="547" y="234"/>
      <point x="575" y="297"/>
      <point x="581" y="323" type="qcurve" smooth="yes"/>
      <point x="595" y="393"/>
      <point x="581" y="489"/>
      <point x="538" y="558"/>
      <point x="506" y="585" type="qcurve" smooth="yes"/>
      <point x="495" y="594"/>
      <point x="456" y="615"/>
      <point x="414" y="631"/>
      <point x="383" y="641"/>
      <point x="380" y="640" type="qcurve" smooth="yes"/>
      <point x="377" y="639"/>
      <point x="354" y="584"/>
      <point x="321" y="497"/>
      <point x="285" y="397"/>
      <point x="268" y="351" type="qcurve"/>
      <point x="286" y="351" type="line" smooth="yes"/>
      <point x="309" y="351"/>
      <point x="327" y="347"/>
      <point x="338" y="339" type="qcurve" smooth="yes"/>
      <point x="351" y="324"/>
      <point x="344" y="299"/>
      <point x="322" y="301" type="qcurve" smooth="yes"/>
      <point x="315" y="300"/>
      <point x="280" y="298"/>
      <point x="262" y="298" type="qcurve" smooth="yes"/>
      <point x="260" y="298"/>
      <point x="254" y="298"/>
      <point x="251" y="297" type="qcurve" smooth="yes"/>
      <point x="244" y="275"/>
      <point x="231" y="239"/>
      <point x="231" y="234" type="qcurve" smooth="yes"/>
      <point x="220" y="217"/>
      <point x="207" y="161"/>
      <point x="199" y="96" type="qcurve"/>
      <point x="190" y="62"/>
      <point x="182" y="27"/>
      <point x="178" y="28" type="qcurve" smooth="yes"/>
      <point x="174" y="24" type="line"/>
      <point x="174" y="18"/>
      <point x="158" y="18"/>
      <point x="137" y="27"/>
      <point x="131" y="33" type="qcurve"/>
      <point x="128" y="44"/>
      <point x="127" y="64"/>
      <point x="135" y="93" type="qcurve" smooth="yes"/>
      <point x="140" y="112"/>
      <point x="155" y="167"/>
      <point x="173" y="226"/>
      <point x="189" y="276"/>
      <point x="193" y="289" type="qcurve" smooth="yes"/>
      <point x="194" y="290"/>
      <point x="194" y="293"/>
      <point x="195" y="294" type="qcurve"/>
      <point x="180" y="294" type="line" smooth="yes"/>
      <point x="174" y="294"/>
      <point x="157" y="295"/>
      <point x="148" y="298" type="qcurve" smooth="yes"/>
      <point x="133" y="298"/>
      <point x="123" y="303"/>
      <point x="119" y="310" type="qcurve" smooth="yes"/>
      <point x="110" y="325"/>
      <point x="126" y="336"/>
      <point x="160" y="340" type="qcurve" smooth="yes"/>
      <point x="174" y="342"/>
      <point x="199" y="346"/>
      <point x="211" y="347" type="qcurve" smooth="yes"/>
      <point x="212" y="349"/>
      <point x="212" y="352"/>
      <point x="213" y="353" type="qcurve" smooth="yes"/>
      <point x="221" y="379"/>
      <point x="238" y="431"/>
      <point x="254" y="472"/>
      <point x="257" y="478" type="qcurve" smooth="yes"/>
      <point x="262" y="491"/>
      <point x="282" y="553"/>
      <point x="298" y="591" type="qcurve"/>
      <point x="305" y="624" type="line"/>
      <point x="294" y="629" type="line"/>
      <point x="282" y="625"/>
      <point x="269" y="628"/>
      <point x="267" y="629" type="qcurve" smooth="yes"/>
      <point x="261" y="627"/>
      <point x="239" y="637"/>
      <point x="222" y="653"/>
      <point x="220" y="659" type="qcurve" smooth="yes"/>
      <point x="218" y="663"/>
      <point x="217" y="676"/>
      <point x="217" y="676" type="qcurve" smooth="yes"/>
      <point x="218" y="684"/>
      <point x="266" y="698"/>
      <point x="335" y="705"/>
      <point x="369" y="702" type="qcurve" smooth="yes"/>
      <point x="395" y="700"/>
      <point x="441" y="682"/>
      <point x="468" y="672" type="qcurve" smooth="yes"/>
      <point x="500" y="660"/>
      <point x="571" y="601"/>
      <point x="630" y="521"/>
      <point x="640" y="477" type="qcurve" smooth="yes"/>
      <point x="643" y="465"/>
      <point x="649" y="421"/>
      <point x="650" y="380"/>
      <point x="645" y="374" type="qcurve" smooth="yes"/>
      <point x="643" y="370"/>
      <point x="642" y="359"/>
      <point x="646" y="357" type="qcurve" smooth="yes"/>
      <point x="645" y="354"/>
      <point x="633" y="315"/>
      <point x="628" y="301" type="qcurve" smooth="yes"/>
      <point x="626" y="275"/>
      <point x="606" y="219"/>
      <point x="582" y="170"/>
      <point x="572" y="153" type="qcurve" smooth="yes"/>
      <point x="568" y="153"/>
      <point x="561" y="150"/>
      <point x="565" y="149" type="qcurve" smooth="yes"/>
      <point x="565" y="145"/>
      <point x="560" y="138"/>
      <point x="554" y="130" type="qcurve" smooth="yes"/>
      <point x="550" y="127"/>
      <point x="533" y="104"/>
      <point x="528" y="100" type="qcurve"/>
      <point x="527" y="93"/>
      <point x="517" y="84"/>
      <point x="513" y="84" type="qcurve" smooth="yes"/>
      <point x="513" y="84"/>
      <point x="510" y="84"/>
      <point x="510" y="80" type="qcurve" smooth="yes"/>
      <point x="502" y="68"/>
      <point x="468" y="35"/>
      <point x="425" y="0"/>
      <point x="380" y="-30"/>
      <point x="360" y="-38" type="qcurve" smooth="yes"/>
      <point x="350" y="-45"/>
      <point x="328" y="-54"/>
      <point x="318" y="-59" type="qcurve" smooth="yes"/>
      <point x="313" y="-63"/>
      <point x="279" y="-78"/>
      <point x="240" y="-92"/>
    </contour>
  </outline>
</glyph>
<glyph name="Oslash" format="2">
  <advance width="496"/>
  <unicode hex="00D8"/>
  <anchor x="532" y="785" name="Anchor-4"/>
  <outline>
    <contour>
      <point x="132" y="-71" type="qcurve" smooth="yes"/>
      <point x="112" y="-70"/>
      <point x="98" y="-39"/>
      <point x="111" y="13"/>
      <point x="130" y="46" type="qcurve" smooth="yes"/>
      <point x="138" y="57"/>
      <point x="151" y="76"/>
      <point x="153" y="83" type="qcurve" smooth="yes"/>
      <point x="157" y="89"/>
      <point x="189" y="137"/>
      <point x="235" y="204"/>
      <point x="286" y="277"/>
      <point x="331" y="342"/>
      <point x="362" y="385"/>
      <point x="364" y="387" type="qcurve" smooth="yes"/>
      <point x="368" y="386"/>
      <point x="378" y="397"/>
      <point x="380" y="404" type="qcurve" smooth="yes"/>
      <point x="383" y="412"/>
      <point x="395" y="429"/>
      <point x="400" y="430" type="qcurve"/>
      <point x="402" y="435"/>
      <point x="411" y="446"/>
      <point x="412" y="450" type="qcurve" smooth="yes"/>
      <point x="413" y="454"/>
      <point x="420" y="460"/>
      <point x="421" y="464" type="qcurve" smooth="yes"/>
      <point x="431" y="474"/>
      <point x="471" y="521"/>
      <point x="517" y="579"/>
      <point x="561" y="635"/>
      <point x="590" y="675"/>
      <point x="592" y="680" type="qcurve" smooth="yes"/>
      <point x="597" y="695"/>
      <point x="613" y="689" type="qcurve" smooth="yes"/>
      <point x="616" y="691"/>
      <point x="625" y="691"/>
      <point x="629" y="690" type="qcurve" smooth="yes"/>
      <point x="629" y="690"/>
      <point x="633" y="681"/>
      <point x="639" y="670" type="qcurve" smooth="yes"/>
      <point x="645" y="660"/>
      <point x="643" y="643"/>
      <point x="638" y="632" type="qcurve" smooth="yes"/>
      <point x="634" y="619"/>
      <point x="622" y="601"/>
      <point x="593" y="571"/>
      <point x="563" y="539" type="qcurve" smooth="yes"/>
      <point x="548" y="522"/>
      <point x="522" y="497"/>
      <point x="522" y="493" type="qcurve" smooth="yes"/>
      <point x="520" y="489"/>
      <point x="508" y="476"/>
      <point x="501" y="465" type="qcurve" smooth="yes"/>
      <point x="495" y="459"/>
      <point x="471" y="434"/>
      <point x="447" y="405"/>
      <point x="429" y="384"/>
      <point x="429" y="382" type="qcurve" smooth="yes"/>
      <point x="427" y="379"/>
      <point x="424" y="371"/>
      <point x="418" y="369" type="qcurve" smooth="yes"/>
      <point x="415" y="371"/>
      <point x="410" y="360"/>
      <point x="410" y="360" type="qcurve" smooth="yes"/>
      <point x="410" y="356"/>
      <point x="393" y="331"/>
      <point x="379" y="314" type="qcurve" smooth="yes"/>
      <point x="368" y="298"/>
      <point x="329" y="240"/>
      <point x="280" y="167"/>
      <point x="230" y="91"/>
      <point x="186" y="23"/>
      <point x="157" y="-25"/>
      <point x="154" y="-34" type="qcurve" smooth="yes"/>
      <point x="147" y="-56"/>
      <point x="140" y="-69"/>
    </contour>
    <contour>
      <point x="175" y="-20" type="qcurve" smooth="yes"/>
      <point x="138" y="8"/>
      <point x="118" y="39"/>
      <point x="116" y="61" type="qcurve" smooth="yes"/>
      <point x="114" y="79"/>
      <point x="119" y="141"/>
      <point x="127" y="201"/>
      <point x="130" y="216" type="qcurve" smooth="yes"/>
      <point x="135" y="221"/>
      <point x="134" y="238"/>
      <point x="134" y="238" type="qcurve" smooth="yes"/>
      <point x="133" y="243"/>
      <point x="149" y="286"/>
      <point x="156" y="320" type="qcurve"/>
      <point x="176" y="380"/>
      <point x="213" y="461"/>
      <point x="249" y="519"/>
      <point x="267" y="543" type="qcurve" smooth="yes"/>
      <point x="308" y="585"/>
      <point x="358" y="628"/>
      <point x="389" y="642" type="qcurve" smooth="yes"/>
      <point x="409" y="654"/>
      <point x="443" y="668"/>
      <point x="454" y="663" type="qcurve" smooth="yes"/>
      <point x="510" y="651"/>
      <point x="566" y="584"/>
      <point x="579" y="514" type="qcurve" smooth="yes"/>
      <point x="586" y="470"/>
      <point x="589" y="399"/>
      <point x="575" y="330"/>
      <point x="538" y="248"/>
      <point x="505" y="193" type="qcurve"/>
      <point x="470" y="124"/>
      <point x="383" y="22"/>
      <point x="292" y="-37"/>
      <point x="207" y="-45"/>
    </contour>
    <contour>
      <point x="239" y="9" type="qcurve" smooth="yes"/>
      <point x="262" y="12"/>
      <point x="304" y="34"/>
      <point x="350" y="77"/>
      <point x="379" y="110" type="qcurve" smooth="yes"/>
      <point x="405" y="140"/>
      <point x="438" y="181"/>
      <point x="461" y="223"/>
      <point x="482" y="283"/>
      <point x="496" y="331" type="qcurve" smooth="yes"/>
      <point x="504" y="361"/>
      <point x="512" y="401"/>
      <point x="514" y="436"/>
      <point x="513" y="482"/>
      <point x="513" y="518" type="qcurve" smooth="yes"/>
      <point x="512" y="535"/>
      <point x="500" y="572"/>
      <point x="492" y="581" type="qcurve" smooth="yes"/>
      <point x="482" y="592"/>
      <point x="446" y="601"/>
      <point x="424" y="591" type="qcurve" smooth="yes"/>
      <point x="412" y="586"/>
      <point x="374" y="551"/>
      <point x="332" y="505"/>
      <point x="295" y="457"/>
      <point x="272" y="420"/>
      <point x="272" y="413" type="qcurve" smooth="yes"/>
      <point x="272" y="413"/>
      <point x="271" y="403"/>
      <point x="267" y="398" type="qcurve" smooth="yes"/>
      <point x="254" y="384"/>
      <point x="223" y="312"/>
      <point x="195" y="221"/>
      <point x="176" y="132"/>
      <point x="174" y="99" type="qcurve" smooth="yes"/>
      <point x="172" y="72"/>
      <point x="172" y="52"/>
      <point x="180" y="41"/>
      <point x="189" y="26" type="qcurve" smooth="yes"/>
      <point x="195" y="16"/>
      <point x="224" y="6"/>
    </contour>
  </outline>
</glyph>
<glyph name="germandbls" format="2">
  <advance width="398"/>
  <unicode hex="00DF"/>
  <outline>
    <contour>
      <point x="79" y="-213" type="qcurve" smooth="yes"/>
      <point x="63" y="-209"/>
      <point x="47" y="-185"/>
      <point x="44" y="-168" type="qcurve" smooth="yes"/>
      <point x="46" y="-166"/>
      <point x="44" y="-143"/>
      <point x="44" y="-139" type="qcurve" smooth="yes"/>
      <point x="49" y="-130"/>
      <point x="55" y="-98"/>
      <point x="54" y="-76" type="qcurve"/>
      <point x="60" y="-61"/>
      <point x="63" y="-37"/>
      <point x="63" y="-32" type="qcurve" smooth="yes"/>
      <point x="63" y="-32"/>
      <point x="71" y="2"/>
      <point x="83" y="50"/>
      <point x="96" y="96"/>
      <point x="100" y="109" type="qcurve" smooth="yes"/>
      <point x="103" y="123"/>
      <point x="111" y="156"/>
      <point x="115" y="162" type="qcurve" smooth="yes"/>
      <point x="120" y="176"/>
      <point x="130" y="208"/>
      <point x="141" y="237" type="qcurve" smooth="yes"/>
      <point x="140" y="245"/>
      <point x="150" y="281"/>
      <point x="168" y="323"/>
      <point x="178" y="338" type="qcurve"/>
      <point x="183" y="369"/>
      <point x="204" y="414"/>
      <point x="204" y="414" type="qcurve"/>
      <point x="208" y="410"/>
      <point x="208" y="410" type="qcurve"/>
      <point x="208" y="410"/>
      <point x="204" y="414" type="qcurve" smooth="yes"/>
      <point x="201" y="418"/>
      <point x="202" y="432"/>
      <point x="203" y="439" type="qcurve"/>
      <point x="215" y="446"/>
      <point x="220" y="461"/>
      <point x="220" y="461" type="qcurve" smooth="yes"/>
      <point x="220" y="463"/>
      <point x="242" y="493"/>
      <point x="273" y="535"/>
      <point x="305" y="575"/>
      <point x="314" y="586" type="qcurve" smooth="yes"/>
      <point x="334" y="605"/>
      <point x="384" y="635"/>
      <point x="404" y="640" type="qcurve" smooth="yes"/>
      <point x="417" y="643"/>
      <point x="436" y="646"/>
      <point x="447" y="647"/>
      <point x="448" y="647" type="qcurve" smooth="yes"/>
      <point x="453" y="648"/>
      <point x="475" y="633"/>
      <point x="499" y="611"/>
      <point x="504" y="599" type="qcurve" smooth="yes"/>
      <point x="518" y="563"/>
      <point x="500" y="478"/>
      <point x="468" y="436" type="qcurve" smooth="yes"/>
      <point x="456" y="417"/>
      <point x="432" y="397"/>
      <point x="431" y="397" type="qcurve" smooth="yes"/>
      <point x="431" y="397"/>
      <point x="414" y="381"/>
      <point x="409" y="367" type="qcurve"/>
      <point x="399" y="358"/>
      <point x="387" y="341"/>
      <point x="384" y="341" type="qcurve" smooth="yes"/>
      <point x="381" y="341"/>
      <point x="370" y="325"/>
      <point x="363" y="306"/>
      <point x="366" y="300" type="qcurve"/>
      <point x="366" y="300"/>
      <point x="361" y="294"/>
      <point x="361" y="294" type="qcurve"/>
      <point x="354" y="294"/>
      <point x="361" y="270"/>
      <point x="376" y="241"/>
      <point x="380" y="232" type="qcurve"/>
      <point x="387" y="231"/>
      <point x="401" y="205"/>
      <point x="409" y="183" type="qcurve"/>
      <point x="411" y="156"/>
      <point x="415" y="132"/>
      <point x="416" y="114" type="qcurve" smooth="yes"/>
      <point x="413" y="85"/>
      <point x="390" y="46"/>
      <point x="352" y="26"/>
      <point x="326" y="24" type="qcurve" smooth="yes"/>
      <point x="300" y="20"/>
      <point x="274" y="27"/>
      <point x="251" y="34" type="qcurve" smooth="yes"/>
      <point x="223" y="45"/>
      <point x="202" y="67"/>
      <point x="212" y="86" type="qcurve" smooth="yes"/>
      <point x="214" y="90"/>
      <point x="221" y="92"/>
      <point x="221" y="91" type="qcurve"/>
      <point x="229" y="91"/>
      <point x="232" y="92"/>
      <point x="232" y="92" type="qcurve"/>
      <point x="232" y="92"/>
      <point x="249" y="92"/>
      <point x="262" y="91" type="qcurve" smooth="yes"/>
      <point x="277" y="90"/>
      <point x="298" y="84"/>
      <point x="313" y="84"/>
      <point x="319" y="93" type="qcurve"/>
      <point x="330" y="95"/>
      <point x="345" y="96"/>
      <point x="345" y="96" type="qcurve" smooth="yes"/>
      <point x="346" y="96"/>
      <point x="346" y="105" type="qcurve" smooth="yes"/>
      <point x="345" y="106"/>
      <point x="346" y="106" type="qcurve" smooth="yes"/>
      <point x="346" y="106"/>
      <point x="359" y="127"/>
      <point x="356" y="137" type="qcurve" smooth="yes"/>
      <point x="355" y="151"/>
      <point x="351" y="173"/>
      <point x="337" y="190" type="qcurve"/>
      <point x="329" y="213"/>
      <point x="306" y="252"/>
      <point x="288" y="277"/>
      <point x="286" y="278" type="qcurve" smooth="yes"/>
      <point x="281" y="284"/>
      <point x="287" y="304"/>
      <point x="289" y="310" type="qcurve" smooth="yes"/>
      <point x="291" y="316"/>
      <point x="295" y="321"/>
      <point x="295" y="321" type="qcurve" smooth="yes"/>
      <point x="295" y="322"/>
      <point x="317" y="352"/>
      <point x="347" y="391"/>
      <point x="372" y="425"/>
      <point x="375" y="430" type="qcurve" smooth="yes"/>
      <point x="392" y="441"/>
      <point x="424" y="471"/>
      <point x="424" y="475" type="qcurve" smooth="yes"/>
      <point x="419" y="489"/>
      <point x="438" y="513" type="qcurve" smooth="yes"/>
      <point x="452" y="536"/>
      <point x="459" y="574"/>
      <point x="453" y="587" type="qcurve"/>
      <point x="437" y="597"/>
      <point x="376" y="568"/>
      <point x="351" y="539" type="qcurve" smooth="yes"/>
      <point x="344" y="531"/>
      <point x="320" y="503"/>
      <point x="318" y="502" type="qcurve" smooth="yes"/>
      <point x="304" y="484"/>
      <point x="265" y="417"/>
      <point x="228" y="339"/>
      <point x="216" y="303" type="qcurve"/>
      <point x="220" y="296"/>
      <point x="208" y="266"/>
      <point x="198" y="258" type="qcurve"/>
      <point x="200" y="244"/>
      <point x="198" y="221"/>
      <point x="198" y="221" type="qcurve" smooth="yes"/>
      <point x="198" y="214"/>
      <point x="192" y="204"/>
      <point x="192" y="204" type="qcurve"/>
      <point x="187" y="204"/>
      <point x="185" y="204"/>
      <point x="185" y="203" type="qcurve" smooth="yes"/>
      <point x="185" y="203"/>
      <point x="179" y="175"/>
      <point x="171" y="155" type="qcurve" smooth="yes"/>
      <point x="161" y="127"/>
      <point x="151" y="98"/>
      <point x="146" y="68"/>
      <point x="142" y="38" type="qcurve"/>
      <point x="129" y="-2"/>
      <point x="116" y="-56"/>
      <point x="112" y="-79" type="qcurve" smooth="yes"/>
      <point x="111" y="-83"/>
      <point x="111" y="-102"/>
      <point x="113" y="-108" type="qcurve" smooth="yes"/>
      <point x="111" y="-115"/>
      <point x="106" y="-142"/>
      <point x="102" y="-172"/>
      <point x="102" y="-184" type="qcurve" smooth="yes"/>
      <point x="102" y="-203"/>
      <point x="96" y="-214"/>
    </contour>
  </outline>
</glyph>
<glyph name="thorn" format="2">
  <advance width="378"/>
  <unicode hex="00FE"/>
  <outline>
    <contour>
      <point x="61" y="-224" type="qcurve" smooth="yes"/>
      <point x="57" y="-224"/>
      <point x="45" y="-225"/>
      <point x="40" y="-216" type="qcurve" smooth="yes"/>
      <point x="36" y="-211"/>
      <point x="35" y="-191"/>
      <point x="40" y="-165" type="qcurve" smooth="yes"/>
      <point x="45" y="-148"/>
      <point x="51" y="-115"/>
      <point x="51" y="-107" type="qcurve" smooth="yes"/>
      <point x="51" y="-103"/>
      <point x="56" y="-80"/>
      <point x="56" y="-75" type="qcurve" smooth="yes"/>
      <point x="61" y="-67"/>
      <point x="67" y="-39"/>
      <point x="67" y="-28" type="qcurve" smooth="yes"/>
      <point x="67" y="-23"/>
      <point x="74" y="-10"/>
      <point x="79" y="-6" type="qcurve"/>
      <point x="79" y="2"/>
      <point x="86" y="26"/>
      <point x="86" y="30" type="qcurve" smooth="yes"/>
      <point x="88" y="41"/>
      <point x="103" y="92"/>
      <point x="125" y="160"/>
      <point x="150" y="231"/>
      <point x="174" y="297"/>
      <point x="183" y="321" type="qcurve" smooth="yes"/>
      <point x="187" y="330" type="line"/>
      <point x="246" y="311" type="line"/>
      <point x="287" y="330"/>
      <point x="350" y="333"/>
      <point x="393" y="308"/>
      <point x="415" y="264"/>
      <point x="415" y="235" type="qcurve" smooth="yes"/>
      <point x="415" y="223"/>
      <point x="405" y="190"/>
      <point x="390" y="163"/>
      <point x="384" y="157" type="qcurve" smooth="yes"/>
      <point x="380" y="157"/>
      <point x="372" y="144"/>
      <point x="368" y="136" type="qcurve" smooth="yes"/>
      <point x="360" y="126"/>
      <point x="325" y="101"/>
      <point x="291" y="86"/>
      <point x="283" y="89" type="qcurve"/>
      <point x="283" y="89"/>
      <point x="278" y="88"/>
      <point x="278" y="83" type="qcurve" smooth="yes"/>
      <point x="278" y="81"/>
      <point x="246" y="68"/>
      <point x="204" y="57"/>
      <point x="188" y="57" type="qcurve" smooth="yes"/>
      <point x="176" y="57"/>
      <point x="164" y="60"/>
      <point x="158" y="65" type="qcurve" smooth="yes"/>
      <point x="156" y="63"/>
      <point x="151" y="55"/>
      <point x="151" y="52" type="qcurve" smooth="yes"/>
      <point x="151" y="46"/>
      <point x="142" y="13"/>
      <point x="130" y="-17"/>
      <point x="125" y="-17" type="qcurve"/>
      <point x="125" y="-17"/>
      <point x="121" y="-23"/>
      <point x="125" y="-28" type="qcurve"/>
      <point x="125" y="-28"/>
      <point x="124" y="-51"/>
      <point x="119" y="-59" type="qcurve"/>
      <point x="119" y="-67"/>
      <point x="113" y="-99"/>
      <point x="109" y="-107" type="qcurve"/>
      <point x="109" y="-119"/>
      <point x="102" y="-142"/>
      <point x="98" y="-142" type="qcurve" smooth="yes"/>
      <point x="94" y="-143"/>
      <point x="92" y="-166"/>
      <point x="92" y="-171" type="qcurve" smooth="yes"/>
      <point x="91" y="-196"/>
      <point x="73" y="-224"/>
    </contour>
    <contour>
      <point x="182" y="110" type="qcurve" smooth="yes"/>
      <point x="190" y="110"/>
      <point x="240" y="124"/>
      <point x="293" y="145"/>
      <point x="306" y="156" type="qcurve" smooth="yes"/>
      <point x="332" y="179"/>
      <point x="361" y="238"/>
      <point x="344" y="265" type="qcurve" smooth="yes"/>
      <point x="336" y="279"/>
      <point x="294" y="274"/>
      <point x="244" y="246"/>
      <point x="222" y="225" type="qcurve" smooth="yes"/>
      <point x="210" y="212"/>
      <point x="190" y="174"/>
      <point x="177" y="136"/>
      <point x="175" y="110"/>
    </contour>
    <contour>
      <point x="185" y="327" type="line"/>
      <point x="192" y="342"/>
      <point x="216" y="406"/>
      <point x="243" y="484"/>
      <point x="268" y="557"/>
      <point x="283" y="609"/>
      <point x="283" y="613" type="qcurve" smooth="yes"/>
      <point x="283" y="621"/>
      <point x="291" y="629"/>
      <point x="299" y="629" type="qcurve" smooth="yes"/>
      <point x="302" y="632"/>
      <point x="311" y="634"/>
      <point x="315" y="634" type="qcurve" smooth="yes"/>
      <point x="315" y="634"/>
      <point x="323" y="626"/>
      <point x="331" y="618" type="qcurve" smooth="yes"/>
      <point x="339" y="611"/>
      <point x="342" y="593"/>
      <point x="342" y="581" type="qcurve" smooth="yes"/>
      <point x="339" y="575"/>
      <point x="324" y="529"/>
      <point x="295" y="445"/>
      <point x="271" y="379" type="qcurve" smooth="yes"/>
      <point x="245" y="297" type="line"/>
    </contour>
  </outline>
</glyph>
